<?xml version="1.0" standalone="no"?>
<!DOCTYPE svg PUBLIC "-//W3C//DTD SVG 20010904//EN"
 "http://www.w3.org/TR/2001/REC-SVG-20010904/DTD/svg10.dtd">
<svg version="1.0" xmlns="http://www.w3.org/2000/svg"
 width="1107.000000pt" height="351.000000pt" viewBox="0 0 1107.000000 351.000000"
 preserveAspectRatio="xMidYMid meet">
<metadata>
Created by potrace 1.12, written by Peter Selinger 2001-2015
</metadata>
<g transform="translate(0.000000,351.000000) scale(0.100000,-0.100000)"
fill="#000000" stroke="none">
<path d="M2948 3214 c-14 -15 -21 -15 -47 -4 -39 16 -83 1 -128 -42 -37 -36
-41 -53 -15 -67 14 -7 26 -5 48 10 39 26 44 24 37 -14 -7 -45 15 -64 56 -47
26 10 33 9 59 -10 17 -12 50 -24 73 -27 36 -4 52 1 87 24 43 28 61 58 45 74
-5 5 -34 -2 -67 -15 -85 -35 -105 -21 -85 60 6 24 9 50 5 59 -7 20 -48 19 -68
-1z"/>
<path d="M387 3067 c-27 -26 -82 -188 -73 -212 3 -9 15 -19 26 -22 12 -3 20
-14 20 -26 0 -11 9 -30 19 -41 18 -20 42 -111 55 -216 4 -25 11 -218 17 -430
6 -212 13 -451 15 -531 4 -94 2 -149 -4 -153 -6 -3 -36 3 -66 15 -31 11 -60
18 -66 14 -33 -20 15 -62 96 -85 34 -10 46 -19 51 -38 8 -34 -5 -531 -17 -607
-5 -33 -14 -98 -19 -145 -6 -47 -18 -109 -26 -139 -9 -29 -14 -60 -11 -68 9
-22 49 -11 63 18 41 85 74 392 77 717 1 186 4 235 15 242 26 16 100 22 122 9
22 -11 21 -13 -34 -64 -58 -55 -72 -85 -38 -85 21 0 59 28 136 101 38 35 60
48 93 53 23 3 42 2 42 -3 0 -4 -32 -32 -71 -61 -83 -62 -101 -90 -74 -120 26
-29 42 -25 70 19 22 36 54 60 210 164 32 21 60 30 107 34 l63 6 -20 -23 c-11
-12 -45 -41 -75 -63 -71 -52 -99 -85 -100 -119 0 -42 17 -43 53 -3 17 20 61
56 97 79 36 24 86 66 112 95 42 45 52 51 88 51 22 0 40 -3 40 -7 -1 -11 -78
-67 -127 -92 -48 -24 -71 -57 -53 -75 12 -12 21 -8 179 88 109 67 176 99 191
94 14 -4 -96 -85 -168 -124 -62 -33 -98 -72 -82 -88 12 -12 84 25 210 106 41
26 98 59 127 73 28 14 57 32 63 40 9 11 36 15 106 15 52 0 94 -4 94 -9 0 -13
-27 -33 -98 -71 -75 -40 -108 -77 -97 -109 9 -30 53 -29 64 2 5 12 31 35 57
49 27 15 82 51 123 81 l73 55 126 -5 c69 -2 130 -7 135 -10 13 -8 -21 -41 -84
-79 -63 -38 -87 -80 -68 -116 16 -31 63 -21 67 15 3 20 18 37 61 66 31 21 63
46 71 56 7 9 26 23 41 31 27 13 29 13 45 -11 33 -51 84 -53 84 -4 0 17 8 19
61 19 75 0 74 -12 -4 -58 -64 -37 -85 -65 -66 -88 15 -18 33 -18 48 0 7 8 57
40 111 70 97 56 98 56 182 56 57 0 90 -5 103 -14 19 -14 18 -15 -14 -33 -19
-10 -68 -41 -110 -68 -60 -40 -77 -57 -79 -78 -5 -39 25 -48 52 -15 12 13 44
37 71 53 28 15 77 47 110 69 33 23 73 47 89 54 35 15 276 17 276 2 0 -5 -31
-25 -68 -44 -76 -38 -95 -56 -90 -83 6 -30 43 -26 90 9 25 19 60 40 79 48 19
8 58 29 88 47 51 31 61 33 147 33 129 0 132 -14 16 -70 -65 -31 -87 -58 -78
-95 9 -34 37 -41 58 -13 31 40 47 55 86 74 20 10 64 41 97 69 l59 50 155 -3
c85 -1 157 -5 159 -7 10 -10 -24 -37 -102 -79 -88 -48 -115 -81 -96 -117 15
-27 37 -24 66 10 13 16 59 50 102 74 42 25 90 59 106 76 l30 31 137 0 c76 0
140 -4 143 -8 7 -11 -35 -42 -99 -75 -71 -36 -105 -70 -105 -106 0 -34 21 -50
56 -43 25 4 49 34 37 45 -11 11 18 36 91 77 39 23 90 57 114 76 41 32 48 34
122 34 134 0 143 -16 38 -64 -82 -37 -101 -54 -96 -88 5 -38 54 -37 92 2 17
18 72 56 122 85 83 49 98 54 172 60 70 7 82 5 82 -8 0 -8 -16 -25 -35 -37 -33
-20 -65 -56 -65 -71 0 -29 82 2 223 85 34 20 50 24 68 18 28 -11 38 -7 98 31
60 40 113 94 109 114 -2 9 -18 21 -36 25 -18 5 -42 18 -52 28 -24 24 -63 26
-84 4 -21 -21 -20 -27 9 -62 31 -37 34 -35 -110 -54 -75 -10 -263 -12 -760
-11 -363 2 -747 3 -852 3 l-193 0 -16 38 c-14 33 -15 63 -4 289 7 139 9 273 6
298 -5 29 -2 58 6 81 12 34 11 37 -12 56 -17 13 -32 18 -50 13 -14 -3 -65 -5
-115 -5 -49 1 -178 -4 -285 -11 -254 -15 -367 -13 -397 6 -36 24 -63 19 -63
-11 0 -49 27 -52 444 -48 272 3 383 1 392 -7 18 -15 19 -204 3 -450 -9 -133
-9 -184 0 -209 6 -18 9 -35 6 -38 -13 -13 -262 -6 -610 18 -306 22 -291 17
-280 84 2 17 14 90 26 161 16 100 20 160 17 260 -4 142 -15 178 -51 173 -18
-2 -21 -9 -19 -33 11 -126 13 -182 7 -221 l-7 -46 -42 4 c-24 3 -68 17 -98 30
-61 28 -88 23 -88 -16 0 -23 -1 -24 -82 -19 -46 3 -133 0 -195 -5 -75 -7 -125
-7 -150 0 -21 6 -51 11 -68 12 -40 2 -45 -27 -8 -51 24 -16 48 -18 223 -15
179 2 330 -10 330 -26 0 -4 -7 -15 -15 -25 -7 -11 -11 -25 -8 -33 9 -23 46
-16 103 21 52 33 90 44 90 28 0 -11 -32 -215 -36 -230 -2 -9 -30 -13 -91 -14
-48 -1 -92 0 -98 2 -5 1 -96 4 -201 4 -105 1 -196 5 -201 8 -14 9 -371 -11
-523 -30 -74 -9 -173 -17 -220 -18 -47 -1 -101 -7 -120 -14 -51 -17 -316 -42
-372 -35 -26 4 -52 12 -57 18 -11 14 -29 274 -36 521 -14 495 -17 577 -31 671
-7 55 -19 114 -24 131 -9 25 -6 39 20 94 40 86 43 177 5 214 -30 31 -69 32
-98 2z m28 -176 c-8 -17 -18 -31 -21 -31 -8 0 4 66 19 99 l11 26 4 -32 c2 -17
-4 -46 -13 -62z"/>
<path d="M2463 2978 c-17 -20 -27 -355 -13 -407 10 -40 13 -42 38 -36 48 12
52 21 45 104 l-6 78 33 12 c18 6 69 11 114 11 45 0 135 7 201 15 172 21 172
21 167 -14 -5 -38 20 -47 62 -22 33 21 106 96 106 109 0 22 -31 41 -88 51 -76
15 -102 8 -102 -24 0 -14 -7 -26 -17 -29 -48 -13 -266 -28 -310 -21 -26 4 -72
8 -101 8 -60 0 -60 0 -64 107 -3 62 -4 65 -29 68 -14 2 -30 -3 -36 -10z"/>
<path d="M8545 2878 c-47 -25 -59 -72 -27 -101 36 -32 112 -9 112 34 0 23 3
23 42 3 38 -19 73 -12 94 21 25 38 4 57 -60 53 -40 -2 -53 -7 -61 -24 l-11
-22 -21 24 c-24 26 -38 29 -68 12z"/>
<path d="M7204 2720 c-73 -11 -94 -25 -95 -63 -4 -143 4 -253 18 -269 37 -41
61 -15 78 84 7 44 36 68 83 68 43 0 72 16 72 40 0 21 -18 28 -85 32 -32 2 -40
7 -40 23 0 14 8 21 25 23 14 2 40 8 58 14 26 8 32 15 30 31 -3 19 -10 22 -48
23 -25 1 -68 -1 -96 -6z"/>
<path d="M7930 2657 c-33 -16 -90 -130 -93 -186 -1 -32 3 -46 16 -55 28 -18
51 5 59 57 3 25 11 54 18 64 9 15 10 9 7 -32 -6 -63 -1 -75 29 -75 20 0 29 11
50 55 15 30 30 55 35 55 4 0 12 -19 16 -41 5 -23 16 -47 26 -53 20 -12 35 2
71 65 l19 34 13 -30 c7 -16 13 -44 14 -60 0 -35 16 -55 41 -55 28 0 31 16 19
93 -13 74 -25 106 -44 119 -18 12 -60 8 -80 -7 -17 -13 -22 -12 -45 6 -19 15
-34 19 -58 14 -19 -3 -33 -2 -33 4 0 13 -29 41 -43 41 -7 0 -23 -6 -37 -13z"/>
<path d="M8575 2643 c-55 -14 -76 -76 -30 -87 23 -6 25 -10 19 -40 -11 -63 32
-99 71 -59 14 14 22 14 49 5 89 -32 246 19 246 80 0 32 -23 30 -94 -7 -75 -39
-94 -43 -103 -18 -4 11 7 27 38 54 37 32 42 41 33 56 -16 25 -43 28 -81 8 -30
-16 -35 -17 -73 -1 -22 9 -44 15 -48 15 -4 -1 -16 -4 -27 -6z"/>
<path d="M7510 2591 c-37 -5 -46 -10 -48 -29 -3 -23 1 -25 53 -37 l29 -6 -43
-20 c-30 -13 -42 -24 -39 -36 3 -15 16 -18 87 -21 84 -3 111 6 111 34 0 8 -12
19 -26 25 -25 9 -26 10 -10 28 28 31 -5 74 -52 69 -9 0 -37 -4 -62 -7z"/>
<path d="M8336 2574 c-21 -20 -20 -37 2 -57 33 -30 72 -15 72 28 0 42 -44 59
-74 29z"/>
<path d="M1801 2211 c-10 -6 -12 -19 -7 -45 4 -20 8 -69 10 -109 3 -85 8 -97
41 -97 26 0 35 17 35 65 0 36 -1 36 103 59 31 7 37 39 10 55 -14 8 -15 12 -4
25 16 20 7 46 -15 46 -10 0 -32 -5 -51 -12 -27 -10 -38 -9 -68 5 -41 20 -36
19 -54 8z"/>
<path d="M2797 1830 c-34 -27 -59 -96 -55 -151 2 -37 7 -45 26 -47 24 -4 27 2
37 61 6 40 20 49 28 17 7 -28 50 -26 69 2 l15 22 25 -28 c20 -24 27 -27 45
-18 11 6 26 25 33 42 7 16 16 30 21 30 5 0 20 -25 34 -55 20 -45 28 -55 49
-55 33 0 36 16 16 73 -36 102 -87 138 -140 99 -30 -22 -55 -19 -123 14 -38 19
-50 18 -80 -6z"/>
<path d="M9105 1239 c-60 -5 -141 -9 -180 -8 -418 4 -784 -3 -801 -15 -15 -12
-17 -31 -15 -172 1 -87 -2 -165 -7 -172 -7 -10 -26 -6 -91 18 -45 16 -93 30
-106 30 -25 0 -31 -11 -37 -70 l-3 -25 -215 -2 c-118 -2 -258 -6 -310 -10 -93
-8 -95 -9 -95 -33 0 -25 1 -25 85 -24 47 0 159 3 250 5 91 3 190 3 220 0 52
-6 56 -8 66 -40 12 -37 38 -61 65 -61 10 0 52 18 94 39 67 35 77 38 83 23 9
-22 7 -142 -3 -258 -9 -109 -3 -119 82 -130 57 -7 805 20 998 36 55 5 134 9
175 10 78 0 120 16 120 46 0 8 12 20 26 26 21 10 24 17 19 37 -10 42 -10 50
-1 188 5 77 13 136 20 141 6 5 58 12 115 16 57 4 127 12 155 17 28 5 126 10
218 11 148 2 169 0 187 -16 19 -17 23 -17 113 4 51 12 131 28 178 34 69 9 85
15 88 30 2 10 -1 23 -6 28 -14 14 -194 57 -286 68 -87 10 -106 4 -106 -36 0
-35 -42 -41 -305 -48 -126 -3 -259 -9 -295 -12 l-66 -6 -23 128 c-12 71 -24
143 -27 159 -8 56 -15 60 -84 47 -40 -7 -70 -8 -86 -2 -28 11 -49 11 -209 -1z
m-68 -93 c274 -1 355 -4 365 -14 16 -16 25 -599 9 -615 -20 -20 -104 -28 -366
-37 -148 -4 -342 -12 -430 -16 -88 -5 -214 -9 -280 -9 -118 0 -120 0 -123 23
-2 13 4 32 13 42 14 16 15 25 6 52 -16 48 -17 543 -2 562 19 22 39 24 256 18
110 -2 358 -5 552 -6z"/>
<path d="M10040 720 c-8 -5 -39 -10 -68 -10 -48 0 -58 -4 -89 -35 -40 -40 -40
-64 2 -85 23 -11 29 -21 27 -38 -8 -53 44 -69 83 -26 22 23 28 25 52 16 87
-34 166 -21 225 38 42 42 45 51 22 74 -21 22 -26 21 -74 -19 -27 -22 -52 -35
-71 -35 -38 0 -37 18 1 55 19 18 30 38 28 50 -3 17 -11 20 -63 23 -33 1 -67
-2 -75 -8z"/>
<path d="M7382 668 c-14 -14 -15 -141 -3 -227 9 -61 28 -81 77 -81 40 0 49 12
49 70 l0 45 45 3 c52 4 72 17 68 46 -3 18 -12 22 -58 26 -59 5 -67 19 -20 35
71 24 60 65 -19 65 -25 1 -57 7 -71 15 -31 18 -52 19 -68 3z"/>
</g>
</svg>
