<?xml version="1.0" standalone="no"?>
<!DOCTYPE svg PUBLIC "-//W3C//DTD SVG 20010904//EN"
 "http://www.w3.org/TR/2001/REC-SVG-20010904/DTD/svg10.dtd">
<svg version="1.0" xmlns="http://www.w3.org/2000/svg"
 width="806.000000pt" height="420.000000pt" viewBox="0 0 806.000000 420.000000"
 preserveAspectRatio="xMidYMid meet">
<metadata>
Created by potrace 1.12, written by Peter Selinger 2001-2015
</metadata>
<g transform="translate(0.000000,420.000000) scale(0.100000,-0.100000)"
fill="#000000" stroke="none">
<path d="M5998 3990 c-9 -6 -28 -30 -41 -55 -22 -38 -23 -47 -12 -59 8 -7 15
-33 17 -57 2 -36 7 -44 22 -44 15 0 21 8 24 35 2 24 13 42 33 59 39 30 53 65
38 94 -20 37 -47 46 -81 27z m50 -58 c-5 -26 -25 -25 -25 2 0 17 4 23 14 19 8
-3 13 -12 11 -21z"/>
<path d="M6175 3986 c-11 -8 -26 -11 -34 -8 -10 4 -13 1 -8 -11 3 -9 2 -17 -3
-17 -6 0 -9 -3 -8 -7 2 -5 -4 -34 -11 -66 -12 -50 -13 -60 -1 -67 19 -12 30
-3 30 23 0 25 35 107 46 107 4 0 3 -32 0 -71 -7 -64 -6 -70 10 -67 10 2 22 21
31 50 19 65 33 70 31 11 -2 -59 10 -99 24 -85 12 12 15 124 4 165 -4 18 -13
27 -26 27 -11 0 -20 -4 -20 -10 0 -20 -18 -9 -24 15 -7 29 -15 31 -41 11z"/>
<path d="M6492 3989 c-12 -4 -27 -20 -34 -34 l-11 -25 -23 25 c-28 30 -34 31
-66 5 -58 -45 -64 -220 -8 -220 15 0 69 73 75 102 8 36 14 39 58 25 69 -22 38
-83 -46 -89 -43 -3 -50 -24 -10 -34 31 -8 87 10 114 37 22 22 25 67 6 93 -7
10 -27 21 -45 24 -32 7 -32 7 -16 31 12 16 19 19 24 11 11 -17 52 -2 48 17 -5
25 -40 42 -66 32z m-90 -93 l-8 -28 -12 27 c-11 23 -11 30 0 36 20 12 28 -3
20 -35z m-43 -90 l-21 -21 6 48 c8 68 19 79 28 32 7 -33 5 -42 -13 -59z"/>
<path d="M7310 3590 c-14 -4 -66 -8 -117 -9 -51 -1 -114 -5 -140 -11 -26 -5
-79 -12 -118 -15 -38 -2 -104 -8 -145 -11 -44 -3 -94 -1 -120 6 -25 6 -106 15
-180 20 -74 6 -144 11 -155 12 -11 1 -37 -2 -57 -6 -37 -8 -47 -22 -29 -41 14
-16 24 -162 12 -170 -6 -3 -11 -1 -11 4 0 19 -18 12 -25 -10 -9 -29 14 -41 82
-46 42 -3 55 0 59 12 9 22 -9 38 -41 38 -25 0 -26 1 -25 56 1 90 0 100 -10
106 -24 15 3 22 47 13 27 -5 91 -11 143 -13 120 -4 178 -11 210 -23 14 -5 36
-8 50 -7 76 7 259 27 285 31 17 3 84 7 150 10 66 2 136 6 155 8 l35 3 3 -236
c2 -130 5 -360 5 -511 l2 -275 -75 -2 c-41 -1 -81 -2 -87 -2 -7 -1 -13 -8 -13
-16 0 -20 39 -28 115 -23 l64 4 -52 -26 c-36 -17 -53 -32 -55 -47 -4 -24 3
-27 91 -38 39 -5 46 -9 37 -20 -6 -7 -22 -16 -36 -19 -53 -14 -104 -41 -104
-56 0 -9 14 -24 31 -34 29 -17 30 -19 13 -37 -21 -23 -13 -45 22 -61 l26 -12
-7 -121 c-10 -153 -12 -119 21 -445 9 -94 13 -333 6 -379 -5 -34 -12 -45 -27
-47 -11 -1 -38 -7 -60 -13 -22 -6 -115 -10 -207 -10 -91 1 -172 -2 -179 -7 -7
-4 -198 -9 -425 -10 -227 -2 -439 -7 -471 -13 -32 -5 -123 -13 -203 -16 -525
-23 -597 -24 -705 -8 -27 4 -117 8 -200 8 -82 1 -195 5 -250 10 -84 6 -117 4
-206 -14 -59 -11 -141 -21 -182 -21 -66 0 -79 3 -99 23 -21 21 -23 32 -23 125
0 61 4 102 10 103 6 1 36 1 67 -1 47 -1 58 2 67 18 14 27 2 31 -75 25 -36 -3
-69 -1 -80 5 -18 11 -18 11 1 13 23 2 27 2 78 13 28 6 37 13 37 28 0 22 -1 22
-132 2 -44 -7 -53 12 -10 22 15 4 32 9 37 13 6 3 20 7 33 9 39 5 72 21 78 37
10 25 -3 30 -73 27 -79 -4 -77 11 3 29 30 7 62 18 71 24 19 14 9 35 -16 35
-10 0 -21 9 -24 20 -4 17 -11 20 -34 16 -49 -10 -59 -1 -55 48 4 49 17 58 64
45 31 -8 332 -3 368 7 23 6 154 20 239 25 20 1 84 2 143 1 l107 -2 3 -37 c2
-20 9 -38 15 -41 13 -4 17 3 28 52 8 40 20 23 16 -24 -2 -35 0 -40 18 -40 16
0 21 7 22 28 1 40 32 128 44 122 6 -3 9 -29 7 -57 -2 -47 0 -53 17 -53 15 0
22 11 31 50 7 28 16 50 21 50 5 0 9 8 9 17 0 9 3 14 6 10 5 -5 12 -60 14 -114
0 -18 40 -16 40 2 0 20 41 127 47 122 2 -3 6 -23 7 -46 3 -39 19 -71 37 -71 5
0 9 6 9 14 0 14 86 26 196 26 34 0 78 7 97 15 22 9 68 15 116 15 91 0 97 5 69
68 -18 39 -19 60 -13 260 4 119 6 247 6 284 -1 80 -4 78 139 85 128 6 120 6
148 -2 26 -9 27 -6 11 114 -11 89 -6 103 33 96 10 -2 18 0 18 6 0 5 9 9 19 9
17 0 37 27 27 37 -6 6 -37 6 -76 -1 -34 -6 -34 -6 -7 5 32 12 31 29 -1 44 -29
13 -24 27 16 44 18 8 32 20 32 27 0 17 -29 32 -50 27 -10 -3 -20 0 -24 5 -3 5
8 12 24 16 50 9 38 55 -12 47 -10 -1 -14 196 -5 206 5 4 118 16 162 17 31 1
53 6 59 15 13 20 -22 44 -54 36 -59 -15 -260 -22 -361 -11 -62 6 -78 4 -88 -8
-15 -17 -17 -16 55 -33 22 -5 70 -11 105 -12 35 -1 66 -5 69 -7 10 -11 11
-194 1 -194 -6 0 -11 5 -11 10 0 18 -19 11 -31 -12 -9 -17 -9 -24 3 -32 7 -6
12 -18 10 -28 -2 -9 7 -24 20 -33 l23 -16 -22 -16 c-24 -16 -30 -47 -13 -58 7
-4 7 -11 2 -18 -16 -20 -10 -45 15 -58 21 -11 23 -19 23 -86 0 -89 3 -88 -157
-96 -105 -5 -113 -4 -118 14 -7 21 -44 26 -63 7 -7 -7 -59 -13 -132 -15 -100
-3 -123 -1 -136 12 -15 14 -17 14 -30 -2 -7 -10 -14 -14 -14 -10 0 4 -9 3 -20
-3 -14 -7 -20 -7 -20 0 0 5 -5 10 -11 10 -6 0 -25 11 -43 25 -18 14 -38 25
-44 25 -6 0 -12 3 -14 8 -1 4 -28 24 -58 44 -30 21 -82 63 -115 94 -33 31 -89
78 -125 105 -36 27 -70 53 -77 59 -7 5 -16 10 -22 10 -5 0 -11 4 -13 9 -6 16
-107 91 -123 91 -8 0 -15 -7 -15 -15 0 -8 -4 -15 -10 -15 -5 0 -7 -6 -5 -12 6
-16 13 -83 21 -219 l6 -106 -71 0 c-39 0 -68 3 -65 8 3 5 12 9 20 9 8 0 14 4
14 9 0 5 7 16 15 24 7 8 17 26 20 40 6 22 3 27 -18 32 -17 5 -27 16 -31 36
-13 69 -129 10 -123 -63 3 -39 15 -61 27 -53 5 3 14 -4 20 -15 6 -11 18 -20
26 -20 8 0 12 -4 9 -10 -3 -5 -20 -9 -38 -8 -30 1 -110 -5 -232 -17 -127 -13
-214 -13 -224 -1 -6 7 -9 35 -7 62 3 27 5 54 5 60 1 7 10 14 21 17 11 3 20 12
20 20 0 17 -70 31 -84 17 -12 -12 -46 -13 -46 -1 0 12 53 33 87 35 76 4 62 47
-15 50 -49 2 -88 16 -45 16 29 0 83 29 83 45 0 17 -23 25 -76 25 -24 0 -44 5
-44 10 0 6 15 10 34 10 19 0 38 5 41 10 8 13 -14 42 -25 35 -5 -3 -11 -1 -15
5 -3 5 1 10 9 10 16 0 15 16 -3 64 -6 16 -9 47 -7 70 3 22 8 73 11 111 4 39
11 84 17 101 11 30 12 31 112 42 56 7 214 12 351 12 138 -1 273 2 300 5 28 3
183 8 345 10 282 5 382 8 622 20 l106 5 4 -60 3 -60 -37 0 c-32 0 -38 -4 -38
-20 0 -28 14 -31 85 -23 45 6 61 12 63 26 2 10 -3 17 -11 17 -33 0 -26 132 7
138 16 3 18 0 12 -19 -12 -38 -8 -60 13 -81 25 -23 26 -34 4 -46 -31 -18 -7
-40 49 -44 67 -5 80 -1 76 26 -2 17 -9 21 -35 18 -28 -2 -33 1 -33 19 0 18 5
21 30 17 36 -5 38 4 13 83 -9 30 -17 57 -17 61 -3 24 -27 31 -73 21 -27 -6
-60 -9 -75 -6 -19 3 -28 1 -28 -7 0 -8 -9 -11 -27 -7 -15 3 -37 1 -50 -4 -12
-4 -91 -10 -174 -13 -84 -3 -170 -8 -193 -11 -23 -3 -165 -8 -316 -11 -151 -3
-297 -7 -325 -9 -46 -3 -415 -5 -510 -3 -46 1 -152 -9 -210 -20 -29 -6 -49 -4
-73 7 -26 12 -37 13 -50 3 -25 -18 -24 -18 -206 -42 -158 -21 -306 -25 -544
-17 -28 1 -52 -2 -52 -6 0 -4 -8 -4 -17 2 -17 8 -80 16 -113 12 -8 0 -22 -14
-31 -29 l-16 -28 -114 13 c-63 6 -159 20 -214 30 -108 19 -225 23 -345 10 -41
-4 -140 -10 -220 -12 -135 -3 -195 0 -390 22 -125 13 -275 0 -337 -29 -32 -15
-35 -34 -22 -119 6 -41 12 -103 14 -139 2 -36 7 -110 12 -165 9 -110 10 -232
3 -238 -3 -3 -43 -7 -90 -9 -86 -5 -161 -31 -144 -48 5 -5 27 -5 49 -1 22 5
163 9 313 9 150 1 277 4 281 7 5 3 8 13 7 23 -3 16 -18 17 -175 14 -112 -2
-178 1 -186 8 -8 6 -13 36 -14 73 -1 34 -5 86 -10 115 -4 29 -9 92 -10 140 -3
103 -6 154 -15 242 l-7 66 33 1 c18 0 65 4 103 9 39 5 93 6 120 3 173 -23 397
-30 590 -18 232 15 324 15 380 1 22 -6 65 -14 95 -17 30 -3 82 -10 115 -16 33
-5 81 -9 107 -9 25 0 69 -5 97 -12 62 -14 62 -16 60 -194 l-1 -134 -57 0 c-32
0 -60 -3 -64 -6 -10 -10 4 -34 22 -35 9 0 11 -3 5 -5 -22 -9 -2 -51 37 -76
l40 -26 -30 -18 c-38 -22 -50 -53 -27 -69 10 -7 14 -19 10 -29 -9 -24 4 -64
23 -68 50 -10 70 -306 24 -349 -26 -25 -27 -54 -1 -72 21 -14 21 -37 5 -277
-1 -25 -3 -66 -4 -92 l-1 -48 -58 0 c-32 0 -61 -3 -65 -6 -13 -14 7 -34 34
-34 31 0 39 -14 14 -24 -39 -14 -2 -60 58 -71 l39 -8 -39 -18 c-59 -28 -76
-45 -68 -68 3 -12 14 -21 23 -22 14 0 13 -3 -5 -16 -13 -8 -23 -19 -23 -24 0
-14 49 -42 78 -45 15 -1 31 -2 36 -3 10 -1 2 -403 -8 -420 -4 -6 -13 -11 -21
-11 -8 0 -20 -8 -27 -18 -11 -15 -30 -18 -133 -17 -121 0 -190 -6 -300 -26
-33 -6 -235 -14 -450 -18 -214 -4 -415 -13 -445 -19 -103 -21 -157 -22 -173
-4 -36 42 -41 68 -44 232 -3 155 -16 276 -34 310 -33 65 -31 620 3 748 8 33 8
46 -1 51 -6 4 13 7 43 7 33 -1 60 4 68 12 21 21 -8 32 -92 33 -41 1 -95 2
-119 3 -28 0 -46 -4 -48 -11 -6 -17 38 -33 87 -33 l39 0 -10 -32 c-16 -52 -23
-185 -23 -438 -1 -210 1 -246 22 -335 29 -127 32 -160 32 -325 0 -74 4 -153 9
-174 8 -34 7 -42 -10 -54 -23 -16 -25 -64 -4 -82 13 -10 15 -42 13 -192 l-3
-179 -25 -7 c-14 -4 -62 -7 -107 -7 -79 0 -83 -1 -83 -22 0 -18 6 -23 28 -24
41 -1 112 2 136 7 31 6 144 16 201 18 38 1 50 5 53 18 5 25 -55 39 -107 25
-22 -6 -44 -7 -48 -3 -4 4 -7 82 -6 174 2 138 5 167 17 174 9 5 16 15 16 23 0
19 14 26 63 31 23 3 89 11 147 20 78 11 185 15 415 14 181 0 333 4 365 10 111
22 288 40 386 40 94 0 102 -2 124 -25 30 -31 60 -32 93 -1 26 24 28 24 234 24
114 0 233 2 263 5 30 4 100 9 155 12 55 3 118 8 141 11 36 5 44 3 70 -24 23
-23 37 -29 57 -25 15 3 27 9 27 13 0 11 53 21 125 25 33 2 71 5 85 8 14 3 34
8 45 10 105 23 178 29 284 22 64 -5 172 -9 241 -10 69 -1 174 -7 234 -14 59
-6 125 -9 145 -7 20 3 108 8 195 11 87 3 162 7 165 10 4 2 54 4 111 5 58 1
150 6 205 12 55 5 273 11 485 13 212 2 427 8 478 13 51 6 103 9 115 6 21 -4
146 -5 235 -1 26 1 42 6 42 14 0 9 7 9 30 1 43 -14 64 -5 50 23 -7 12 -13 86
-15 177 -1 87 -6 226 -10 310 -7 139 -6 154 10 166 21 15 15 42 -16 75 -21 22
-21 27 -11 153 10 137 16 152 60 145 14 -3 26 2 32 12 10 20 -3 47 -18 37 -6
-4 -35 -9 -63 -12 -44 -4 -50 -3 -41 9 10 12 36 22 110 43 8 2 12 12 10 21 -4
19 -20 20 -94 8 -64 -11 -63 10 1 40 31 14 58 25 61 25 12 0 64 45 64 56 0 21
-17 26 -91 26 -38 0 -71 4 -74 8 -2 4 25 15 60 25 35 9 69 23 76 31 15 19 4
44 -20 44 -11 0 -25 8 -30 18 -6 11 -10 102 -10 208 1 104 -2 225 -5 269 -4
44 -8 189 -10 322 -2 133 -7 246 -10 252 -8 12 -39 13 -76 1z m-3263 -197 c23
-22 29 -36 28 -63 -8 -172 -8 -238 -1 -259 8 -23 7 -24 -38 -19 -40 5 -46 3
-46 -13 0 -11 5 -19 10 -19 6 0 8 -10 5 -22 -7 -29 3 -43 40 -55 l30 -10 -27
-13 c-33 -16 -35 -34 -8 -57 19 -17 19 -17 0 -35 -11 -11 -20 -23 -20 -28 0
-17 31 -39 65 -46 26 -5 35 -12 36 -28 5 -77 4 -88 -8 -93 -22 -9 -28 -71 -8
-93 14 -15 17 -35 15 -92 -1 -40 -2 -83 -2 -95 0 -27 -19 -32 -110 -26 -143 8
-485 8 -642 0 -87 -4 -162 -5 -167 0 -4 4 -4 44 -1 88 8 91 -2 205 -19 216
-15 9 -2 15 49 24 39 6 70 33 55 49 -3 3 -37 3 -75 -1 -37 -3 -68 -3 -68 1 0
18 32 36 91 51 74 19 87 28 70 49 -10 12 -19 12 -64 0 -29 -8 -68 -14 -87 -14
-32 0 -33 1 -15 13 25 17 67 33 122 47 30 7 41 15 39 28 -3 14 -15 17 -77 18
-78 1 -135 19 -107 35 8 4 39 11 69 14 30 4 58 10 63 15 14 14 -1 40 -24 40
-16 0 -20 7 -20 33 0 17 -3 103 -5 190 l-5 157 63 1 c34 0 87 0 117 -2 185 -9
359 -1 425 19 17 5 57 10 90 11 33 2 61 4 62 5 1 1 18 3 37 4 26 2 41 -4 63
-25z m867 -487 c16 -14 32 -26 36 -26 4 0 18 -9 31 -21 54 -46 65 -55 89 -70
14 -9 48 -37 75 -63 76 -72 89 -82 108 -89 9 -3 17 -11 17 -16 0 -5 10 -13 23
-17 12 -4 41 -22 64 -41 26 -21 47 -32 55 -27 7 4 10 4 6 -1 -4 -4 -4 -13 2
-20 13 -16 -71 -80 -180 -135 -49 -25 -108 -62 -132 -80 -23 -19 -52 -40 -63
-46 -33 -18 -138 -83 -162 -100 -22 -16 -23 -15 -22 7 0 13 -3 50 -7 82 -5 48
-3 61 12 78 14 15 16 24 8 37 -6 10 -11 82 -12 167 -1 204 -13 380 -28 428 -6
20 -6 20 22 -1 16 -11 42 -32 58 -46z m-269 -126 c-3 -5 -8 -10 -11 -10 -2 0
-4 5 -4 10 0 6 5 10 11 10 5 0 7 -4 4 -10z m45 -60 c-26 -20 -40 -25 -40 -14
0 11 34 33 50 33 10 1 6 -6 -10 -19z m107 -116 c20 -6 21 -12 22 -124 l1 -118
-62 -6 c-108 -10 -515 -30 -569 -27 l-27 1 -1 98 c-2 90 0 99 21 119 19 18 35
22 96 22 40 0 76 2 80 4 7 5 96 14 247 27 124 10 166 11 192 4z m950 -132 c15
-11 48 -25 71 -32 l44 -11 -5 -227 c-2 -125 -8 -240 -12 -257 -8 -31 -9 -46
-3 -80 3 -17 -3 -20 -43 -21 -26 0 -66 -8 -89 -18 -24 -10 -65 -16 -94 -15
-28 1 -84 -2 -123 -6 l-73 -8 0 30 c0 27 -31 73 -49 73 -4 0 -16 -18 -26 -41
l-19 -41 -18 36 c-23 45 -45 46 -63 4 l-13 -33 -13 27 c-19 42 -41 40 -66 -7
-21 -37 -22 -38 -23 -13 0 40 -10 58 -31 58 -10 0 -18 6 -16 13 1 6 -7 12 -18
12 -20 0 -21 -2 -24 -93 -1 -22 -2 -22 -153 -21 -151 1 -292 -6 -307 -16 -18
-10 -182 -18 -357 -16 -70 1 -72 2 -79 29 -7 25 -9 46 -6 71 1 6 19 8 40 5 51
-6 61 18 30 71 -12 20 -28 61 -35 91 l-12 54 26 1 c83 2 106 6 110 20 3 8 21
30 42 49 36 35 45 78 13 66 -8 -3 -18 -6 -22 -6 -4 0 -14 -13 -24 -29 -10 -18
-29 -32 -47 -36 -16 -4 -32 -11 -35 -16 -4 -5 -18 -9 -32 -9 -25 0 -25 1 -19
53 4 30 2 65 -3 80 -10 27 -10 27 37 28 81 3 133 5 252 12 63 4 169 9 235 13
l120 5 0 -78 c0 -43 -3 -83 -8 -90 -4 -6 -1 -13 5 -16 10 -3 10 -9 0 -26 -10
-17 -10 -26 -2 -36 10 -12 20 -8 60 23 27 20 78 55 115 77 36 22 94 61 128 86
34 25 69 48 77 52 8 4 22 11 30 16 15 9 71 34 80 35 3 1 45 28 94 61 103 67
130 75 243 71 62 -3 88 -9 110 -24z m-1782 -182 l170 -1 3 -59 c5 -86 -6 -100
-76 -100 -81 0 -93 -6 -131 -63 -25 -38 -31 -55 -24 -66 16 -25 26 -19 52 31
25 49 41 58 104 58 l37 0 -25 -47 c-38 -73 -61 -111 -76 -129 -11 -14 -11 -18
5 -29 10 -8 28 -11 39 -9 48 11 52 9 55 -23 2 -22 -3 -38 -17 -52 -24 -24 -27
-57 -7 -80 8 -10 12 -30 8 -54 -4 -35 -7 -38 -29 -34 -31 6 -43 -19 -17 -38
63 -45 62 -42 32 -54 -41 -16 -31 -61 14 -61 10 0 18 -5 18 -12 0 -6 -3 -9 -6
-5 -8 8 -80 -28 -90 -44 -4 -7 3 -21 18 -34 13 -11 23 -26 21 -32 -2 -6 10
-21 27 -33 l30 -21 0 -102 c-1 -135 1 -134 -191 -142 -79 -4 -167 -10 -196
-15 -98 -17 -516 -10 -498 8 3 3 -2 14 -11 24 -13 13 -14 21 -6 31 7 8 10 42
8 85 -2 40 -1 72 2 72 4 0 6 54 5 120 l-2 120 30 15 c41 22 39 50 -3 42 -18
-4 -51 -9 -73 -12 -39 -6 -38 -5 21 23 67 32 82 48 65 65 -8 8 -24 8 -59 -2
-70 -19 -82 -21 -82 -12 0 5 12 12 28 16 35 8 132 64 132 75 0 16 -23 23 -77
22 -30 0 -63 2 -74 5 -18 5 -18 6 5 18 14 7 50 21 81 30 43 12 56 20 53 33 -2
12 -15 18 -41 20 l-37 3 -1 72 c-1 132 2 282 6 302 2 11 4 23 4 27 3 26 55 38
187 44 76 4 140 8 142 9 2 2 65 1 140 0 75 -2 214 -4 307 -5z m203 -697 c-10
-2 -26 -2 -35 0 -10 3 -2 5 17 5 19 0 27 -2 18 -5z"/>
<path d="M3668 3023 c-15 -9 -29 -26 -32 -37 -9 -34 -7 -116 4 -136 16 -30 40
-13 40 27 l0 35 28 -34 c15 -18 31 -35 36 -37 5 -2 17 -12 26 -21 16 -16 20
-17 40 -3 16 12 19 18 9 29 -6 8 -19 14 -28 14 -15 0 -61 41 -61 55 0 10 30
38 31 28 1 -11 17 29 18 45 1 20 -37 52 -61 52 -13 0 -35 -8 -50 -17z m66 -38
c5 -14 -20 -35 -43 -35 -15 0 -14 23 1 38 16 16 35 15 42 -3z"/>
<path d="M3860 2906 c0 -51 19 -96 41 -96 22 0 23 5 10 46 -5 16 -12 41 -15
57 -9 40 -36 35 -36 -7z"/>
<path d="M4956 2735 c-6 -30 -11 -35 -35 -35 -17 0 -31 -7 -35 -15 -6 -16 -1
-19 46 -29 21 -5 27 -13 30 -38 2 -22 9 -34 21 -36 13 -3 17 4 17 31 0 32 2
33 30 29 17 -2 30 -1 30 3 0 18 -23 45 -39 45 -23 0 -31 17 -24 53 4 22 2 27
-15 27 -15 0 -21 -9 -26 -35z"/>
<path d="M4930 2345 c-8 -9 -9 -19 -4 -25 15 -14 120 -16 133 -3 22 24 11 33
-38 33 -27 0 -56 2 -64 5 -7 3 -20 -1 -27 -10z"/>
<path d="M4310 2065 c-18 -22 -18 -126 -1 -159 13 -23 21 -26 49 -24 54 5 77
43 77 126 0 60 -2 67 -20 67 -18 0 -20 -7 -21 -62 0 -61 -14 -93 -39 -93 -19
0 -25 37 -18 102 6 59 -2 73 -27 43z"/>
<path d="M4466 2011 c-26 -29 -18 -48 17 -42 12 2 8 -12 -12 -33 -52 -58 -30
-93 44 -70 27 8 55 12 62 10 17 -7 36 21 29 40 -6 16 -18 16 -86 -2 -24 -7
-24 -6 -9 12 24 28 30 53 19 73 -14 26 -46 32 -64 12z"/>
<path d="M3913 2254 c-7 -7 -13 -18 -13 -24 0 -5 -13 -10 -30 -10 -16 0 -30
-4 -30 -10 0 -5 -8 -10 -18 -10 -10 0 -38 -18 -62 -40 -24 -22 -46 -40 -49
-40 -6 0 -41 -79 -62 -142 -11 -32 -10 -46 4 -91 11 -35 25 -57 39 -64 52 -25
87 -34 140 -37 31 -2 60 -6 64 -8 5 -3 26 -3 47 -1 27 4 37 10 37 24 0 27 -14
32 -119 33 -126 3 -153 15 -165 77 -11 57 7 116 55 181 46 60 152 108 165 74
8 -20 31 -20 75 -2 43 18 73 51 66 71 -5 13 -54 22 -89 16 -5 0 -8 3 -8 7 0
13 -34 11 -47 -4z"/>
<path d="M3491 2206 c-19 -23 -9 -79 16 -91 20 -11 21 -13 6 -43 -16 -32 -49
-51 -63 -35 -4 4 -11 28 -14 52 -7 51 -4 46 -34 55 -19 6 -25 2 -37 -28 -15
-36 -20 -131 -9 -160 7 -18 39 -21 50 -5 3 6 1 15 -6 19 -14 9 -21 82 -10 101
5 7 13 -4 20 -27 16 -51 28 -64 54 -64 34 0 61 25 87 79 15 33 30 51 44 53 11
2 18 6 15 9 -3 3 1 13 8 22 17 20 0 31 -34 23 -14 -4 -24 -2 -24 4 0 12 -37
50 -49 50 -5 0 -14 -6 -20 -14z"/>
<path d="M3507 1968 c-36 -10 -37 -11 -31 -44 4 -22 2 -34 -5 -34 -17 0 -13
-37 5 -44 56 -22 134 16 134 65 0 25 -40 71 -59 68 -3 -1 -23 -6 -44 -11z m51
-50 c-7 -19 -38 -22 -38 -4 0 10 9 16 21 16 12 0 19 -5 17 -12z"/>
<path d="M6400 2978 c-14 -5 -29 -17 -35 -26 -12 -20 -14 -181 -3 -183 28 -6
33 0 38 34 l5 39 20 -21 c52 -55 60 -61 76 -61 10 0 20 4 23 9 8 13 -4 41 -18
41 -6 0 -23 15 -37 33 l-26 32 24 25 c23 24 31 64 15 74 -18 11 -58 13 -82 4z
m50 -39 c0 -3 -11 -14 -25 -23 -19 -13 -25 -13 -25 -3 0 7 5 18 10 23 12 12
40 14 40 3z"/>
<path d="M2623 2970 c-32 -13 -55 -66 -61 -140 -3 -51 -1 -68 11 -78 13 -11
17 -10 26 6 6 11 8 22 4 25 -3 3 -2 14 2 24 5 15 11 9 31 -30 21 -41 29 -48
51 -45 32 4 43 27 15 34 -11 4 -24 21 -32 43 -10 33 -9 41 9 73 17 28 19 41
11 62 -5 14 -11 26 -14 26 -2 0 -10 2 -18 4 -7 3 -23 1 -35 -4z m27 -47 c0
-14 -19 -38 -25 -32 -8 8 5 39 16 39 5 0 9 -3 9 -7z"/>
<path d="M5700 2938 c0 -9 -12 -26 -27 -37 -24 -19 -28 -20 -43 -6 -9 9 -25
13 -34 9 -23 -9 -20 -51 4 -64 25 -14 25 -36 0 -77 -27 -45 -40 -41 -40 10 0
48 -22 77 -58 77 -31 0 -62 -38 -62 -77 0 -43 23 -43 35 -1 6 19 18 34 28 36
16 3 17 1 7 -17 -12 -23 -5 -45 11 -36 5 4 9 -5 9 -18 0 -13 9 -32 20 -42 18
-16 21 -16 43 -2 24 15 67 94 67 121 0 7 16 26 35 42 38 30 42 48 20 78 -13
17 -15 17 -15 4z"/>
<path d="M6599 2912 c-45 -46 -51 -66 -35 -113 8 -24 13 -45 11 -49 -2 -3 5
-11 15 -18 16 -10 21 -9 30 8 6 11 15 20 21 20 19 0 48 44 49 73 0 22 -4 27
-23 27 -13 0 -34 -9 -47 -20 -13 -11 -25 -20 -27 -20 -8 0 21 46 44 72 24 26
24 49 0 47 -7 0 -24 -12 -38 -27z"/>
<path d="M4480 2884 c-13 -32 -13 -47 0 -60 8 -8 5 -20 -7 -42 -10 -18 -21
-32 -24 -32 -7 0 -16 31 -25 79 -6 32 -12 41 -28 41 -36 0 -64 -99 -38 -137
21 -34 35 -28 30 12 -2 19 0 35 4 35 4 0 8 -8 8 -18 0 -22 30 -52 51 -52 14 0
47 33 79 79 8 11 18 21 23 21 15 0 37 28 37 49 0 29 -17 35 -32 12 -12 -19
-13 -19 -25 9 -15 37 -40 39 -53 4z"/>
<path d="M2788 2873 c-21 -5 -32 -34 -16 -44 7 -4 18 -3 25 3 21 17 28 0 10
-20 -19 -21 -6 -42 26 -42 11 0 15 -4 11 -11 -4 -7 -20 -9 -39 -6 -59 10 -53
-33 5 -48 18 -4 34 0 53 15 30 24 35 51 11 71 -8 7 -13 21 -10 32 9 37 -29 63
-76 50z"/>
<path d="M5671 2757 c-25 -52 -26 -66 -5 -95 17 -25 49 -22 71 7 10 14 13 14
30 -1 18 -16 21 -16 53 0 19 9 36 25 38 35 5 23 -28 35 -40 14 -14 -27 -35
-20 -48 16 -20 54 -26 62 -52 65 -22 3 -29 -4 -47 -41z m52 -27 c-3 -11 -9
-20 -14 -20 -10 0 -11 12 -3 34 9 22 23 10 17 -14z"/>
<path d="M490 2650 c-26 -26 -25 -60 2 -95 20 -26 20 -29 5 -54 -33 -54 -44
-42 -82 95 -2 6 -12 13 -23 16 -16 5 -23 -8 -50 -87 -36 -105 -37 -111 -18
-118 10 -4 18 4 24 26 5 18 16 52 23 76 l13 44 21 -64 c21 -66 33 -77 78 -65
13 3 33 25 47 51 14 25 32 46 42 46 17 1 30 4 46 9 4 1 9 2 13 2 3 0 10 8 17
18 10 16 8 20 -9 25 -10 4 -32 4 -48 0 -26 -5 -27 -4 -23 24 3 20 -2 35 -17
50 -26 26 -36 26 -61 1z m40 -56 c0 -14 -4 -23 -10 -19 -5 3 -10 15 -10 26 0
10 5 19 10 19 6 0 10 -12 10 -26z"/>
<path d="M1520 2599 c-25 -5 -62 -8 -82 -7 -43 4 -53 -17 -15 -31 35 -13 192
11 192 29 0 18 -34 22 -95 9z"/>
<path d="M1958 2554 c-7 -6 -153 -13 -353 -17 -165 -3 -395 -49 -395 -79 0
-24 35 -24 136 2 118 29 145 32 304 35 80 2 160 6 179 9 19 3 52 1 73 -5 45
-12 73 -5 82 18 7 17 -15 48 -26 37z"/>
<path d="M659 2493 c-1 -5 -2 -24 -3 -43 -2 -19 -11 -52 -20 -72 -10 -20 -16
-45 -14 -55 5 -26 32 -22 36 5 4 24 22 31 22 8 0 -19 25 -27 39 -13 13 13 15
47 3 47 -4 0 -9 12 -10 27 -1 14 -9 34 -18 44 -11 13 -12 18 -3 21 17 6 4 38
-16 38 -8 0 -15 -3 -16 -7z"/>
<path d="M7610 2465 c-7 -8 -20 -15 -29 -15 -13 0 -16 -14 -18 -87 -2 -88 7
-123 32 -123 10 0 15 15 17 48 l3 47 52 -52 c34 -35 57 -51 68 -47 20 8 19 43
-1 51 -9 3 -32 20 -50 36 -31 29 -31 31 -14 46 29 26 33 55 9 84 -23 30 -50
35 -69 12z m44 -43 c7 -11 -6 -27 -26 -35 -19 -7 -22 1 -12 27 6 17 29 22 38
8z"/>
<path d="M7786 2398 c-13 -41 -15 -127 -4 -135 21 -13 127 -10 132 4 9 24 -24
44 -60 37 l-34 -6 0 56 c0 44 -3 56 -15 56 -9 0 -17 -6 -19 -12z"/>
<path d="M2568 1803 c-29 -7 -61 -120 -56 -193 2 -37 7 -45 23 -45 14 0 20 7
21 30 2 44 2 45 22 45 20 0 52 -29 52 -47 0 -5 9 -18 20 -28 20 -18 21 -18 38
-1 12 14 14 20 5 23 -7 3 -13 10 -13 17 0 8 -12 25 -26 40 -25 25 -26 27 -10
44 25 29 21 77 -10 101 -27 21 -34 23 -66 14z m46 -80 c-14 -23 -41 -39 -50
-30 -4 4 0 24 10 44 16 34 18 35 34 19 13 -12 14 -21 6 -33z"/>
<path d="M2736 1643 c-4 -16 -9 -36 -12 -45 -6 -21 35 -60 58 -54 13 3 18 -2
18 -16 0 -27 19 -60 31 -53 9 6 11 103 2 137 -5 20 -33 13 -33 -8 0 -8 -7 -14
-15 -14 -12 0 -14 8 -9 40 6 36 4 40 -14 40 -13 0 -22 -9 -26 -27z"/>
<path d="M5213 1632 c-12 -8 -22 -176 -10 -188 14 -14 37 7 37 35 0 20 6 30
20 34 20 5 41 -19 60 -68 11 -30 36 -33 45 -6 4 13 -5 36 -28 68 -31 44 -33
50 -20 70 24 36 2 63 -50 63 -23 0 -47 -4 -54 -8z m67 -39 c0 -6 -27 -33 -34
-33 -8 0 -8 35 0 43 6 6 34 -2 34 -10z"/>
<path d="M4367 1580 c-24 -19 -25 -23 -23 -120 2 -60 7 -105 14 -112 15 -15
22 -7 27 28 2 16 4 31 5 34 1 3 2 14 1 25 0 16 1 17 7 4 9 -22 112 -109 128
-109 6 0 15 7 18 15 4 11 -9 26 -39 47 -52 37 -62 59 -41 90 9 12 16 37 16 54
0 59 -62 84 -113 44z m77 -35 c8 -21 -2 -41 -29 -59 -22 -15 -23 -14 -27 22
-3 21 0 40 6 44 18 13 44 9 50 -7z"/>
<path d="M5458 1587 c-56 -10 -58 -11 -72 -54 -16 -46 -17 -45 38 -47 32 -1
41 -13 27 -35 -7 -12 -13 -12 -24 -3 -7 7 -17 9 -20 5 -12 -12 -7 -36 10 -48
43 -31 100 44 72 93 -8 15 -25 29 -39 33 -20 5 -16 7 25 13 59 8 80 18 80 37
0 18 -25 19 -97 6z"/>
<path d="M4580 1465 c-17 -20 -3 -36 26 -29 29 7 31 -5 4 -36 -37 -42 -22 -60
50 -60 21 0 42 5 45 10 3 6 15 10 26 10 12 0 19 7 19 20 0 23 -37 28 -72 9
-28 -15 -31 -7 -12 28 25 42 13 63 -34 63 -22 0 -45 -6 -52 -15z"/>
<path d="M1552 409 c-13 -5 -52 -9 -86 -10 -56 -1 -63 -4 -59 -19 6 -23 35
-30 93 -24 25 3 63 7 85 9 22 1 46 3 53 4 13 1 17 40 5 42 -39 6 -72 5 -91 -2z"/>
<path d="M1472 281 c2 -9 22 -20 48 -26 37 -9 48 -8 62 4 33 29 21 38 -47 38
-53 -1 -65 -4 -63 -16z"/>
</g>
</svg>
