<?xml version="1.0" standalone="no"?>
<!DOCTYPE svg PUBLIC "-//W3C//DTD SVG 20010904//EN"
 "http://www.w3.org/TR/2001/REC-SVG-20010904/DTD/svg10.dtd">
<svg version="1.0" xmlns="http://www.w3.org/2000/svg"
 width="466.000000pt" height="321.000000pt" viewBox="0 0 466.000000 321.000000"
 preserveAspectRatio="xMidYMid meet">
<metadata>
Created by potrace 1.12, written by Peter Selinger 2001-2015
</metadata>
<g transform="translate(0.000000,321.000000) scale(0.100000,-0.100000)"
fill="#000000" stroke="none">
<path d="M762 2903 c5 -26 38 -29 38 -4 0 15 -6 21 -21 21 -14 0 -19 -5 -17
-17z"/>
<path d="M540 2890 c-24 -24 -20 -55 10 -80 11 -9 15 -22 11 -32 -12 -33 -26
-22 -46 37 -15 46 -25 61 -41 63 -19 3 -23 -4 -32 -55 -11 -63 -7 -83 14 -83
9 0 14 11 14 33 l0 32 19 -40 c34 -75 69 -80 108 -15 10 17 28 33 41 37 28 7
26 38 -3 38 -14 0 -21 9 -25 29 -3 16 -15 35 -27 43 -19 13 -24 12 -43 -7z"/>
<path d="M169 2845 c-62 -34 -66 -154 -6 -183 31 -15 28 11 31 -315 l2 -199
-43 7 c-38 6 -43 4 -43 -13 0 -25 18 -32 83 -32 l52 -1 -60 -30 c-60 -31 -75
-43 -75 -67 0 -16 45 -34 87 -35 40 0 36 -7 -21 -35 -31 -16 -43 -28 -39 -37
3 -8 11 -15 18 -15 8 0 12 -13 11 -37 -1 -46 28 -60 38 -17 13 49 18 28 31
-113 6 -65 5 -74 -12 -80 -10 -3 -21 -11 -25 -17 -7 -11 8 -45 28 -61 14 -11
24 -228 12 -240 -4 -4 -27 -8 -52 -10 -24 -2 -49 -6 -55 -9 -16 -10 -13 -26 4
-26 21 0 19 -8 -12 -35 l-28 -25 28 -25 c15 -14 35 -25 43 -25 10 0 4 -10 -15
-26 -36 -30 -40 -49 -11 -57 17 -4 18 -8 7 -31 -7 -14 -15 -26 -19 -26 -5 0
-8 -7 -8 -16 0 -12 10 -15 48 -13 58 4 53 24 58 -278 l4 -223 -110 0 c-107 0
-126 -5 -111 -28 12 -20 441 -19 441 1 -1 34 -17 40 -93 35 -74 -5 -76 -5 -83
21 -4 14 -8 96 -9 181 -1 85 -3 189 -5 230 -3 75 -3 75 22 75 14 1 33 7 42 14
24 20 4 36 -39 33 -19 -2 -35 2 -35 8 0 5 9 10 20 10 32 0 71 22 68 39 -4 17
-52 21 -100 8 -16 -4 -28 -4 -28 1 0 7 49 31 77 37 7 2 20 10 29 19 8 9 20 16
25 16 12 0 12 27 -1 35 -5 3 -36 -1 -69 -10 -66 -17 -111 -19 -111 -6 0 18 49
40 106 46 32 3 63 10 68 15 11 11 -11 40 -30 40 -8 0 -14 6 -15 13 0 6 -2 21
-5 32 -8 39 -5 200 5 203 5 2 7 12 4 22 -6 22 -6 22 132 41 50 7 92 13 95 14
3 1 19 4 35 8 17 4 68 11 115 16 82 9 85 9 107 -15 34 -37 74 -28 101 23 17
31 15 50 -8 73 -32 32 -88 21 -102 -20 -3 -10 -25 -14 -173 -26 -33 -3 -73 -9
-90 -14 -28 -8 -76 -15 -165 -26 -19 -3 -43 -7 -53 -10 -14 -4 -17 0 -15 28 1
18 -2 66 -6 107 -8 83 -3 91 51 91 17 0 35 5 39 12 10 16 -36 52 -50 38 -5 -5
-23 -10 -40 -10 l-29 0 36 28 c28 20 36 33 34 52 -2 24 -4 25 -69 22 -38 -2
-68 -2 -68 1 0 3 24 16 53 30 28 14 68 39 87 55 41 35 34 52 -24 56 -21 2 -42
8 -48 14 -7 7 -10 90 -10 242 l1 230 35 42 c30 35 36 49 36 89 0 38 -5 51 -22
63 -28 20 -74 20 -109 1z m91 -45 c13 -25 -12 -80 -41 -87 -10 -3 -19 -9 -19
-15 0 -19 -40 14 -46 37 -6 26 11 59 26 50 5 -3 12 0 16 6 4 8 3 9 -4 5 -7 -4
-12 -3 -12 2 0 29 65 31 80 2z m565 -1120 c-3 -5 -8 -10 -11 -10 -2 0 -4 5 -4
10 0 6 5 10 11 10 5 0 7 -4 4 -10z"/>
<path d="M734 2778 c-7 -11 -11 -32 -17 -87 -3 -33 17 -37 33 -6 8 15 17 22
23 16 13 -13 47 -1 47 18 0 9 -9 23 -20 31 -11 8 -20 20 -20 27 0 16 -36 17
-46 1z"/>
<path d="M3099 2294 c-8 -9 -15 -47 -17 -88 -4 -89 -9 -108 -23 -83 -6 9 -7
22 -4 27 3 6 4 10 1 10 -3 0 -13 -16 -22 -36 -20 -42 -10 -70 24 -67 22 3 22
5 7 -83 -4 -21 0 -35 10 -44 12 -10 16 -10 19 1 31 98 81 199 99 199 4 0 7
-10 7 -23 0 -25 -23 -63 -54 -88 -25 -20 -15 -49 17 -49 16 0 39 -16 66 -45
44 -48 81 -59 81 -25 0 11 -4 20 -9 20 -4 0 -29 21 -55 46 l-46 47 21 36 c24
41 29 92 10 115 -20 23 -39 20 -72 -13 -34 -34 -37 -26 -9 29 38 75 -4 170
-51 114z"/>
<path d="M3566 2221 c-41 -46 -40 -116 3 -147 13 -10 12 -16 -13 -49 -15 -20
-30 -34 -33 -31 -3 3 -5 42 -5 88 0 45 -4 90 -9 99 -11 21 -49 14 -49 -8 0 -8
-6 -27 -14 -41 -22 -42 -39 -109 -33 -126 9 -23 37 -20 37 4 0 31 21 122 28
116 3 -3 4 -35 3 -70 -2 -54 1 -68 18 -85 12 -12 25 -21 30 -21 17 0 59 40 71
69 7 17 25 34 43 42 48 19 87 51 87 69 0 29 -12 30 -42 5 -16 -14 -33 -25 -36
-25 -4 0 -5 23 -3 52 2 41 -1 54 -15 65 -25 18 -48 16 -68 -6z m50 -68 c-7
-54 -8 -55 -30 -47 -30 12 -11 94 23 94 11 0 12 -10 7 -47z"/>
<path d="M2432 2168 c-18 -18 -14 -59 8 -96 l21 -33 -22 -60 c-40 -108 -64
-96 -98 50 -19 81 -32 104 -59 98 -26 -4 -84 -209 -68 -236 13 -20 36 1 36 33
0 17 9 60 19 96 17 60 19 63 25 35 24 -111 59 -183 92 -191 36 -9 69 26 94
100 17 51 26 64 50 73 21 8 30 18 30 33 0 17 -4 21 -17 15 -32 -12 -35 -10
-38 29 -6 59 -41 86 -73 54z m41 -48 c3 -11 1 -23 -4 -26 -5 -3 -9 6 -9 20 0
31 6 34 13 6z"/>
<path d="M3800 2141 c0 -23 29 -36 36 -16 3 8 3 19 -1 25 -11 17 -35 11 -35
-9z"/>
<path d="M2816 2071 c-4 -5 -19 -12 -35 -16 -35 -8 -58 -32 -45 -45 16 -16
119 25 119 47 0 19 -29 30 -39 14z"/>
<path d="M3787 2074 c-4 -4 -7 -17 -7 -28 -1 -36 -39 -109 -54 -103 -10 4 -12
0 -9 -14 9 -34 26 -33 54 0 26 31 27 32 34 12 7 -22 29 -28 40 -11 3 5 1 20
-6 32 -7 12 -13 43 -13 68 -1 32 -6 46 -17 48 -8 1 -18 0 -22 -4z"/>
<path d="M2766 1955 c-6 -15 4 -22 34 -26 34 -3 50 2 60 21 10 19 8 20 -39 20
-35 0 -51 -4 -55 -15z"/>
<path d="M2532 1948 c-5 -7 -16 -32 -22 -55 -20 -67 7 -112 67 -113 17 0 60
45 68 71 4 12 20 33 36 46 16 14 26 30 22 38 -7 21 -27 19 -48 -5 -18 -19 -18
-19 -47 5 -32 27 -60 32 -76 13z m40 -96 c11 -4 14 -12 9 -20 -9 -16 -41 -5
-41 14 0 15 6 16 32 6z"/>
<path d="M1066 1789 c-17 -25 -9 -56 24 -91 21 -23 19 -44 -8 -85 -33 -52 -64
-18 -78 88 -7 50 -24 75 -47 66 -15 -6 -53 -150 -43 -166 17 -27 35 -10 42 39
7 56 23 67 25 18 2 -52 13 -80 40 -100 39 -29 73 -9 107 64 21 45 32 58 50 58
16 0 22 6 22 21 0 15 -5 19 -19 14 -15 -4 -20 1 -25 29 -7 34 -37 66 -63 66
-6 0 -19 -10 -27 -21z m48 -35 c10 -25 -1 -29 -14 -5 -6 12 -7 21 -1 21 5 0
12 -7 15 -16z"/>
<path d="M1286 1625 c-13 -10 -23 -12 -30 -5 -16 16 -62 12 -84 -7 -12 -11
-23 -36 -26 -63 -5 -38 -3 -50 14 -68 36 -39 77 -22 110 46 8 15 25 39 38 54
14 16 22 33 19 42 -8 20 -16 20 -41 1z m-76 -110 c-12 -15 -30 -12 -30 5 0 8
31 19 39 13 2 -1 -2 -9 -9 -18z"/>
<path d="M3599 1468 c-3 -102 -30 -189 -49 -158 -5 8 -9 7 -14 -5 -8 -22 12
-48 31 -40 11 3 14 -3 13 -23 -4 -52 0 -82 10 -82 6 0 15 12 21 28 48 121 66
145 89 118 8 -11 1 -23 -30 -54 -36 -38 -39 -43 -28 -67 14 -32 66 -64 112
-70 30 -4 36 -2 36 13 0 13 -12 22 -38 30 -20 6 -46 18 -57 26 -20 14 -20 15
7 43 15 15 28 33 29 38 1 6 4 16 7 24 8 20 -20 65 -42 69 -10 2 -31 -5 -46
-16 l-27 -20 5 26 c3 15 12 37 20 49 9 16 12 34 8 58 -6 29 -11 35 -31 35 -19
0 -25 -5 -26 -22z"/>
<path d="M3988 1368 c-40 -57 -76 -104 -80 -106 -13 -6 -9 -49 5 -60 29 -24
192 -102 204 -98 34 13 8 39 -82 81 -52 25 -95 48 -95 52 0 7 17 29 70 91 11
13 20 27 20 32 0 5 3 10 8 12 4 2 17 18 30 36 23 32 24 62 3 62 -6 0 -43 -46
-83 -102z"/>
<path d="M4283 1418 c-6 -7 -9 -54 -8 -105 2 -101 -3 -118 -33 -111 -18 5 -32
-8 -32 -28 0 -12 62 -27 126 -31 65 -4 72 -2 77 16 5 22 -14 32 -67 35 l-30 2
3 105 c2 82 -1 108 -12 117 -11 10 -17 9 -24 0z"/>
<path d="M3341 1363 c-49 -73 -78 -103 -96 -103 -9 0 -15 -9 -15 -22 0 -16 13
-31 43 -49 75 -47 146 -79 161 -73 22 9 20 44 -2 44 -10 0 -26 6 -37 14 -11 7
-24 14 -30 15 -18 1 -75 35 -75 44 0 7 75 103 91 117 14 11 29 51 24 60 -12
19 -25 10 -64 -47z"/>
<path d="M2991 1359 c-57 -53 -74 -169 -34 -224 30 -39 80 -46 122 -16 28 21
87 124 86 151 -3 46 -60 87 -110 78 -19 -4 -25 -1 -25 13 0 25 -11 24 -39 -2z
m123 -71 c10 -15 12 -27 5 -47 -14 -40 -68 -101 -89 -101 -29 0 -50 28 -50 65
0 48 18 81 52 98 36 17 63 12 82 -15z"/>
<path d="M269 416 c-2 -2 -39 -6 -82 -9 -88 -7 -96 -10 -93 -34 3 -17 8 -18
193 -13 18 0 27 41 12 51 -15 10 -23 11 -30 5z"/>
<path d="M158 312 c-48 -10 1 -42 65 -42 40 0 44 2 43 23 -1 19 -7 22 -46 23
-25 0 -53 -1 -62 -4z"/>
<path d="M183 235 c-59 -25 -31 -56 32 -35 19 6 40 20 45 31 9 17 7 19 -17 19
-15 -1 -43 -7 -60 -15z"/>
</g>
</svg>
