<?xml version="1.0" standalone="no"?>
<!DOCTYPE svg PUBLIC "-//W3C//DTD SVG 20010904//EN"
 "http://www.w3.org/TR/2001/REC-SVG-20010904/DTD/svg10.dtd">
<svg version="1.0" xmlns="http://www.w3.org/2000/svg"
 width="552.000000pt" height="485.000000pt" viewBox="0 0 552.000000 485.000000"
 preserveAspectRatio="xMidYMid meet">
<metadata>
Created by potrace 1.12, written by Peter Selinger 2001-2015
</metadata>
<g transform="translate(0.000000,485.000000) scale(0.100000,-0.100000)"
fill="#000000" stroke="none">
<path d="M717 4682 c-20 -22 -22 -56 -4 -69 6 -6 25 -13 40 -17 25 -6 28 -10
22 -33 -13 -54 -40 -98 -60 -98 -21 0 -54 54 -55 90 0 28 -37 85 -53 85 -26 0
-36 -160 -12 -180 23 -19 35 -4 24 30 -6 16 -9 39 -7 52 3 20 7 17 26 -21 12
-25 22 -49 22 -54 0 -17 34 -36 62 -37 15 0 36 9 47 21 20 22 41 90 41 134 0
17 11 35 30 52 17 13 30 33 30 44 0 24 -11 24 -40 -1 -20 -17 -25 -18 -39 -6
-28 25 -56 28 -74 8z m46 -36 c1 -5 -4 -11 -10 -13 -7 -3 -13 3 -13 12 0 17
18 18 23 1z"/>
<path d="M987 4560 c-26 -30 -47 -39 -47 -20 0 6 -16 10 -35 10 -39 0 -59 -23
-69 -81 -10 -59 46 -110 90 -81 16 10 46 71 40 81 -3 4 13 25 34 46 40 39 52
75 26 75 -8 0 -26 -13 -39 -30z m-67 -55 c0 -8 -7 -15 -15 -15 -16 0 -20 12
-8 23 11 12 23 8 23 -8z m2 -67 c-3 -11 -14 -18 -28 -18 -13 0 -24 2 -24 4 0
2 -2 11 -5 18 -4 11 3 14 28 14 27 -1 33 -4 29 -18z"/>
<path d="M403 4413 c-8 -21 -24 -67 -34 -103 -15 -56 -16 -66 -3 -73 8 -5 12
-12 9 -17 -3 -4 1 -10 9 -13 14 -6 20 -62 36 -342 5 -93 14 -249 19 -345 6
-96 13 -236 16 -310 3 -74 8 -182 10 -240 3 -58 8 -154 10 -215 3 -60 7 -150
10 -200 22 -367 28 -509 41 -990 3 -121 7 -239 8 -262 l3 -43 -161 -1 c-89 -1
-179 -3 -201 -4 -22 -2 -70 -4 -107 -4 -54 -1 -68 -4 -68 -16 0 -16 27 -16
428 0 l112 5 0 -208 c0 -214 9 -498 15 -519 3 -7 11 -13 20 -13 11 0 14 8 10
38 -3 20 -7 187 -10 370 l-6 332 103 1 c126 2 219 4 458 13 102 3 253 9 335
11 194 7 394 15 520 20 55 3 170 7 255 10 85 2 187 7 226 11 71 6 71 6 78 -20
3 -14 12 -26 20 -26 20 0 26 11 16 31 -9 16 -3 18 83 21 119 4 145 0 152 -23
11 -35 40 -22 36 16 0 7 188 11 542 13 620 3 1078 13 1204 28 48 6 52 5 55
-17 3 -22 8 -24 63 -24 115 1 235 85 143 99 -116 19 -234 23 -248 10 -9 -10
25 -24 48 -20 13 2 20 0 15 -5 -16 -16 -187 -27 -513 -34 -580 -12 -640 -13
-641 -1 0 7 -2 7 -5 -1 -4 -9 -89 -12 -339 -12 l-335 -1 5 88 c3 48 10 143 15
212 5 69 13 197 16 285 3 88 7 176 9 195 1 19 3 47 4 61 1 22 7 28 36 33 19 4
35 9 35 12 0 3 -12 41 -26 85 -14 44 -24 94 -22 110 3 16 1 29 -3 29 -5 0 -6
24 -3 53 4 28 7 178 8 332 1 154 6 294 11 310 10 39 37 85 49 85 5 0 26 17 45
38 39 40 162 138 276 217 39 27 72 52 75 55 3 3 23 17 45 31 88 56 221 145
235 157 26 23 279 196 325 222 56 32 61 38 40 46 -21 8 -54 -10 -155 -86 -41
-31 -100 -71 -130 -90 -30 -19 -60 -40 -67 -46 -6 -6 -45 -32 -87 -58 -45 -28
-73 -52 -70 -58 4 -6 3 -9 -2 -5 -5 3 -25 -4 -45 -16 -51 -32 -351 -243 -374
-264 -33 -29 -93 -73 -101 -73 -5 0 -33 -26 -64 -57 -30 -32 -69 -68 -85 -80
-17 -12 -50 -39 -75 -62 -31 -28 -48 -37 -56 -30 -17 14 -44 -4 -74 -48 -19
-28 -24 -49 -26 -116 -5 -135 -13 -410 -14 -436 0 -21 -4 -23 -29 -18 -19 4
-33 1 -41 -8 -7 -8 -18 -15 -26 -15 -18 0 -28 -20 -16 -32 7 -7 16 -6 29 1 18
9 21 4 36 -62 29 -126 32 -159 32 -322 0 -232 -15 -586 -26 -607 -5 -9 -9 -30
-9 -47 0 -30 -1 -31 -47 -32 -27 0 -88 -2 -138 -4 -49 -2 -186 -6 -303 -10
-118 -3 -222 -8 -233 -10 -11 -2 -97 -6 -192 -10 -94 -3 -226 -7 -292 -10
-107 -5 -504 -15 -690 -19 l-69 -1 -7 35 c-4 19 -10 175 -14 345 -3 171 -9
357 -11 415 -3 58 -5 112 -5 120 0 8 -4 71 -9 140 -5 69 -12 179 -15 245 -11
239 -15 301 -20 345 -3 25 -7 144 -11 265 -7 283 -11 360 -23 530 -6 77 -13
194 -16 260 -3 66 -11 147 -16 179 -9 51 -8 61 5 68 9 5 28 19 42 31 l26 22
-26 74 c-14 41 -26 83 -26 93 0 32 -30 19 -47 -19z m50 -121 c7 -9 5 -17 -9
-27 -18 -13 -20 -11 -26 23 -4 20 -4 46 -1 57 5 17 7 16 16 -10 5 -16 14 -36
20 -43z m-53 -32 c0 -5 -4 -10 -10 -10 -5 0 -10 5 -10 10 0 6 5 10 10 10 6 0
10 -4 10 -10z m2482 -1120 c-4 -3 -7 -133 -7 -290 0 -313 -8 -419 -35 -455
-12 -16 -60 -178 -60 -203 0 -22 1 -22 30 -7 16 8 32 15 35 15 4 0 4 -75 0
-167 -7 -169 -8 -188 -19 -298 -8 -93 -20 -284 -21 -342 0 -29 -4 -53 -10 -53
-5 0 -56 -2 -113 -4 -95 -2 -102 -1 -96 16 12 38 24 356 26 706 1 79 5 145 9
148 5 2 6 11 3 19 -3 7 0 23 6 35 6 12 13 29 15 38 2 9 13 46 25 81 23 70 17
91 -20 71 l-22 -12 7 249 c3 136 8 259 11 273 7 33 31 59 72 75 49 21 152 104
152 123 0 14 2 15 10 2 5 -8 6 -17 2 -20z m-295 -755 c-3 -28 -17 -46 -17 -22
0 8 -3 22 -6 31 -4 11 -1 16 10 16 12 0 16 -7 13 -25z m39 -12 c-3 -4 -6 2 -5
13 0 11 3 14 6 6 3 -7 2 -16 -1 -19z m234 -88 c0 -33 -4 -45 -15 -45 -8 0 -15
5 -15 12 0 13 22 78 27 78 2 0 3 -20 3 -45z m44 -7 c4 -17 2 -28 -4 -28 -5 0
-10 14 -10 32 0 36 4 35 14 -4z m1818 -895 c-7 -3 -16 -2 -19 1 -4 3 2 6 13 5
11 0 14 -3 6 -6z m82 -23 c-22 -9 -29 -6 -20 9 4 6 14 7 23 4 15 -6 14 -7 -3
-13z m-64 -20 c-20 -13 -50 -13 -50 0 0 6 15 10 33 10 24 0 28 -3 17 -10z"/>
<path d="M4930 1194 c-11 -28 -40 -185 -40 -215 0 -10 10 -23 21 -30 20 -10
21 -9 17 22 -7 42 11 169 23 169 5 0 9 -42 9 -92 0 -103 13 -141 49 -146 40
-6 65 7 94 48 20 28 36 40 52 40 32 0 75 17 75 30 0 5 -19 10 -42 10 -33 0
-39 3 -30 12 17 17 15 79 -4 106 -33 48 -104 15 -119 -57 -8 -36 9 -81 31 -81
23 0 25 -19 3 -37 -12 -10 -27 -24 -34 -30 -23 -22 -45 11 -45 65 -1 118 -10
196 -22 203 -21 14 -28 11 -38 -17z m197 -66 c5 -7 8 -19 7 -25 -1 -7 -2 -21
-3 -30 -2 -31 -17 -46 -39 -39 -28 9 -33 39 -11 75 20 34 31 38 46 19z"/>
<path d="M2552 1188 c-11 -11 -17 -38 -8 -38 2 0 11 -3 20 -6 13 -5 16 1 16
25 0 33 -8 39 -28 19z"/>
<path d="M2986 1156 c-8 -32 1 -53 24 -59 16 -4 18 -10 10 -36 -10 -37 -18
-51 -29 -51 -11 0 -28 48 -30 84 -1 32 -17 56 -36 56 -7 0 -17 -24 -24 -57
-15 -77 -14 -103 4 -103 9 0 15 6 14 13 -4 29 2 57 11 57 6 0 10 -10 10 -23 0
-13 11 -34 25 -47 23 -21 26 -22 48 -7 15 9 31 37 42 69 9 29 21 58 26 65 14
17 -33 63 -64 63 -18 0 -26 -7 -31 -24z m49 -16 c3 -5 -1 -10 -9 -10 -9 0 -16
5 -16 10 0 6 4 10 9 10 6 0 13 -4 16 -10z"/>
<path d="M5304 1129 c-10 -17 13 -36 27 -22 12 12 4 33 -11 33 -5 0 -12 -5
-16 -11z"/>
<path d="M3120 1105 c0 -8 5 -15 10 -15 6 0 10 7 10 15 0 8 -4 15 -10 15 -5 0
-10 -7 -10 -15z"/>
<path d="M2559 1095 c-1 -11 -3 -30 -4 -43 -1 -12 2 -25 7 -29 16 -9 29 19 22
47 -7 34 -24 49 -25 25z"/>
<path d="M3259 1078 c-1 -7 -2 -22 -3 -32 -2 -30 -26 -32 -26 -2 0 38 -27 33
-32 -6 -3 -18 -2 -44 2 -58 7 -28 37 -35 32 -7 -4 26 17 20 28 -8 12 -31 23
-32 44 -2 15 21 16 21 30 3 8 -10 23 -20 33 -21 10 -1 30 -7 46 -13 31 -13 74
-1 83 23 6 14 8 13 20 -2 10 -15 15 -16 26 -5 11 11 10 14 -2 22 -8 5 -13 10
-10 11 3 0 15 2 27 5 17 3 22 -2 25 -23 2 -15 9 -28 17 -31 11 -4 13 11 9 71
-2 42 -7 79 -11 84 -11 10 -28 -18 -24 -41 3 -31 -22 -30 -34 0 -8 23 -12 25
-19 14 -6 -8 -10 -28 -10 -44 0 -29 0 -29 -21 -10 -16 14 -24 16 -37 7 -9 -6
-16 -18 -16 -27 2 -12 -4 -16 -19 -14 -11 2 -22 8 -24 13 -5 16 20 46 42 49
27 4 25 30 -2 34 -15 2 -32 -6 -47 -23 l-25 -27 -7 36 c-9 50 -20 45 -28 -14
-6 -48 -20 -70 -34 -55 -4 4 -1 10 6 12 14 5 16 33 2 33 -5 0 -10 14 -10 30 0
20 -5 30 -15 30 -8 0 -16 -6 -16 -12z"/>
<path d="M3110 1028 c-6 -24 -13 -48 -15 -55 -6 -18 16 -28 26 -12 8 12 10 12
18 0 5 -8 16 -11 25 -8 20 8 21 37 1 37 -11 0 -15 11 -15 40 0 56 -26 54 -40
-2z"/>
<path d="M2565 978 c-4 -10 -4 -26 0 -35 6 -17 7 -17 16 0 7 11 7 23 0 35 -9
16 -10 16 -16 0z"/>
<path d="M5290 964 c-6 -14 -10 -31 -10 -38 0 -7 -7 -21 -15 -32 -8 -10 -15
-25 -15 -31 0 -22 30 -14 39 9 5 14 10 17 15 10 4 -7 11 -12 17 -12 11 0 12
33 2 44 -4 4 -6 23 -4 42 3 40 -15 46 -29 8z"/>
<path d="M2551 889 c-13 -39 -14 -42 -1 -34 6 3 10 1 10 -4 0 -16 20 -13 26 4
8 19 -3 65 -15 65 -5 0 -14 -14 -20 -31z"/>
<path d="M2554 815 c-8 -20 13 -68 26 -60 13 8 6 68 -9 73 -6 2 -14 -4 -17
-13z"/>
<path d="M2560 721 c0 -19 26 -48 36 -39 3 3 2 17 -2 32 -7 30 -34 36 -34 7z"/>
<path d="M2553 673 c-7 -2 -9 -11 -6 -19 7 -18 43 -18 43 0 0 16 -19 25 -37
19z"/>
<path d="M2626 481 c-23 -26 -20 -68 5 -76 17 -6 19 -12 14 -33 -3 -15 -15
-36 -25 -46 -25 -26 -44 -10 -60 52 -7 26 -14 55 -17 65 -5 21 -29 22 -37 1
-3 -9 -5 -34 -5 -57 1 -23 3 -34 6 -24 4 14 8 16 19 6 8 -6 14 -19 14 -28 0
-24 42 -61 68 -61 30 0 54 27 72 79 8 25 25 55 37 67 30 30 30 48 -1 40 -15
-4 -26 -1 -29 8 -9 22 -44 26 -61 7z m30 -48 c-10 -10 -19 5 -10 18 6 11 8 11
12 0 2 -7 1 -15 -2 -18z"/>
<path d="M2740 421 c0 -13 26 -32 33 -24 14 13 6 33 -13 33 -11 0 -20 -4 -20
-9z"/>
<path d="M3222 382 c1 -40 -11 -72 -29 -72 -11 0 -13 5 -8 18 17 40 18 62 1
62 -9 0 -16 -5 -16 -10 0 -6 -8 -10 -17 -8 -12 2 -19 -6 -24 -27 l-6 -30 -7
38 c-5 23 -14 37 -23 37 -12 0 -14 -8 -10 -37 3 -21 10 -51 16 -67 10 -25 15
-28 42 -22 17 3 39 1 49 -4 22 -12 47 9 54 43 17 81 14 107 -9 107 -8 0 -13
-11 -13 -28z"/>
<path d="M2844 377 c-3 -8 -6 -40 -7 -72 -2 -54 0 -59 23 -65 32 -9 70 5 70
25 0 11 -10 15 -35 15 -31 0 -35 3 -31 23 6 25 9 56 7 75 -1 16 -20 16 -27 -1z"/>
<path d="M2979 370 c-27 -16 -43 -64 -29 -90 28 -52 100 -42 114 16 6 23 2 32
-26 56 -37 31 -37 31 -59 18z m27 -47 c-3 -17 -26 -32 -26 -16 0 8 20 33 26
33 1 0 1 -8 0 -17z"/>
<path d="M2731 310 c-14 -61 -9 -87 10 -60 8 11 12 12 16 3 6 -16 39 -17 48
-3 4 6 1 18 -6 26 -7 8 -15 32 -18 52 -10 61 -35 52 -50 -18z"/>
</g>
</svg>
