<?xml version="1.0" standalone="no"?>
<!DOCTYPE svg PUBLIC "-//W3C//DTD SVG 20010904//EN"
 "http://www.w3.org/TR/2001/REC-SVG-20010904/DTD/svg10.dtd">
<svg version="1.0" xmlns="http://www.w3.org/2000/svg"
 width="765.000000pt" height="344.000000pt" viewBox="0 0 765.000000 344.000000"
 preserveAspectRatio="xMidYMid meet">
<metadata>
Created by potrace 1.12, written by Peter Selinger 2001-2015
</metadata>
<g transform="translate(0.000000,344.000000) scale(0.100000,-0.100000)"
fill="#000000" stroke="none">
<path d="M4950 3345 c-18 -22 -15 -59 7 -92 22 -32 12 -69 -20 -79 -27 -9 -36
5 -38 61 -5 116 -37 127 -64 23 -10 -40 -21 -80 -26 -88 -10 -21 8 -51 26 -44
8 4 12 10 9 15 -6 10 6 82 13 76 2 -2 5 -14 8 -25 13 -70 66 -84 116 -31 16
17 29 37 29 44 0 7 12 16 26 19 17 5 24 12 22 24 -2 9 -10 16 -16 15 -7 -2
-12 10 -12 31 0 19 -3 41 -6 50 -8 20 -57 21 -74 1z m43 -68 c-7 -12 -23 3
-23 22 0 28 14 35 21 9 3 -13 4 -26 2 -31z"/>
<path d="M5157 3343 c-13 -13 -7 -31 13 -36 16 -4 20 0 20 19 0 23 -18 32 -33
17z"/>
<path d="M340 3257 c0 -1 -4 -16 -9 -34 -6 -21 -5 -39 3 -55 10 -20 10 -31 -5
-64 -9 -23 -24 -44 -33 -47 -18 -7 -17 -7 -20 73 -1 43 -5 55 -19 58 -10 2
-20 -4 -23 -15 -3 -10 -14 -38 -24 -63 -13 -32 -15 -48 -8 -58 8 -10 13 -9 23
4 11 15 13 14 19 -9 9 -38 41 -53 70 -33 21 13 66 92 66 116 0 5 15 16 33 23
39 17 61 42 53 62 -8 21 -22 19 -46 -7 l-20 -22 0 25 c0 29 -17 49 -42 49 -10
0 -18 -1 -18 -3z"/>
<path d="M5126 3206 c-18 -47 -18 -79 -1 -80 6 -1 11 9 13 22 3 20 5 20 19 7
21 -21 36 -8 28 24 -4 14 -8 35 -9 46 -2 39 -32 28 -50 -19z"/>
<path d="M516 3174 c-4 -10 -1 -21 5 -25 18 -11 40 1 37 20 -4 22 -34 26 -42
5z"/>
<path d="M503 3123 c-7 -3 -13 -16 -13 -29 0 -14 -7 -41 -16 -62 -8 -20 -14
-39 -12 -42 5 -9 32 2 44 17 8 12 13 13 18 5 4 -7 14 -12 22 -12 16 0 19 36 4
45 -5 3 -10 21 -10 40 0 33 -13 46 -37 38z"/>
<path d="M5060 2970 c-38 -38 -14 -130 34 -130 23 0 76 47 76 68 0 10 43 11
188 6 115 -3 203 -2 225 4 19 6 39 7 42 4 4 -4 12 -7 18 -7 16 0 21 -142 7
-194 -9 -34 -15 -40 -45 -45 -27 -5 -35 -12 -35 -28 0 -18 4 -20 38 -14 36 7
36 6 -15 -20 -60 -30 -67 -51 -23 -67 31 -12 40 -27 16 -27 -34 0 -29 -45 7
-56 20 -6 20 -7 1 -16 -10 -6 -25 -17 -31 -26 -18 -22 8 -49 59 -63 38 -10 39
-12 33 -42 -4 -18 -13 -37 -21 -43 -8 -7 -17 -28 -21 -47 -4 -29 -2 -37 16
-47 12 -6 20 -14 17 -18 -3 -4 -6 -56 -7 -115 l-2 -107 -81 0 c-91 0 -110 -11
-164 -93 -15 -23 -33 -48 -39 -55 -15 -16 -16 -29 -3 -37 5 -3 17 7 27 22 9
15 38 49 64 76 41 41 52 47 88 47 34 0 40 -3 37 -17 -5 -30 -23 -66 -61 -123
-34 -53 -52 -96 -43 -105 2 -3 35 -7 74 -10 96 -9 94 -7 94 -64 0 -40 -4 -52
-20 -61 -15 -8 -20 -21 -20 -51 0 -32 4 -42 20 -46 22 -6 26 -42 13 -116 l-6
-39 -55 4 c-60 3 -80 -12 -41 -33 15 -8 46 -9 93 -5 55 5 68 4 59 -5 -7 -7
-38 -14 -70 -16 -66 -3 -83 -8 -83 -22 0 -15 34 -31 83 -40 l42 -8 -72 -22
c-40 -12 -75 -27 -79 -33 -4 -6 5 -21 20 -33 20 -16 25 -25 16 -30 -7 -4 -10
-19 -6 -36 4 -22 1 -31 -14 -39 -26 -14 -25 -26 5 -55 15 -16 36 -25 55 -25
l30 0 0 -83 c0 -69 -3 -84 -19 -94 -29 -18 -33 -52 -7 -77 21 -22 21 -27 12
-109 l-9 -87 -104 0 c-94 0 -104 -2 -101 -17 3 -16 20 -18 193 -18 105 0 196
-4 203 -8 19 -12 45 19 37 44 -6 17 -12 19 -33 14 -34 -10 -130 -10 -139 -1
-11 10 -13 137 -3 156 6 10 24 17 52 18 24 1 70 6 103 12 33 5 98 14 145 21
107 14 135 18 185 28 22 4 107 7 189 5 83 -1 170 1 195 5 25 3 67 4 93 1 77
-9 78 -7 78 140 0 80 4 130 10 130 6 0 10 8 10 18 0 10 12 22 30 29 20 8 28
16 24 26 -7 20 -34 30 -48 18 -7 -6 -32 -13 -56 -16 -108 -14 -110 -15 -110
-36 0 -18 5 -20 51 -17 l51 3 -1 -98 c-2 -90 -6 -137 -13 -142 -14 -9 -251
-21 -358 -19 -75 3 -148 0 -165 -6 -17 -6 -56 -12 -86 -14 -30 -2 -79 -8 -109
-14 -30 -6 -84 -15 -120 -21 -36 -5 -81 -13 -101 -16 -34 -5 -37 -4 -43 26 -3
17 -6 69 -6 115 0 81 3 89 32 86 3 -1 11 5 18 13 18 22 2 37 -31 30 -17 -4
-29 -2 -29 4 0 5 17 13 38 16 56 10 62 13 62 34 0 24 -23 29 -76 17 -43 -9
-79 -3 -70 13 3 5 23 12 43 15 66 12 103 29 103 47 0 21 -38 35 -53 20 -6 -6
-34 -11 -61 -10 l-51 1 35 16 c19 8 40 16 46 16 5 1 29 10 52 21 51 24 56 51
11 63 l-32 8 42 18 c40 19 47 29 35 59 -4 11 -13 13 -39 7 -41 -9 -41 -8 -37
100 l3 78 92 8 c91 7 181 9 245 4 32 -3 33 -4 30 -43 -4 -56 18 -60 32 -5 7
24 18 63 26 88 l14 45 -2 -71 c-2 -104 20 -128 43 -47 7 26 21 63 30 83 l18
35 1 -62 c0 -95 25 -90 54 10 17 60 38 61 36 1 -3 -78 -1 -84 20 -84 17 0 20
7 20 40 0 25 5 40 13 41 6 0 21 2 32 4 43 9 113 17 173 20 l63 4 -3 -217 -3
-217 -104 8 c-82 6 -106 5 -112 -5 -18 -28 15 -33 232 -33 233 0 257 5 232 43
-6 10 -15 16 -20 15 -4 0 -42 -4 -83 -8 -41 -3 -83 -9 -92 -11 -15 -4 -17 1
-16 33 0 21 0 61 -1 88 -2 56 6 240 13 296 3 22 0 42 -7 47 -11 9 -154 -4
-280 -27 -45 -8 -48 -7 -44 10 3 11 -3 29 -14 42 l-19 22 -24 -27 c-24 -26
-44 -38 -32 -19 8 12 -27 41 -40 33 -6 -4 -19 -22 -28 -39 -20 -40 -22 -41
-20 -5 2 47 -13 64 -49 56 -38 -8 -47 -19 -47 -61 0 -24 -5 -33 -17 -34 -10
-1 -72 -2 -138 -4 -66 -1 -143 -5 -172 -9 -58 -6 -59 -5 -59 69 1 47 3 50 29
53 21 3 27 9 27 27 0 13 -5 27 -10 30 -6 4 -10 14 -9 23 3 31 -1 43 -11 37 -9
-6 -24 40 -34 112 -7 48 5 56 77 53 74 -4 97 -1 97 15 0 15 11 31 69 96 30 35
31 40 15 46 -13 5 -31 -8 -73 -55 -52 -57 -60 -62 -107 -67 -47 -5 -52 -3 -58
17 -10 39 -5 191 7 228 14 41 33 46 182 56 55 3 106 8 114 10 8 3 52 7 97 11
l82 5 28 -31 c35 -40 69 -40 112 0 58 54 39 118 -37 122 -36 2 -46 -2 -63 -23
-15 -19 -30 -25 -61 -27 -23 -1 -55 -4 -72 -8 -16 -3 -66 -8 -110 -10 -81 -6
-151 -12 -216 -21 -46 -7 -63 12 -54 60 4 19 10 35 14 34 3 -1 21 1 39 5 25 5
33 11 30 24 -3 14 -12 17 -46 15 -33 -3 -42 0 -42 12 0 9 6 16 13 16 7 0 22 6
32 14 31 23 4 45 -48 40 l-42 -5 53 27 c80 41 65 70 -31 58 -36 -5 -48 -4 -43
5 4 6 12 11 18 11 21 0 116 50 121 64 8 19 -12 36 -43 36 l-25 0 2 113 c2 61
5 117 7 124 3 6 -1 19 -8 29 -12 16 -20 17 -82 6 -40 -7 -143 -11 -244 -10
-152 1 -178 4 -199 20 -31 24 -76 23 -101 -2z m70 -34 c0 -21 -18 -39 -33 -33
-16 6 -17 23 -4 44 9 14 37 6 37 -11z m540 -512 c0 -12 -34 -32 -46 -27 -13 5
-12 7 2 18 15 10 44 16 44 9z m620 -118 c0 -34 -47 -71 -68 -54 -9 8 -10 14
-3 16 6 2 11 14 11 26 0 29 8 36 37 36 18 0 23 -6 23 -24z m-700 -1381 c0 -8
-9 -15 -20 -15 -20 0 -26 11 -13 23 12 13 33 7 33 -8z"/>
<path d="M417 2861 c-26 -44 -22 -107 8 -136 35 -36 71 -32 111 10 32 35 33
35 136 40 155 7 154 7 288 -5 69 -7 140 -12 158 -12 l33 1 -2 -114 -1 -113
-44 -7 c-54 -8 -62 -35 -11 -35 l32 0 -31 -19 c-46 -28 -48 -36 -15 -64 l29
-24 -29 -17 c-33 -20 -35 -25 -14 -52 20 -26 19 -29 -10 -42 -33 -15 -33 -49
0 -62 29 -11 33 -19 37 -80 3 -32 -1 -49 -14 -62 -23 -23 -23 -63 1 -85 16
-15 20 -35 23 -116 l3 -97 -40 -1 c-22 -1 -47 -1 -57 0 -21 2 -34 -17 -20 -31
7 -7 -2 -29 -25 -70 -28 -47 -33 -62 -24 -71 10 -9 16 -8 27 8 38 51 64 97 64
110 0 9 10 15 26 15 30 0 28 -12 -18 -104 -27 -54 -29 -61 -14 -72 15 -10 15
-12 1 -18 -12 -4 -13 -10 -6 -24 7 -14 18 -17 45 -14 l36 4 0 -59 c0 -35 -7
-73 -16 -92 -13 -26 -14 -37 -4 -60 8 -21 8 -44 0 -94 l-12 -67 -34 0 c-24 0
-34 -5 -34 -15 0 -8 5 -16 10 -16 6 -1 15 -3 20 -4 6 -1 18 -3 28 -4 10 -1 2
-8 -20 -18 -54 -22 -49 -51 12 -77 l35 -14 -27 -11 c-16 -6 -28 -12 -28 -15 0
-2 -3 -12 -6 -20 -5 -12 2 -19 25 -27 24 -9 28 -13 18 -23 -6 -7 -20 -15 -30
-19 -28 -11 -16 -40 21 -49 l32 -9 0 -69 c0 -59 -3 -71 -20 -80 -24 -13 -26
-52 -4 -75 13 -13 15 -29 11 -78 -4 -34 -6 -62 -7 -63 0 0 -45 -7 -100 -14
-65 -9 -101 -18 -104 -27 -3 -8 1 -16 9 -19 15 -6 32 -4 170 16 85 13 182 7
224 -14 29 -14 61 -10 61 7 0 18 -18 42 -25 35 -4 -3 -21 -2 -38 3 -18 5 -57
12 -87 15 -30 3 -59 9 -63 13 -4 5 -7 39 -5 77 3 67 4 69 28 67 123 -8 218 -9
290 0 47 5 144 10 217 11 73 1 137 6 142 11 5 6 5 20 -1 35 -12 29 -17 190 -6
184 12 -8 49 16 43 27 -4 5 0 9 7 10 7 0 4 4 -7 9 -11 4 -42 6 -70 4 l-50 -3
53 24 c68 31 69 57 3 65 l-45 5 52 22 c38 17 52 28 52 43 0 20 -15 25 -67 21
-11 -1 -24 2 -26 6 -3 5 13 10 36 12 23 1 45 7 49 14 14 23 8 37 -17 37 -21 0
-25 5 -25 38 -1 35 0 94 3 172 l2 35 -120 -2 c-222 -2 -471 -16 -481 -26 -4
-4 -15 -2 -24 3 -15 8 -17 19 -14 62 3 28 6 54 8 56 3 2 13 -1 24 -7 41 -22
90 -5 63 22 -6 6 -11 24 -11 39 0 15 -7 45 -15 65 -8 21 -19 59 -24 86 -7 39
-6 47 7 47 8 0 23 -7 32 -15 15 -13 20 -13 48 1 18 8 32 22 32 29 0 8 16 29
35 46 19 18 35 38 35 46 0 26 -41 12 -77 -27 -32 -34 -44 -40 -79 -40 -63 0
-73 18 -76 133 -2 105 3 119 49 123 122 10 178 15 243 21 91 8 247 8 355 -1
61 -5 84 -11 102 -27 41 -39 123 -3 123 54 0 22 -43 67 -64 67 -8 0 -28 -12
-45 -26 -31 -25 -32 -26 -150 -19 -153 8 -276 7 -371 -5 -41 -5 -104 -11 -140
-15 -36 -3 -72 -8 -81 -11 -19 -5 -29 21 -29 77 0 35 2 37 39 43 41 6 62 31
33 40 -9 3 -39 7 -65 7 -40 2 -46 5 -35 15 7 8 33 16 58 19 25 3 47 10 48 15
2 6 10 10 19 10 8 0 13 7 11 18 -3 14 -14 17 -60 17 -31 0 -59 3 -63 6 -3 4
19 18 50 33 75 35 74 53 -3 57 -59 4 -47 21 27 38 66 16 78 36 33 56 -15 6
-22 18 -22 36 0 14 -3 29 -7 32 -3 4 -8 53 -9 110 -2 56 -3 107 -4 113 0 11
-56 14 -390 17 -201 2 -226 4 -232 19 -4 9 -19 25 -33 34 -22 14 -32 16 -56 7
-16 -6 -27 -7 -23 -2 3 5 1 9 -3 9 -5 0 -16 -13 -26 -29z m97 -27 c12 -31 6
-61 -16 -80 -12 -10 -18 -14 -15 -7 4 7 -1 14 -12 18 -29 9 -32 31 -10 59 23
30 44 33 53 10z m1454 -752 c2 -7 -2 -12 -9 -12 -6 0 -18 -8 -25 -17 -12 -16
-13 -16 -14 9 0 35 37 51 48 20z m-832 -399 c-3 -4 -6 2 -5 13 0 11 3 14 6 6
3 -7 2 -16 -1 -19z m40 -170 c-6 -6 -36 9 -36 18 0 5 9 4 20 -3 10 -7 18 -14
16 -15z m533 -172 c23 -1 23 -2 16 -73 -3 -40 -7 -85 -7 -100 -1 -16 -6 -29
-12 -29 -6 -1 -24 -2 -40 -3 -29 -2 -47 -22 -30 -35 5 -3 14 -15 20 -26 6 -11
23 -26 39 -34 l27 -13 -41 -25 c-23 -13 -41 -29 -41 -34 0 -6 14 -16 31 -23
l30 -13 -23 -15 c-22 -15 -22 -16 -5 -41 10 -15 26 -27 36 -27 24 0 31 -28 27
-109 -3 -39 -9 -67 -17 -72 -14 -9 -33 -10 -159 -15 -36 -1 -96 -7 -135 -12
-59 -8 -223 -6 -283 2 -14 2 -18 16 -20 81 -2 45 2 83 8 89 7 7 10 6 10 -3 0
-10 3 -11 13 -3 7 6 23 8 36 5 20 -5 22 -2 19 18 -2 18 -10 25 -33 27 -56 5
-60 10 -30 38 32 30 23 47 -25 47 -16 0 -30 1 -30 3 0 1 20 11 45 23 25 12 45
25 45 30 0 11 -25 32 -36 30 -5 -1 -26 -1 -47 0 -49 1 -39 17 16 26 99 16 121
75 27 75 -36 0 -42 17 -27 87 11 54 38 97 62 99 6 0 30 3 55 7 25 4 110 10
189 12 79 3 146 7 148 9 2 2 30 2 61 1 31 -2 68 -4 81 -4z"/>
<path d="M5838 2813 c-29 -12 -29 -14 -22 -55 5 -24 8 -66 6 -94 -2 -38 2 -53
13 -57 18 -8 28 8 27 44 0 16 3 29 8 29 14 0 58 -47 65 -70 6 -20 22 -25 40
-12 16 11 12 54 -6 61 -9 3 -30 18 -48 33 l-32 28 25 27 c57 62 11 102 -76 66z
m62 -30 c0 -10 -32 -43 -42 -43 -13 0 -9 38 5 43 18 8 37 8 37 0z"/>
<path d="M6077 2743 c-3 -5 -10 -25 -15 -47 -9 -31 -8 -43 5 -62 8 -13 12 -24
9 -24 -4 0 -2 -9 4 -20 12 -22 18 -24 39 -11 12 8 12 12 2 24 -7 9 -11 38 -10
69 1 30 -1 60 -5 66 -8 14 -23 16 -29 5z"/>
<path d="M1373 2620 c-27 -11 -26 -7 -23 -130 2 -87 8 -109 32 -110 11 0 27
57 18 66 -5 5 -13 35 -18 67 -8 51 -7 59 9 67 48 26 70 -14 24 -44 -32 -21
-33 -46 -1 -46 29 0 66 -42 66 -76 0 -27 13 -37 39 -29 16 5 18 11 11 37 -11
35 -37 78 -59 95 -12 9 -13 15 -5 20 15 10 20 42 10 71 -6 18 -15 22 -44 21
-20 0 -47 -4 -59 -9z"/>
<path d="M1584 2538 c-4 -13 -6 -23 -4 -23 2 0 -2 -10 -9 -23 -11 -21 -10 -24
7 -29 11 -2 24 -15 30 -28 8 -17 17 -22 31 -18 21 5 30 43 11 43 -5 0 -10 12
-10 28 0 46 -11 72 -30 72 -11 0 -22 -10 -26 -22z"/>
<path d="M6520 2405 c-18 -22 -15 -73 6 -96 16 -17 16 -20 0 -44 -25 -38 -39
-26 -53 39 -20 105 -49 102 -86 -8 -14 -41 -23 -77 -19 -80 15 -16 31 -2 42
39 7 25 17 48 23 52 6 3 7 2 4 -4 -4 -6 1 -29 10 -52 26 -66 86 -66 115 -1 7
17 21 33 31 36 9 3 14 10 11 16 -4 6 -8 29 -10 51 -2 22 -9 46 -15 53 -15 18
-43 18 -59 -1z m40 -52 c0 -19 -3 -24 -10 -17 -6 6 -8 18 -4 27 9 24 14 21 14
-10z"/>
<path d="M6708 2347 c-27 -10 -38 -32 -38 -74 0 -13 -4 -23 -10 -23 -18 0 -10
-39 10 -50 24 -13 85 -3 105 17 19 19 19 62 0 69 -11 5 -12 10 -4 26 22 42 -6
58 -63 35z m32 -102 c-14 -16 -40 -20 -40 -6 0 10 17 19 39 20 11 1 11 -2 1
-14z"/>
<path d="M6856 2337 c-3 -6 -9 -27 -15 -45 -8 -26 -7 -42 4 -69 23 -54 40 -37
43 44 2 57 0 72 -13 77 -9 3 -17 0 -19 -7z"/>
<path d="M3865 2295 c-5 -2 -120 -6 -255 -9 -135 -3 -265 -7 -290 -10 -25 -3
-66 -8 -93 -11 -61 -7 -77 -14 -77 -32 0 -12 8 -14 38 -8 103 20 176 25 393
31 161 5 242 3 256 -4 20 -11 63 -6 63 7 0 13 -25 39 -35 36z"/>
<path d="M3825 2190 c-22 -4 -85 -8 -140 -9 -97 -1 -265 -10 -315 -16 -14 -2
-67 -4 -118 -4 -75 -1 -94 -4 -99 -17 -5 -15 14 -37 27 -29 3 1 48 6 100 10
52 4 99 9 103 12 5 3 123 7 264 9 140 2 258 6 264 9 14 9 -9 45 -29 44 -9 -1
-35 -5 -57 -9z"/>
<path d="M2099 2143 c-3 -54 -6 -80 -12 -93 -9 -22 -27 -93 -27 -107 0 -27 30
-11 38 20 l10 32 16 -37 c30 -68 89 -59 121 18 10 25 27 50 37 55 10 5 18 7
18 4 0 -4 7 1 16 10 23 22 11 49 -16 35 -17 -9 -20 -8 -20 12 -1 66 -29 87
-64 49 -25 -28 -27 -67 -4 -91 31 -33 1 -106 -41 -98 -22 4 -43 91 -35 147 4
31 2 46 -8 52 -20 13 -28 11 -29 -8z m151 -35 c0 -7 -5 -20 -10 -28 -8 -12
-10 -9 -10 13 0 15 5 27 10 27 6 0 10 -6 10 -12z"/>
<path d="M3938 2085 c-5 -5 -86 -10 -353 -20 -151 -6 -377 -29 -437 -46 -46
-12 -55 -45 -10 -35 126 28 293 43 573 53 122 4 187 2 210 -6 39 -13 49 -6 42
32 -5 26 -13 33 -25 22z"/>
<path d="M2422 2065 c-33 -14 -56 -54 -46 -79 3 -8 1 -24 -5 -35 -8 -13 -8
-22 -1 -26 6 -4 8 -11 5 -16 -4 -5 13 -9 38 -9 34 0 50 6 70 26 38 38 41 59
18 110 -23 48 -30 50 -79 29z m17 -48 c-13 -13 -26 -22 -28 -20 -7 5 31 43 42
43 6 0 -1 -10 -14 -23z m41 -34 c0 -14 -34 -43 -50 -43 -10 0 -20 9 -23 20 -6
23 3 26 22 8 11 -11 15 -10 24 5 12 17 27 23 27 10z"/>
<path d="M2574 2052 c-12 -7 -11 -83 0 -120 7 -21 30 -30 39 -14 8 13 -8 135
-18 139 -5 1 -15 -1 -21 -5z"/>
<path d="M845 2018 c-93 -81 -110 -108 -69 -108 18 0 19 3 -15 -71 -33 -74
-53 -170 -53 -251 0 -73 43 -163 116 -243 43 -47 56 -56 74 -51 33 11 28 45
-7 57 -34 12 -97 90 -131 162 -27 59 -24 126 14 251 27 86 54 126 86 126 15 0
20 7 20 26 0 14 5 35 12 47 13 23 12 66 -1 80 -5 4 -25 -7 -46 -25z"/>
<path d="M6294 1939 c-17 -5 -36 -15 -41 -21 -6 -8 -7 -51 -4 -103 5 -71 9
-90 21 -90 12 0 14 15 12 84 -3 93 1 101 56 101 43 0 40 -15 -10 -62 l-42 -38
25 -28 c14 -15 37 -44 53 -64 15 -22 36 -38 47 -38 25 0 24 22 -1 45 -12 10
-30 34 -41 52 l-21 33 31 31 c53 52 36 111 -31 108 -13 0 -37 -5 -54 -10z"/>
<path d="M6594 1850 c-12 -4 -38 -11 -59 -14 -49 -8 -53 -11 -70 -53 -21 -50
-19 -55 20 -47 23 4 35 2 35 -5 0 -6 -9 -11 -20 -11 -23 0 -26 -22 -5 -40 34
-28 74 24 56 73 -6 15 -18 27 -26 27 -31 0 -5 17 36 24 52 8 79 22 79 41 0 17
-14 18 -46 5z"/>
<path d="M249 1820 c-9 -5 -22 -23 -29 -39 -11 -27 -9 -34 11 -62 21 -30 21
-34 7 -72 -22 -61 -38 -59 -39 5 -2 111 -10 137 -42 125 -19 -7 -64 -224 -49
-239 18 -18 32 1 32 45 0 23 4 49 9 56 10 15 11 12 27 -66 3 -18 11 -23 34
-23 26 0 32 6 53 53 13 28 27 64 31 80 4 18 13 27 26 27 13 0 20 7 20 20 0 11
-4 20 -9 20 -5 0 -18 17 -28 37 -20 41 -30 47 -54 33z m17 -77 c-11 -11 -19 6
-11 24 8 17 8 17 12 0 3 -10 2 -21 -1 -24z"/>
<path d="M338 1652 c-35 -21 -38 -55 -6 -50 21 3 23 -1 23 -46 0 -50 -18 -73
-36 -45 -6 10 -11 11 -20 2 -14 -14 5 -53 25 -53 24 0 84 29 112 55 35 32 45
106 19 135 -22 25 -78 25 -117 2z m93 -54 c5 -20 2 -31 -16 -48 l-22 -21 -2
51 c0 43 2 51 16 48 9 -2 20 -15 24 -30z"/>
<path d="M5120 1202 c-57 -26 -60 -32 -60 -125 0 -71 3 -89 16 -94 20 -7 35
14 32 47 -5 41 15 36 43 -11 19 -33 32 -45 53 -47 26 -3 27 -2 15 19 -6 13
-20 32 -30 43 -11 11 -19 25 -19 32 0 7 -5 14 -12 16 -8 3 -5 13 10 33 30 38
29 73 -4 85 -14 6 -26 10 -27 9 -1 0 -9 -3 -17 -7z m20 -49 c-1 -18 -28 -44
-35 -33 -4 6 -1 17 5 25 13 16 30 20 30 8z"/>
<path d="M7109 1174 c-7 -21 -6 -31 7 -45 19 -21 14 -48 -16 -97 -31 -50 -45
-36 -48 46 -2 61 -6 72 -23 77 -30 10 -67 -30 -84 -90 -23 -80 -25 -103 -9
-116 20 -17 28 -5 30 45 1 24 10 61 21 82 l18 39 5 -56 c12 -131 107 -131 150
0 8 24 21 46 29 49 9 3 33 16 54 29 33 21 36 26 26 45 -6 11 -14 17 -18 12 -3
-5 -21 -17 -39 -27 -31 -18 -32 -18 -39 0 -15 40 -49 44 -64 7z"/>
<path d="M569 1165 c-38 -21 -52 -62 -41 -121 4 -27 5 -63 0 -79 -4 -16 -3
-34 2 -39 10 -10 41 -1 39 11 -1 4 -1 28 0 52 1 43 1 44 21 26 11 -10 29 -37
40 -60 15 -32 26 -42 43 -41 30 1 33 30 7 58 -49 51 -52 61 -30 106 11 22 20
49 20 60 0 41 -50 55 -101 27z m61 -42 c0 -20 -38 -63 -57 -63 -14 0 -18 38
-5 56 17 25 62 31 62 7z"/>
<path d="M1963 1138 c-10 -13 -25 -23 -33 -23 -11 0 -16 -16 -20 -68 -6 -82
-5 -87 25 -87 18 0 22 4 18 20 -7 28 4 25 53 -15 52 -43 94 -61 94 -41 0 8 3
21 6 30 4 12 0 16 -16 16 -12 0 -36 10 -53 22 -18 12 -33 22 -35 23 -7 5 11
34 19 30 13 -9 41 41 37 67 -7 49 -64 64 -95 26z m51 -41 c-12 -21 -37 -47
-45 -47 -10 0 11 52 25 62 14 10 28 -1 20 -15z"/>
<path d="M2199 1078 c-51 -27 -56 -33 -57 -65 -1 -34 0 -35 28 -29 26 5 30 2
30 -15 0 -13 -8 -23 -20 -26 -25 -7 -23 -36 3 -41 26 -5 57 27 57 59 0 41 -10
59 -34 60 -15 0 -8 6 24 22 53 26 63 37 48 54 -13 16 -11 17 -79 -19z"/>
<path d="M5257 1064 c-28 -15 -35 -38 -16 -50 6 -3 15 0 20 7 10 16 11 14 14
-21 2 -15 -5 -30 -16 -38 -11 -7 -19 -21 -19 -31 0 -23 25 -45 41 -35 7 4 31
8 54 9 47 2 100 34 110 66 11 33 -2 34 -46 5 -22 -15 -44 -25 -47 -21 -4 3 -5
21 -3 40 4 56 -45 93 -92 69z"/>
<path d="M725 1050 c-10 -16 4 -30 31 -30 31 0 30 -15 -2 -57 -31 -41 -27 -56
20 -70 48 -15 71 -10 71 13 0 13 -8 20 -27 22 -32 4 -34 10 -13 38 21 28 19
71 -4 84 -25 13 -68 13 -76 0z"/>
<path d="M7241 1010 c-8 -28 -17 -40 -31 -40 -27 0 -36 -21 -15 -36 10 -8 20
-24 22 -36 7 -44 32 -69 66 -66 24 2 34 9 41 31 14 40 -7 58 -32 27 -21 -26
-42 -20 -42 11 0 13 7 19 24 19 30 0 76 17 76 27 -1 24 -17 32 -48 24 -17 -5
-34 -6 -37 -1 -3 5 0 10 5 12 18 6 17 62 -1 66 -11 2 -19 -10 -28 -38z"/>
<path d="M1118 365 c-2 -3 -39 -8 -131 -19 -26 -3 -43 -24 -30 -37 8 -8 38 -7
106 2 80 10 99 10 112 -1 14 -12 18 -12 25 0 9 14 -4 49 -18 51 -32 5 -61 7
-64 4z"/>
<path d="M5467 327 c-9 -5 -6 -12 7 -22 14 -10 44 -15 98 -15 71 0 78 2 78 20
0 11 -6 21 -12 22 -43 5 -162 2 -171 -5z"/>
<path d="M1129 286 c-3 -3 -29 -7 -59 -8 -47 -3 -55 -7 -55 -23 0 -18 7 -20
60 -21 89 0 107 5 103 30 -3 19 -36 34 -49 22z"/>
<path d="M5542 242 c-53 -3 -63 -6 -60 -20 3 -14 19 -18 78 -23 85 -7 94 -5
80 20 -12 24 -23 27 -98 23z"/>
</g>
</svg>
