<?xml version="1.0" standalone="no"?>
<!DOCTYPE svg PUBLIC "-//W3C//DTD SVG 20010904//EN"
 "http://www.w3.org/TR/2001/REC-SVG-20010904/DTD/svg10.dtd">
<svg version="1.0" xmlns="http://www.w3.org/2000/svg"
 width="837.000000pt" height="356.000000pt" viewBox="0 0 837.000000 356.000000"
 preserveAspectRatio="xMidYMid meet">
<metadata>
Created by potrace 1.12, written by Peter Selinger 2001-2015
</metadata>
<g transform="translate(0.000000,356.000000) scale(0.100000,-0.100000)"
fill="#000000" stroke="none">
<path d="M5155 3450 c-4 -7 -3 -16 3 -22 14 -14 45 -2 40 15 -6 16 -34 21 -43
7z"/>
<path d="M4987 3439 c-22 -13 -23 -81 -2 -99 19 -16 19 -25 -2 -72 -22 -47
-47 -47 -51 2 -4 51 -30 100 -52 100 -14 0 -24 -16 -40 -65 -22 -66 -21 -100
3 -92 6 2 12 8 12 13 3 56 35 117 35 67 0 -10 5 -35 11 -55 20 -75 97 -57 122
30 10 32 20 48 33 50 10 2 24 10 31 19 16 20 5 45 -17 38 -19 -6 -45 18 -36
33 10 17 -27 42 -47 31z"/>
<path d="M327 3342 c-23 -25 -21 -78 3 -102 25 -25 25 -42 2 -63 -29 -26 -40
-20 -47 26 -8 49 -30 87 -50 87 -15 0 -40 -92 -34 -125 6 -29 29 -31 29 -1 0
38 17 41 25 4 9 -43 22 -58 50 -58 24 0 85 60 85 84 0 8 12 22 27 31 24 16 25
19 10 30 -9 7 -17 21 -17 32 0 24 -36 73 -54 73 -7 0 -20 -8 -29 -18z m41 -75
l-3 -22 -13 22 c-6 12 -9 29 -5 38 5 16 7 16 15 1 5 -9 8 -27 6 -39z"/>
<path d="M500 3339 c0 -25 33 -22 38 4 2 12 -3 17 -17 17 -15 0 -21 -6 -21
-21z"/>
<path d="M5117 3297 c-21 -66 -21 -67 -2 -67 9 0 19 10 24 22 l8 23 7 -23 c4
-12 14 -22 22 -22 18 0 31 29 17 39 -6 3 -16 23 -22 44 -7 20 -18 37 -25 37
-7 0 -20 -24 -29 -53z"/>
<path d="M487 3273 c-3 -4 -6 -35 -8 -67 -3 -43 0 -60 9 -64 7 -2 16 5 19 16
5 19 7 20 28 6 20 -13 23 -13 29 2 4 10 3 20 -2 23 -5 3 -15 24 -24 46 -15 37
-40 56 -51 38z"/>
<path d="M5168 3071 c-37 -18 -73 -80 -64 -109 10 -32 46 -62 73 -62 18 0 39
14 66 42 l40 42 126 -2 c69 -2 149 -7 178 -13 28 -6 58 -9 65 -8 7 2 30 -3 50
-10 34 -11 37 -16 40 -54 2 -23 -1 -86 -6 -140 l-10 -98 -39 3 c-43 3 -66 -19
-30 -28 14 -4 19 -12 16 -28 -6 -27 22 -53 62 -58 28 -3 26 -5 -25 -23 -30
-11 -56 -27 -58 -36 -4 -24 41 -83 73 -94 17 -5 33 -14 36 -18 10 -14 0 -71
-21 -111 -18 -36 -18 -41 -3 -75 8 -20 15 -40 15 -46 0 -5 -1 -42 -2 -81 l-3
-71 -76 -13 c-72 -12 -78 -15 -113 -57 -42 -49 -48 -73 -18 -73 11 0 20 6 20
13 0 29 59 65 134 82 35 7 33 0 -26 -98 -27 -45 -39 -74 -35 -89 4 -14 0 -26
-11 -34 -14 -10 -14 -14 -3 -28 11 -13 27 -16 67 -13 29 2 58 -1 64 -7 5 -5
10 -46 10 -91 0 -62 -5 -89 -20 -118 -19 -34 -19 -41 -7 -66 8 -16 13 -41 12
-57 -1 -16 -3 -55 -3 -86 l-2 -58 -45 0 c-33 0 -45 -4 -45 -15 0 -8 7 -15 15
-15 8 0 15 -4 15 -10 0 -5 -4 -10 -9 -10 -5 0 -7 -9 -4 -20 3 -11 13 -20 22
-20 11 0 7 -7 -14 -24 l-30 -24 23 -25 23 -24 -26 -17 c-24 -16 -24 -18 -10
-38 13 -20 13 -24 0 -39 -34 -36 15 -89 82 -89 l26 0 -6 -107 c-4 -60 -9 -160
-13 -224 l-7 -116 -46 -12 c-26 -6 -77 -12 -114 -13 -57 -1 -67 -4 -67 -18 0
-35 38 -35 210 -3 78 15 269 22 330 12 20 -3 26 1 28 18 5 32 -26 37 -176 30
l-125 -5 6 211 c4 117 7 218 7 225 0 6 8 12 18 12 29 0 54 23 47 43 -6 13 -11
15 -28 6 -16 -9 -23 -8 -33 6 -14 19 -34 12 -34 -11 0 -16 -37 -19 -59 -5 -28
18 9 36 117 57 35 6 53 31 32 44 -6 4 -28 4 -49 -1 -20 -5 -52 -8 -71 -8 -31
1 -27 4 33 23 73 24 93 38 82 56 -5 8 -28 9 -74 5 -54 -5 -62 -4 -47 6 11 7
40 17 65 24 35 8 46 16 46 31 0 16 -6 19 -44 17 -52 -2 -47 5 17 26 63 21 71
51 13 51 -46 0 -45 -1 -41 98 1 38 7 59 21 73 24 24 69 26 794 34 531 6 553 7
665 24 101 15 242 20 257 9 7 -6 14 -4 19 4 7 11 14 179 14 343 0 50 2 55 23
55 29 1 57 23 57 45 0 13 -5 16 -22 11 -50 -14 -108 -18 -108 -9 0 12 34 27
98 43 31 8 42 16 42 30 0 17 -9 20 -82 22 -56 2 -77 6 -63 11 11 5 29 13 40
17 11 5 36 14 57 20 38 11 55 34 36 46 -6 4 -34 7 -62 6 l-51 -1 35 13 c107
37 119 68 30 76 -60 5 -47 20 17 20 27 0 34 4 31 18 -2 9 -13 18 -26 20 -12 2
-22 6 -22 10 -1 4 -2 72 -4 152 -2 80 -7 155 -11 166 -6 18 -2 22 24 26 18 3
31 0 32 -6 0 -7 3 -6 5 1 3 7 11 10 18 7 16 -6 27 18 17 35 -10 15 -25 15
-144 0 -79 -10 -97 -16 -95 -28 3 -12 16 -16 48 -17 43 -1 45 -2 57 -40 6 -22
11 -98 11 -173 l0 -134 -64 7 c-54 6 -64 4 -64 -9 0 -9 12 -18 30 -22 28 -5
29 -7 13 -19 -17 -13 -17 -15 6 -33 14 -10 31 -17 38 -14 7 3 13 0 13 -6 0 -6
-11 -11 -24 -11 -13 0 -29 -7 -36 -15 -10 -13 -10 -19 5 -35 9 -10 27 -20 39
-22 17 -3 14 -7 -21 -26 -24 -12 -43 -26 -43 -31 0 -11 31 -36 55 -45 18 -7
18 -8 -5 -19 -35 -18 -34 -58 3 -75 l27 -13 0 -179 0 -180 -26 10 c-14 6 -31
7 -37 3 -7 -4 -19 -8 -27 -9 -40 -2 -178 -16 -205 -20 -45 -8 -560 -22 -986
-28 -206 -3 -382 -7 -390 -10 -7 -3 -23 2 -35 12 -18 16 -20 28 -20 125 l1
109 42 -7 c51 -7 59 4 33 47 -11 18 -20 43 -20 54 0 12 -7 41 -16 65 -8 24
-17 58 -18 75 -3 27 0 32 20 32 13 0 24 -4 24 -9 0 -4 12 -6 28 -5 20 2 32 12
46 42 11 21 30 47 43 57 22 18 32 57 14 57 -10 0 -71 -61 -71 -71 0 -20 -33
-39 -58 -33 -15 3 -37 7 -49 10 -22 4 -23 9 -23 85 0 125 -1 125 313 144 106
6 107 6 116 -17 22 -58 69 -59 118 -3 43 50 38 96 -14 116 -26 10 -52 1 -88
-31 -28 -24 -90 -32 -324 -42 -74 -3 -86 -1 -86 13 0 9 -5 23 -11 30 -15 19
-17 76 -3 85 7 4 21 7 33 8 24 1 35 34 14 47 -7 5 -24 7 -38 4 l-25 -6 24 19
c27 22 21 42 -14 42 -39 0 -37 17 3 33 50 20 69 42 52 62 -9 11 -26 13 -71 8
-76 -8 -78 10 -3 26 56 13 79 35 53 52 -8 5 -25 8 -38 5 l-23 -4 7 146 c9 194
7 192 134 193 53 0 188 2 301 5 273 6 402 7 868 4 l393 -2 10 -26 c13 -33 15
-250 3 -261 -14 -15 -154 -40 -204 -37 -56 3 -70 -1 -63 -21 5 -13 20 -14 96
-9 50 4 93 9 97 11 3 2 29 7 56 10 27 4 83 14 124 22 136 28 148 30 161 22 17
-10 39 0 39 20 0 9 -9 22 -20 29 -11 7 -20 9 -20 4 0 -4 -10 -8 -22 -9 -22 -2
-65 -12 -151 -34 -22 -6 -40 -9 -42 -7 -2 2 -6 74 -9 161 -3 88 -8 163 -11
167 -3 5 -54 7 -113 4 -59 -2 -240 -4 -402 -3 -349 3 -484 2 -885 -3 -262 -4
-302 -2 -315 11 -21 22 -52 26 -65 8 -6 -8 -22 -17 -35 -19 -17 -2 -26 -10
-28 -27 -4 -23 -6 -23 -65 -16 -34 4 -120 8 -191 10 -123 3 -129 4 -150 28
-28 33 -58 39 -98 18z m62 -31 c12 -7 12 -12 -4 -29 -10 -11 -15 -24 -12 -30
8 -13 -39 -45 -54 -36 -5 3 -10 17 -10 30 0 18 7 26 25 31 16 4 25 13 25 25 0
21 8 23 30 9z m530 -604 c0 -9 -7 -12 -21 -9 -16 4 -17 8 -7 14 19 13 28 11
28 -5z m558 -169 c4 -21 -24 -57 -45 -57 -16 0 -17 34 -2 61 12 24 42 21 47
-4z m-513 -547 c-3 -5 -8 -10 -11 -10 -2 0 -4 5 -4 10 0 6 5 10 11 10 5 0 7
-4 4 -10z"/>
<path d="M550 3014 c-38 -26 -50 -45 -50 -81 0 -49 40 -87 83 -79 37 7 61 28
76 64 l11 27 128 0 c70 0 153 3 185 7 64 8 87 3 87 -17 0 -8 9 -17 21 -20 20
-7 21 -12 17 -111 -2 -57 -8 -107 -12 -111 -4 -4 -16 -2 -27 5 -20 13 -39 9
-39 -9 0 -6 13 -16 29 -22 l30 -13 -30 -19 c-36 -25 -37 -52 -1 -67 38 -17 38
-17 18 -31 -28 -20 -10 -47 33 -47 l36 -1 -48 -25 c-69 -36 -74 -73 -9 -74 12
0 22 -3 23 -7 0 -5 2 -17 4 -28 9 -49 8 -73 -4 -103 -15 -37 -7 -82 14 -82 13
0 15 -22 15 -129 l0 -130 -76 0 c-80 0 -84 -1 -88 -23 -1 -7 -9 -28 -19 -47
-21 -42 -21 -57 -1 -65 21 -8 37 3 30 21 -8 19 24 73 44 75 49 5 71 4 75 -2 2
-3 -18 -51 -45 -106 -66 -132 -66 -135 10 -127 39 4 64 2 73 -6 17 -13 24
-176 8 -185 -37 -23 -41 -106 -5 -106 12 0 15 -9 14 -42 -4 -60 -2 -68 15 -68
18 0 29 41 22 85 -10 60 6 69 134 72 124 4 624 10 1057 14 l272 2 6 24 c4 12
11 23 18 23 8 0 8 2 0 8 -8 5 -11 104 -10 326 l1 320 33 8 c43 11 45 43 2 33
-23 -5 -30 -3 -30 9 0 12 10 16 34 16 19 0 42 7 51 16 14 15 14 17 -2 29 -10
7 -21 11 -26 8 -21 -13 -57 -13 -57 1 0 20 23 36 56 38 37 2 54 15 47 35 -5
12 -15 13 -49 8 -39 -6 -44 -4 -44 13 0 16 11 23 50 33 28 7 50 18 50 24 0 17
-40 32 -78 28 -30 -3 -33 0 -30 20 2 12 9 21 17 19 7 -1 18 1 25 5 6 5 30 8
54 8 36 0 42 3 42 21 0 26 -17 34 -76 34 l-44 0 -2 43 c-1 23 -3 120 -3 215
-1 135 2 172 12 172 20 0 15 33 -7 53 -16 14 -24 15 -47 5 -35 -15 -388 -19
-498 -6 -44 5 -287 10 -540 11 -379 2 -464 5 -482 16 -18 13 -24 12 -48 -3
-29 -19 -63 -23 -275 -31 -121 -4 -136 -3 -155 14 -30 28 -75 35 -105 15z m68
-33 c21 -13 10 -52 -21 -75 -22 -16 -31 -18 -45 -9 -21 13 -17 41 11 71 22 24
34 27 55 13z m1367 -24 c61 -2 209 -7 330 -12 138 -4 240 -4 273 3 42 7 55 7
58 -3 3 -7 6 -106 7 -219 l2 -206 -48 6 c-44 6 -49 4 -45 -12 2 -13 18 -23 48
-31 25 -6 38 -12 30 -12 -8 -1 -26 -10 -40 -21 l-25 -20 32 -29 32 -30 -25
-16 c-28 -18 -31 -41 -8 -66 14 -16 14 -18 -5 -29 -23 -12 -27 -40 -9 -58 9
-9 8 -15 -7 -26 -18 -13 -18 -15 -2 -40 10 -14 25 -26 35 -26 16 0 17 -23 14
-326 -3 -259 -1 -328 10 -341 12 -15 11 -15 -9 -5 -27 15 -11 14 -323 7 -113
-2 -360 -7 -550 -9 -190 -2 -385 -6 -435 -7 -125 -4 -133 3 -134 123 l-1 88
34 0 c18 0 39 -7 46 -15 7 -8 19 -15 28 -15 8 0 12 3 9 7 -4 3 -2 12 3 19 8 9
4 18 -15 33 -15 11 -28 32 -30 47 -1 14 -7 29 -13 33 -11 7 -62 99 -62 113 0
5 4 7 9 4 4 -3 39 -9 76 -12 l68 -7 -6 25 c-5 19 1 34 29 67 42 49 42 83 -1
55 -14 -9 -25 -20 -25 -24 0 -5 -12 -22 -26 -39 -23 -28 -31 -31 -85 -31 l-59
0 11 27 c5 14 7 33 4 42 -3 8 -9 64 -12 124 l-5 110 48 -8 c27 -4 77 -7 111
-6 33 1 74 -4 90 -10 18 -7 101 -11 232 -10 193 1 205 0 223 -19 24 -25 42
-25 84 0 62 39 55 120 -11 120 -45 0 -85 -16 -85 -34 0 -11 -19 -16 -72 -20
-159 -12 -287 -14 -324 -5 -22 6 -92 14 -157 18 -96 7 -120 11 -131 26 -15 21
-22 150 -7 141 16 -10 69 5 76 22 11 29 -25 37 -79 16 -9 -3 -16 -1 -16 5 0 6
6 11 13 11 8 0 24 12 38 26 l24 26 -24 19 c-13 10 -19 19 -13 19 14 0 23 27
15 45 -4 12 -17 15 -52 13 -61 -4 -67 13 -11 32 25 8 48 20 52 25 15 20 8 35
-16 35 -13 0 -26 6 -28 13 -2 6 -3 59 -2 117 2 58 3 112 4 121 0 14 18 16 132
17 72 1 132 3 134 4 3 4 419 -1 569 -5z m-27 -735 c2 -7 -3 -12 -12 -12 -9 0
-16 -7 -16 -15 0 -8 -7 -15 -15 -15 -21 0 -19 37 3 49 20 12 34 10 40 -7z
m682 -3 c0 -5 -4 -7 -10 -4 -5 3 -10 8 -10 11 0 2 5 4 10 4 6 0 10 -5 10 -11z"/>
<path d="M1789 2003 c-11 -30 -4 -73 11 -73 15 0 12 -26 -5 -40 -20 -16 -23
-12 -28 30 -7 56 -26 89 -50 85 -21 -5 -32 -12 -32 -23 -1 -4 -7 -30 -14 -59
-13 -54 -10 -73 14 -73 8 0 16 17 21 43 l7 42 14 -47 c11 -36 20 -49 38 -54
32 -8 59 9 79 51 9 19 23 35 30 35 18 0 46 33 46 53 0 9 -7 17 -15 17 -8 0
-15 -4 -15 -10 0 -5 -4 -10 -10 -10 -5 0 -9 3 -8 8 1 4 -1 17 -6 30 -11 34
-63 31 -77 -5z m45 -28 c-4 -8 -8 -15 -10 -15 -2 0 -4 7 -4 15 0 8 4 15 10 15
5 0 7 -7 4 -15z"/>
<path d="M2111 1939 c-12 -11 -21 -24 -21 -30 0 -15 33 -24 38 -11 5 17 22 15
22 -2 0 -8 -13 -23 -29 -32 -35 -20 -46 -53 -26 -73 12 -12 23 -12 77 0 35 7
67 14 72 14 14 0 17 18 6 35 -8 12 -16 12 -62 -3 l-53 -17 33 26 c34 27 41 58
20 87 -19 26 -53 28 -77 6z"/>
<path d="M1957 1936 c-19 -15 -48 -101 -41 -121 7 -18 66 -28 97 -16 38 15 50
43 30 71 -10 13 -17 36 -17 50 -1 19 -7 26 -26 27 -14 2 -33 -3 -43 -11z m46
-97 c-6 -6 -19 -9 -29 -6 -17 3 -16 5 6 14 28 12 39 8 23 -8z"/>
<path d="M8012 2832 c-21 -14 -27 -78 -8 -106 15 -24 15 -26 -9 -53 l-26 -28
2 45 c0 25 0 53 0 62 -1 17 -38 58 -53 58 -12 0 -25 -31 -32 -75 -4 -22 -11
-55 -17 -73 -8 -25 -8 -37 0 -45 16 -16 31 3 34 41 1 18 5 32 10 32 4 0 6 3 6
8 -1 4 -1 18 1 32 1 23 2 23 9 5 4 -11 6 -36 4 -56 -3 -21 0 -47 7 -58 21 -40
58 -21 103 51 9 14 29 29 45 33 37 8 74 45 63 64 -9 14 -51 7 -51 -10 0 -5 -7
-9 -16 -9 -10 0 -13 6 -9 19 13 43 -28 85 -63 63z m24 -68 c-4 -9 -9 -15 -11
-12 -3 3 -3 13 1 22 4 9 9 15 11 12 3 -3 3 -13 -1 -22z"/>
<path d="M5951 2751 c-11 -7 -11 -15 -2 -44 8 -24 9 -47 2 -78 -15 -61 -13
-76 6 -83 19 -8 33 9 33 42 0 30 16 28 34 -6 8 -15 23 -36 35 -46 19 -17 21
-17 27 -2 8 20 -14 78 -34 89 -11 7 -10 13 7 28 12 11 21 32 21 48 0 24 -6 31
-40 45 -45 18 -69 20 -89 7z m75 -41 c19 0 18 -19 -3 -42 -18 -21 -37 -24 -30
-5 2 6 0 23 -5 36 -7 19 -6 22 8 17 8 -3 22 -6 30 -6z"/>
<path d="M6166 2661 c-36 -56 -33 -79 7 -72 4 1 10 -7 14 -16 9 -25 25 -34 40
-21 9 7 10 14 3 23 -5 6 -11 33 -11 58 -3 68 -22 78 -53 28z"/>
<path d="M578 2661 c-25 -29 -32 -61 -29 -126 3 -66 14 -95 36 -95 16 0 31 62
19 81 -13 22 53 -30 80 -62 31 -37 66 -33 66 7 0 14 -4 23 -8 20 -5 -3 -21 6
-38 19 l-29 24 22 16 c22 15 22 17 7 48 -39 78 -93 107 -126 68z m63 -43 c26
-33 23 -45 -12 -50 -35 -5 -45 8 -35 47 8 31 22 32 47 3z"/>
<path d="M8090 2648 c0 -12 11 -19 35 -24 35 -6 35 -7 34 -53 -2 -56 8 -91 26
-91 19 0 23 17 17 81 l-5 56 32 6 c24 5 32 11 29 24 -3 15 -15 18 -86 18 -71
0 -82 -2 -82 -17z"/>
<path d="M809 2535 c-16 -35 -18 -50 -10 -58 9 -9 14 -8 21 2 6 11 10 4 15
-23 8 -39 31 -58 45 -36 5 7 4 25 -1 39 -6 13 -12 45 -13 70 -6 65 -30 67 -57
6z"/>
<path d="M2895 2429 c-14 -11 -25 -16 -25 -10 0 6 -8 11 -18 11 -16 0 -18 -8
-16 -62 2 -35 3 -84 4 -110 0 -41 3 -48 20 -48 17 0 20 7 20 42 l0 41 21 -19
c12 -10 27 -31 35 -46 19 -36 53 -55 65 -37 12 19 12 21 -13 49 -51 56 -51 56
-23 86 60 65 -1 156 -70 103z m55 -48 c0 -10 -11 -26 -25 -35 -30 -20 -31 -20
-39 0 -3 8 -2 12 4 9 6 -3 10 1 10 9 0 19 29 48 41 41 5 -4 9 -14 9 -24z"/>
<path d="M3156 2352 c-17 -8 -45 -15 -65 -16 -31 -1 -36 -5 -50 -44 -13 -37
-13 -44 -2 -52 8 -4 25 -4 38 1 18 7 25 5 30 -8 6 -17 -23 -46 -38 -38 -4 3
-10 1 -13 -4 -6 -10 19 -41 34 -41 20 0 51 38 56 70 5 31 2 37 -23 52 -20 12
-24 18 -13 22 94 30 109 39 99 57 -11 22 -14 22 -53 1z"/>
<path d="M6456 2308 c-42 -135 -46 -152 -34 -160 22 -13 25 -9 32 32 8 48 26
53 26 7 0 -93 81 -102 124 -14 7 13 23 23 39 25 31 4 37 31 8 39 -11 3 -21 17
-25 34 -7 36 -47 59 -71 39 -21 -18 -19 -60 5 -85 l20 -22 -21 -26 c-11 -15
-24 -27 -29 -27 -10 0 -18 35 -24 98 -5 56 -39 96 -50 60z m130 -55 c-3 -4 -6
2 -5 13 0 11 3 14 6 6 3 -7 2 -16 -1 -19z"/>
<path d="M6738 2245 c-25 -14 -28 -21 -28 -66 0 -31 -6 -56 -15 -65 -8 -8 -12
-21 -8 -29 10 -27 151 -2 154 27 2 24 -3 53 -11 63 -5 6 -10 26 -12 45 -2 29
-7 35 -28 37 -14 2 -37 -4 -52 -12z m37 -35 c-3 -5 -8 -10 -11 -10 -2 0 -4 5
-4 10 0 6 5 10 11 10 5 0 7 -4 4 -10z m21 -62 c4 -6 -1 -17 -11 -25 -20 -14
-35 -3 -35 25 0 15 36 16 46 0z"/>
<path d="M6902 2238 c-26 -26 -4 -60 23 -38 30 25 16 -11 -15 -38 -63 -55 -23
-90 69 -62 62 20 78 44 34 53 -15 3 -32 1 -37 -4 -19 -18 -29 -9 -11 11 21 23
23 69 4 81 -20 12 -53 11 -67 -3z"/>
<path d="M7757 2166 c-20 -11 -22 -19 -23 -109 -2 -78 1 -100 12 -104 21 -8
25 0 26 45 0 35 3 39 17 30 9 -5 30 -30 46 -54 33 -49 52 -55 64 -21 11 29 3
49 -18 42 -25 -7 -54 50 -38 75 6 11 14 20 17 20 11 0 9 45 -3 61 -15 21 -71
29 -100 15z m66 -35 c17 -6 16 -9 -9 -34 -33 -34 -40 -34 -48 0 -10 37 14 51
57 34z"/>
<path d="M8077 2113 c-4 -4 -20 -8 -35 -10 -60 -7 -73 -14 -88 -48 -20 -49
-18 -55 21 -55 23 0 35 -5 35 -13 0 -22 -11 -27 -31 -14 -28 17 -44 -10 -22
-36 21 -23 62 -19 77 8 6 11 16 23 21 27 16 12 -17 63 -43 66 -37 6 -24 19 20
20 49 2 75 22 61 46 -5 9 -12 13 -16 9z"/>
<path d="M3848 1955 c-2 -2 -43 -6 -93 -9 -49 -3 -103 -8 -120 -11 -16 -2 -48
-7 -70 -10 -43 -6 -61 -18 -51 -34 4 -6 16 -7 34 -1 64 21 522 40 522 21 0 -6
-12 -11 -27 -12 -16 -1 -39 -2 -53 -3 -14 -2 -74 -6 -135 -10 -60 -4 -152 -14
-203 -21 -52 -8 -99 -12 -106 -9 -8 3 -16 -4 -19 -15 -6 -25 16 -31 84 -20 30
5 77 11 104 14 28 3 68 8 90 11 22 3 104 7 181 9 146 2 164 6 164 31 0 15 -9
17 -47 14 -13 -1 -23 2 -23 7 0 5 16 9 36 10 41 1 49 6 41 27 -5 13 -30 16
-156 15 -82 -1 -151 -2 -153 -4z"/>
<path d="M4080 1810 c-41 -5 -106 -11 -145 -14 -38 -3 -124 -12 -190 -21 -66
-8 -153 -18 -192 -21 -59 -6 -73 -10 -73 -24 0 -25 7 -28 53 -20 23 5 65 10
92 13 28 3 109 12 180 21 192 22 312 29 327 20 29 -19 48 -6 48 34 0 12 -6 21
-12 21 -7 -1 -47 -5 -88 -9z"/>
<path d="M1058 1212 c-24 -5 -23 -32 2 -32 10 0 24 -9 29 -19 6 -10 25 -24 43
-30 l32 -11 -37 -26 c-20 -13 -37 -27 -37 -29 0 -3 14 -12 31 -21 l32 -16 -33
-16 c-40 -19 -49 -41 -24 -59 15 -11 16 -17 7 -32 -18 -29 10 -63 51 -59 l31
3 3 -90 c2 -49 -2 -139 -9 -200 -7 -60 -13 -126 -14 -145 -2 -35 -2 -35 -61
-43 -109 -15 -120 -17 -140 -31 -31 -24 -6 -40 42 -27 87 22 366 35 439 20 22
-5 34 26 17 43 -7 7 -61 10 -135 9 l-125 -2 4 103 c2 57 6 114 9 128 3 14 6
75 6 135 l0 110 32 15 c37 17 52 56 19 48 -14 -4 -18 -1 -16 11 8 32 -11 45
-46 32 -40 -13 -73 -14 -65 -2 3 5 20 13 37 17 18 3 50 18 71 31 32 20 36 27
26 39 -10 12 -25 14 -63 10 l-51 -6 38 15 c21 8 44 21 52 29 18 17 20 46 4 46
-8 0 -8 5 1 15 27 33 6 42 -92 42 -51 -1 -101 -3 -110 -5z m154 -49 c-7 -3
-16 -2 -19 1 -4 3 2 6 13 5 11 0 14 -3 6 -6z m28 -233 c0 -5 -7 -10 -16 -10
-8 0 -12 5 -9 10 3 6 10 10 16 10 5 0 9 -4 9 -10z m-60 -26 c0 -2 -7 -4 -16
-4 -8 0 -12 5 -9 10 6 9 25 5 25 -6z"/>
<path d="M1400 1147 c-19 -10 -24 -20 -23 -42 1 -17 2 -58 2 -93 0 -70 5 -84
26 -76 10 4 13 20 10 60 -2 30 0 54 4 54 23 0 80 -68 86 -102 5 -28 12 -38 26
-38 29 0 24 49 -10 100 -26 39 -27 44 -13 61 53 61 -27 117 -108 76z m80 -37
c0 -5 -11 -17 -25 -26 -21 -14 -28 -14 -41 -3 -14 12 -14 14 2 26 21 15 64 17
64 3z"/>
<path d="M5993 1138 c-31 -10 -33 -13 -29 -54 2 -24 -1 -66 -7 -94 -7 -37 -7
-54 2 -63 17 -17 34 6 33 42 0 17 3 33 7 36 15 9 59 -35 66 -64 10 -47 55 -68
55 -26 0 15 -35 80 -57 106 -11 14 -10 20 7 42 23 28 26 57 8 75 -14 14 -41
14 -85 0z m57 -38 c0 -5 -10 -20 -22 -32 l-23 -23 -3 24 c-4 23 11 41 36 41 6
0 12 -4 12 -10z"/>
<path d="M1628 1050 c-10 -6 -18 -18 -18 -25 0 -16 9 -18 48 -15 36 3 26 -24
-18 -49 -22 -12 -40 -28 -40 -35 0 -24 35 -44 89 -48 44 -4 57 -2 73 14 25 25
7 54 -22 38 -10 -6 -34 -10 -52 -10 l-33 0 38 25 c39 27 48 57 25 88 -16 21
-67 31 -90 17z"/>
<path d="M6178 1033 c-29 -7 -23 -43 7 -43 14 0 25 -5 25 -11 0 -13 -50 -63
-50 -51 0 4 -5 -1 -11 -11 -19 -33 6 -47 81 -47 58 0 68 3 73 19 6 23 -28 35
-70 25 l-28 -6 28 26 c58 57 23 120 -55 99z"/>
<path d="M5922 319 c-27 -10 -105 -19 -212 -23 -58 -2 -76 -6 -78 -18 -4 -21
29 -27 118 -22 157 9 204 18 208 38 5 26 -9 35 -36 25z"/>
<path d="M1288 310 c-2 -4 -58 -10 -125 -13 -134 -6 -151 -10 -132 -34 12 -14
70 -14 284 1 22 2 31 8 33 24 2 13 -2 22 -10 23 -7 0 -21 2 -30 4 -9 2 -18 -1
-20 -5z"/>
<path d="M1216 213 c-2 -3 -34 -5 -70 -5 -57 0 -66 -3 -66 -18 0 -23 31 -30
132 -28 54 0 81 5 89 15 7 8 8 17 3 22 -11 10 -80 21 -88 14z"/>
<path d="M5696 194 c-11 -30 14 -39 106 -39 92 0 93 0 93 24 0 24 -1 24 -97
25 -62 1 -99 -3 -102 -10z"/>
</g>
</svg>
