<?xml version="1.0" standalone="no"?>
<!DOCTYPE svg PUBLIC "-//W3C//DTD SVG 20010904//EN"
 "http://www.w3.org/TR/2001/REC-SVG-20010904/DTD/svg10.dtd">
<svg version="1.0" xmlns="http://www.w3.org/2000/svg"
 width="589.000000pt" height="376.000000pt" viewBox="0 0 589.000000 376.000000"
 preserveAspectRatio="xMidYMid meet">
<metadata>
Created by potrace 1.12, written by Peter Selinger 2001-2015
</metadata>
<g transform="translate(0.000000,376.000000) scale(0.100000,-0.100000)"
fill="#000000" stroke="none">
<path d="M718 3574 c-102 -35 -137 -92 -173 -279 -16 -85 -9 -318 14 -490 4
-29 7 -151 6 -271 -1 -193 -3 -229 -23 -299 -40 -147 -82 -214 -164 -263 -34
-20 -34 -26 -7 -83 23 -46 61 -169 53 -169 -3 0 0 -8 5 -19 6 -10 13 -49 16
-87 3 -38 8 -94 10 -124 4 -51 5 -300 3 -580 -2 -175 12 -427 28 -504 27 -128
66 -163 173 -152 95 10 111 15 111 38 0 14 -5 18 -17 14 -76 -21 -168 -23
-187 -3 -46 47 -71 257 -69 592 0 61 1 205 2 320 2 324 -7 421 -51 580 -17 61
-35 116 -41 123 -8 11 -7 16 7 24 38 21 92 85 119 138 26 53 51 146 64 240 12
86 6 416 -12 635 -9 123 -14 249 -11 285 8 77 33 175 55 210 34 56 101 100
152 100 11 0 19 5 17 12 -7 20 -42 26 -80 12z"/>
<path d="M3153 3433 c-19 -7 -16 -22 13 -60 34 -45 78 -176 94 -281 15 -101 8
-189 -24 -284 -25 -72 -25 -98 0 -98 16 0 29 24 38 70 3 19 9 46 13 60 13 53
14 232 2 302 -15 85 -13 76 -27 111 -7 16 -12 32 -12 37 0 18 -52 118 -68 133
-9 8 -23 12 -29 10z"/>
<path d="M1881 3343 c-7 -16 -13 -30 -14 -33 0 -3 -9 -32 -19 -65 -35 -114
-35 -258 2 -390 6 -22 12 -49 14 -60 5 -35 30 -66 51 -63 27 4 30 33 7 56 -33
33 -65 157 -65 252 0 96 15 169 50 249 13 30 21 61 19 68 -9 22 -32 14 -45
-14z"/>
<path d="M4177 3253 c-4 -3 -7 -39 -7 -79 l0 -73 -50 -51 c-47 -49 -55 -70
-26 -70 7 0 23 9 36 20 13 11 24 20 26 20 1 0 -4 -26 -11 -58 -25 -107 -25
-112 -5 -112 13 0 21 11 27 37 l9 37 61 -62 c64 -64 115 -88 126 -60 7 20 -3
34 -33 42 -31 8 -76 47 -84 72 -4 13 3 28 24 47 34 32 37 54 14 99 -13 26 -20
29 -49 26 -32 -4 -32 -3 -23 24 6 15 14 31 19 34 17 10 9 70 -11 92 -22 23
-32 27 -43 15z m75 -220 c7 -31 -2 -49 -33 -67 -17 -10 -32 -16 -34 -14 -2 2
6 25 17 51 21 48 43 61 50 30z"/>
<path d="M5039 3168 c0 -1 -9 -56 -19 -121 -11 -74 -27 -137 -42 -167 -26 -53
-22 -86 6 -57 9 8 16 21 16 28 0 7 9 3 20 -9 25 -26 29 -27 58 -6 20 14 24 14
44 0 12 -9 30 -16 39 -16 16 0 59 32 59 44 0 7 38 46 44 46 3 0 3 -11 0 -25
-3 -17 2 -27 17 -36 19 -9 26 -7 52 19 l31 31 11 -22 c18 -36 43 -33 62 8 12
26 22 35 35 32 20 -6 98 62 98 86 0 31 -18 26 -58 -14 l-39 -41 1 38 c1 33 -2
39 -19 39 -16 0 -21 -8 -23 -38 -2 -20 -9 -48 -16 -61 l-12 -25 -13 35 c-7 19
-16 34 -21 34 -13 0 -38 -28 -45 -50 -10 -32 -28 -24 -22 10 4 16 4 37 1 45
-8 20 -34 19 -48 -1 -10 -13 -12 -12 -13 6 -2 28 -23 52 -40 46 -7 -3 -13 -1
-13 4 0 6 -7 10 -15 10 -8 0 -15 -4 -15 -9 0 -6 -13 -23 -30 -38 -17 -16 -32
-42 -35 -63 -3 -19 -16 -43 -28 -54 -22 -18 -22 -18 -25 12 -2 16 9 58 23 93
30 74 34 114 14 154 -12 24 -37 45 -40 33z m135 -255 c0 -37 -3 -49 -16 -51
-25 -5 -31 33 -12 73 21 44 26 39 28 -22z"/>
<path d="M1226 3143 c-9 -9 -36 -72 -36 -83 0 -5 11 -22 25 -38 23 -28 24 -32
11 -64 -8 -18 -23 -41 -34 -51 -29 -26 -36 -8 -37 91 -1 71 -4 86 -23 104 -21
21 -22 21 -57 5 -27 -13 -42 -31 -60 -70 -28 -60 -34 -127 -10 -127 10 0 15
10 15 28 1 58 64 151 88 128 3 -4 8 -47 12 -98 6 -78 10 -94 29 -110 13 -10
29 -18 36 -18 24 0 65 53 82 106 12 39 27 62 55 85 42 33 65 76 49 92 -5 5
-20 -3 -39 -22 -34 -36 -42 -38 -42 -13 0 39 -43 75 -64 55z m29 -81 c-2 -9
-4 -19 -5 -22 0 -3 -5 3 -11 13 -5 9 -7 22 -4 27 9 15 24 2 20 -18z"/>
<path d="M4630 3126 c-19 -24 -15 -88 7 -106 19 -15 19 -16 1 -58 -24 -53 -38
-46 -38 20 0 65 -18 118 -41 118 -13 0 -24 -21 -43 -77 -14 -43 -28 -95 -32
-115 -5 -33 -4 -38 12 -38 13 0 19 8 21 26 2 35 34 137 40 130 3 -3 7 -30 8
-60 4 -71 12 -94 36 -101 28 -9 45 8 71 75 19 49 29 62 60 76 53 24 73 49 62
75 -9 20 -10 20 -44 -10 -19 -17 -37 -31 -40 -31 -3 0 -10 14 -15 32 -13 41
-47 65 -65 44z m40 -67 c0 -5 -4 -9 -10 -9 -5 0 -10 7 -10 16 0 8 5 12 10 9 6
-3 10 -10 10 -16z"/>
<path d="M2573 3118 c-18 -24 -33 -73 -37 -120 -3 -48 -14 -70 -50 -99 -23
-19 -15 -49 12 -49 11 0 27 10 35 23 12 16 18 19 24 10 14 -20 56 -31 81 -22
14 6 31 5 42 -1 13 -7 24 -4 44 11 14 11 26 26 26 34 0 7 11 20 25 29 24 16
25 16 25 -6 1 -71 36 -94 76 -51 19 20 27 24 36 15 25 -25 63 -5 80 40 4 8 21
18 39 22 37 7 79 48 79 77 0 25 -12 24 -36 -2 -10 -11 -26 -25 -35 -30 -14 -7
-16 -2 -15 29 1 31 -3 38 -21 40 -24 4 -35 -19 -35 -72 0 -40 -25 -78 -37 -57
-5 8 -7 20 -4 28 3 8 -2 13 -15 13 -14 0 -28 -14 -43 -40 -12 -22 -24 -38 -27
-36 -7 8 -8 80 -1 114 6 27 4 32 -13 32 -12 0 -24 -12 -32 -32 -13 -29 -14
-30 -20 -10 -4 12 -21 28 -39 37 -31 16 -33 15 -54 -9 -12 -14 -29 -50 -37
-81 -9 -30 -21 -55 -25 -55 -44 0 -53 38 -22 98 18 35 25 71 22 115 -1 20 -34
23 -48 5z m137 -203 c-17 -20 -31 -6 -23 23 5 21 7 22 21 8 13 -12 13 -18 2
-31z"/>
<path d="M2150 3101 c-12 -24 -13 -72 -1 -104 7 -19 4 -30 -14 -53 l-24 -29
-1 62 c0 77 -6 93 -35 93 -20 0 -26 -10 -44 -67 -26 -83 -27 -116 -4 -111 13
2 20 17 25 52 9 62 18 71 18 18 0 -99 57 -125 95 -45 16 34 25 42 47 43 30 0
58 23 58 47 0 15 -12 15 -53 -2 -15 -6 -16 -4 -7 20 23 61 -31 129 -60 76z"/>
<path d="M2317 3073 c-15 -15 -7 -43 13 -43 15 0 20 7 20 25 0 24 -18 34 -33
18z"/>
<path d="M4853 3050 c-1 -14 4 -20 18 -20 14 0 19 6 17 17 -5 26 -33 28 -35 3z"/>
<path d="M4369 3011 c-15 -16 -13 -34 6 -59 1 -1 9 0 18 3 21 9 32 56 15 66
-18 12 -22 11 -39 -10z"/>
<path d="M3490 3010 c-26 -16 1 -28 75 -32 64 -3 70 -1 70 17 0 18 -8 20 -65
23 -36 1 -72 -2 -80 -8z"/>
<path d="M1574 2978 c-25 -37 -31 -58 -27 -82 3 -14 9 -26 15 -26 5 0 8 -10 7
-22 -4 -42 1 -58 16 -58 25 0 34 35 29 106 -5 71 -23 109 -40 82z"/>
<path d="M2303 2978 c-21 -27 -65 -137 -58 -147 11 -19 22 -12 41 27 16 31 19
34 22 16 2 -12 12 -30 22 -39 18 -16 20 -16 26 -1 5 13 -4 72 -23 139 -5 20
-17 22 -30 5z"/>
<path d="M1348 2956 c-6 -11 -12 -48 -14 -83 -3 -60 -1 -63 22 -69 13 -3 24
-10 24 -15 0 -14 64 -11 82 4 30 24 37 49 22 79 -8 15 -19 28 -25 28 -8 0 -8
5 1 15 13 16 5 54 -13 56 -67 7 -89 4 -99 -15z m66 -31 c-4 -8 -10 -15 -16
-15 -5 0 -8 -10 -6 -22 2 -17 11 -24 31 -26 30 -4 30 -4 21 -26 -8 -20 -38
-21 -58 0 -22 21 -21 80 2 93 24 15 32 13 26 -4z"/>
<path d="M4825 2944 c-9 -21 -27 -53 -41 -71 -24 -32 -27 -63 -5 -63 5 0 19
12 31 27 13 17 24 23 28 16 4 -5 17 -13 30 -17 28 -9 43 21 19 39 -9 6 -17 30
-19 55 -4 56 -23 62 -43 14z"/>
<path d="M3585 2935 c-5 -3 -37 -6 -70 -7 -46 -2 -60 -7 -63 -19 -4 -23 37
-32 107 -24 82 10 90 13 84 35 -5 19 -31 25 -58 15z"/>
<path d="M3014 2316 c-5 -12 10 -44 54 -111 98 -154 132 -353 85 -503 -12 -39
-13 -56 -5 -64 20 -20 39 9 46 70 26 231 15 304 -66 460 -28 53 -58 112 -67
130 -16 33 -38 42 -47 18z"/>
<path d="M1894 2228 c-11 -13 -27 -39 -36 -58 -84 -188 -62 -406 55 -552 15
-19 62 -24 71 -9 11 17 -6 43 -25 38 -44 -12 -113 131 -123 258 -6 74 59 290
90 302 18 7 18 43 1 43 -8 0 -22 -10 -33 -22z"/>
<path d="M3978 2142 c-3 -9 -6 -55 -7 -102 -3 -89 -11 -110 -43 -110 -27 0
-20 -42 8 -50 23 -6 24 -19 6 -105 -11 -53 -2 -88 22 -79 7 3 13 15 13 27 0
12 0 40 1 62 l2 40 73 -78 c68 -72 98 -90 111 -68 9 13 -4 41 -18 41 -6 0 -29
19 -50 41 l-38 41 25 27 c34 37 49 88 37 130 -14 48 -28 62 -58 54 -18 -4 -23
-3 -17 6 16 27 12 86 -7 114 -22 31 -53 36 -60 9z m39 -84 c-3 -7 -5 -2 -5 12
0 14 2 19 5 13 2 -7 2 -19 0 -25z m73 -133 c0 -41 -34 -85 -66 -85 -28 0 -29
4 -9 61 30 84 75 98 75 24z"/>
<path d="M1088 2069 c-24 -40 -23 -70 3 -103 25 -31 20 -67 -15 -110 -28 -35
-55 -30 -58 11 -4 84 -16 139 -33 153 -17 14 -49 -1 -60 -27 -27 -67 -43 -126
-38 -138 6 -17 23 -20 23 -5 0 17 41 120 49 120 4 0 7 -9 8 -19 9 -119 42
-178 92 -166 29 7 40 21 78 93 15 28 37 55 48 58 69 21 84 70 18 58 -30 -6
-34 -4 -33 12 4 39 0 63 -16 78 -24 24 -47 19 -66 -15z m46 -62 c-3 -15 -10
-24 -15 -21 -11 6 -12 48 -2 58 13 12 24 -11 17 -37z"/>
<path d="M2202 2063 c-40 -16 -50 -114 -15 -154 16 -19 6 -56 -21 -78 -31 -26
-41 2 -39 100 2 78 0 89 -15 89 -11 0 -28 -24 -49 -73 -44 -99 -50 -125 -28
-133 21 -8 35 11 35 49 0 15 5 27 10 27 6 0 10 -11 10 -25 0 -83 67 -113 114
-52 15 19 26 39 26 45 0 7 3 11 8 11 43 -7 89 19 79 44 -5 14 -11 15 -32 5
-14 -6 -27 -9 -29 -7 -3 3 -1 23 5 46 9 44 -1 91 -24 105 -13 9 -16 9 -35 1z
m24 -105 c-12 -32 -14 -31 -26 11 -7 25 -5 33 8 40 23 13 32 -14 18 -51z"/>
<path d="M2909 2028 c0 -1 -2 -45 -4 -96 -2 -51 -6 -106 -10 -121 -4 -21 -2
-30 10 -35 10 -3 18 1 21 12 15 48 25 62 44 62 12 0 21 -7 22 -17 1 -10 2 -27
3 -38 1 -11 3 -26 4 -33 0 -8 8 -12 18 -10 12 2 17 15 18 51 3 63 -24 102 -66
93 l-28 -5 -3 66 c-2 42 -8 68 -15 71 -7 2 -13 2 -14 0z"/>
<path d="M2345 2000 c-8 -13 13 -40 31 -40 19 0 18 36 -2 44 -21 8 -22 8 -29
-4z"/>
<path d="M4612 1960 c-12 -33 -9 -65 9 -86 10 -12 7 -24 -11 -57 -13 -23 -28
-48 -33 -55 -18 -23 -26 9 -19 69 10 75 2 113 -24 117 -18 3 -29 -11 -64 -81
-23 -47 -40 -93 -38 -103 3 -19 28 -32 28 -15 0 16 59 138 61 126 1 -5 1 -13
0 -18 -1 -4 -2 -32 -2 -62 -2 -60 12 -85 45 -85 27 0 44 20 78 91 16 34 37 60
52 67 30 14 35 42 7 42 -15 0 -19 5 -16 21 11 58 -54 84 -73 29z m35 -53 c-3
-6 -5 2 -5 18 0 17 2 22 5 12 2 -9 2 -23 0 -30z"/>
<path d="M3566 1973 c-3 -4 -45 -6 -91 -5 -90 2 -100 -4 -72 -42 10 -14 28
-19 70 -20 31 0 57 2 57 5 0 4 6 7 13 6 52 -2 87 5 87 16 0 15 -54 49 -64 40z"/>
<path d="M5373 1953 c-5 -15 -10 -68 -12 -118 -1 -49 -7 -94 -12 -99 -16 -17
-10 -32 15 -34 20 -1 24 4 30 38 3 21 11 42 16 45 22 14 48 -7 57 -43 6 -27
15 -38 31 -40 18 -3 22 1 22 22 0 33 -36 93 -61 101 -10 4 -28 3 -40 0 -20 -7
-21 -4 -18 71 4 81 -10 110 -28 57z"/>
<path d="M1270 1951 c0 -14 6 -21 19 -21 38 0 51 -10 40 -31 -12 -23 -35 -25
-43 -4 -3 8 -10 15 -15 15 -9 0 -27 -38 -23 -51 1 -4 -3 -20 -7 -36 -8 -28 -6
-32 32 -56 46 -31 85 -34 127 -12 39 20 40 61 3 101 -17 18 -26 38 -25 54 3
38 -11 52 -62 57 -42 5 -46 4 -46 -16z m120 -147 c0 -14 -62 -30 -79 -19 -6 3
-16 16 -22 27 -9 17 -9 20 4 15 8 -3 23 0 33 8 15 11 22 10 41 -2 13 -9 23
-21 23 -29z"/>
<path d="M4823 1944 c-3 -9 0 -20 8 -25 21 -13 29 -11 29 10 0 24 -29 36 -37
15z"/>
<path d="M2506 1868 c-9 -96 -8 -121 6 -130 23 -14 30 -9 26 17 -3 15 2 32 14
45 21 23 38 26 39 8 5 -74 23 -103 45 -73 15 21 13 49 -10 95 -10 21 -18 25
-51 23 -39 -1 -40 -1 -40 34 0 64 -23 49 -29 -19z"/>
<path d="M1509 1909 c-7 -4 -17 -5 -21 -3 -5 3 -16 -2 -25 -12 -16 -15 -16
-17 2 -30 13 -10 22 -11 29 -4 24 24 27 7 3 -18 -15 -15 -27 -38 -27 -50 0
-42 102 -71 130 -37 17 21 9 27 -39 29 -53 3 -60 11 -27 37 35 28 62 78 44 83
-36 11 -57 13 -69 5z"/>
<path d="M2802 1903 c-16 -6 -42 -56 -42 -81 0 -11 9 -31 20 -44 17 -22 18
-27 5 -44 -29 -38 -6 -94 39 -94 35 0 63 49 45 81 -7 14 -7 29 0 49 7 21 6 30
-2 33 -7 2 -10 19 -9 41 5 52 -17 75 -56 59z m22 -70 c-9 -36 -12 -39 -20 -19
-7 20 1 46 16 46 6 0 8 -11 4 -27z m2 -151 c-12 -11 -18 7 -10 30 l8 23 4 -23
c2 -13 1 -26 -2 -30z"/>
<path d="M4995 1848 c-5 -35 -7 -67 -6 -71 0 -4 -3 -16 -9 -27 -13 -24 -2 -52
19 -48 16 3 17 7 20 48 1 19 38 47 48 37 2 -3 6 -21 7 -40 4 -44 13 -58 32
-50 13 5 15 17 11 56 -5 58 -27 81 -70 73 -25 -5 -27 -4 -21 20 11 44 9 58 -7
62 -13 2 -18 -10 -24 -60z"/>
<path d="M2311 1840 c-17 -32 -31 -64 -31 -70 0 -21 32 -9 48 19 l16 29 11
-31 c16 -50 40 -42 39 13 -2 55 -19 100 -38 100 -8 0 -28 -27 -45 -60z"/>
<path d="M5267 1856 c-21 -17 -30 -69 -15 -101 9 -19 6 -28 -18 -55 -39 -43
-47 -66 -28 -85 30 -30 81 -9 109 46 14 26 14 32 0 59 -12 22 -13 35 -5 49 16
31 12 88 -6 95 -19 7 -15 8 -37 -8z m13 -186 c0 -5 -9 -14 -20 -20 -22 -12
-27 -1 -8 18 14 14 28 16 28 2z"/>
<path d="M2692 1793 c2 -45 7 -59 20 -61 14 -3 17 5 17 40 0 57 -7 78 -25 78
-12 0 -14 -12 -12 -57z"/>
<path d="M3560 1841 c0 -5 -27 -8 -60 -7 -34 1 -63 -1 -66 -4 -6 -5 -13 -7
-44 -9 -24 -1 -27 -26 -4 -35 9 -3 53 -6 99 -6 46 0 90 3 99 6 19 7 21 35 4
52 -14 14 -28 16 -28 3z"/>
<path d="M4241 1827 c-8 -10 -7 -17 1 -25 17 -17 35 -15 42 4 12 31 -21 47
-43 21z"/>
<path d="M4775 1804 c-8 -20 -15 -40 -15 -44 0 -4 -9 -15 -20 -25 -23 -20 -27
-55 -7 -55 7 0 24 14 36 31 l24 32 17 -23 c10 -13 22 -20 29 -16 16 10 14 42
-4 60 -8 8 -15 28 -15 45 0 43 -26 40 -45 -5z"/>
<path d="M5157 1813 c-10 -18 1 -116 14 -124 20 -12 28 9 25 71 -1 41 -6 56
-18 58 -9 2 -18 -1 -21 -5z"/>
<path d="M2025 948 c-3 -13 -3 -42 -2 -65 6 -63 -1 -68 -93 -68 -56 0 -80 -4
-80 -12 0 -29 85 -45 141 -28 20 7 21 5 15 -31 -4 -21 -20 -67 -34 -103 l-26
-66 -8 55 c-6 37 -15 61 -30 73 -26 22 -38 19 -64 -21 l-22 -31 -5 28 c-6 29
-37 49 -56 37 -5 -4 -15 -23 -21 -44 -23 -76 -42 -122 -50 -122 -18 0 -18 31
0 67 29 61 34 118 13 153 -18 32 -29 36 -53 21 -10 -7 -15 -36 -18 -105 -4
-86 -6 -96 -24 -96 -37 0 -42 66 -11 140 13 32 13 36 -2 45 -38 23 -45 31 -50
53 -6 33 -15 43 -33 40 -14 -3 -17 -17 -18 -83 -1 -61 -6 -90 -23 -122 -32
-64 -44 -55 -36 25 14 130 15 127 -27 124 -33 -2 -38 0 -44 23 -4 17 -12 25
-23 23 -13 -3 -15 -14 -13 -63 3 -43 -2 -76 -18 -117 -36 -98 -65 -86 -55 22
3 36 6 72 7 80 3 34 -3 50 -17 50 -17 0 -27 -21 -46 -95 -7 -27 -21 -61 -32
-75 l-20 -25 6 70 c4 39 9 94 13 123 6 47 5 52 -13 52 -16 0 -22 -11 -32 -64
-14 -73 -52 -160 -83 -193 -27 -29 -64 -30 -79 -1 -26 49 26 248 65 248 9 0
16 7 16 15 0 25 -52 18 -72 -10 -26 -34 -48 -129 -48 -201 0 -80 24 -114 79
-114 41 0 67 21 95 75 10 18 16 23 16 13 0 -20 26 -48 45 -48 8 0 26 12 40 27
24 26 25 27 25 7 0 -36 31 -64 63 -57 23 4 33 17 52 60 13 29 27 69 31 88 3
18 12 36 20 39 12 5 14 -8 10 -79 -5 -81 -4 -86 18 -101 21 -13 28 -13 46 -2
29 17 59 77 67 133 3 25 10 45 16 45 9 0 7 -29 -7 -105 -4 -27 14 -77 33 -92
9 -7 28 -13 43 -13 15 0 31 -6 35 -12 39 -61 82 -39 107 56 20 74 32 78 33 12
2 -87 20 -87 63 0 35 70 50 71 50 1 0 -50 15 -77 44 -77 24 0 37 18 60 85 12
38 13 39 20 15 17 -59 38 -90 63 -96 30 -8 56 5 61 30 3 14 -2 16 -30 11 -32
-6 -35 -4 -52 32 -12 28 -16 59 -14 116 3 70 5 78 25 83 12 3 29 14 38 24 16
18 15 19 -19 15 l-35 -3 3 52 c2 28 1 57 -1 64 -8 20 -32 14 -38 -10z m-348
-251 c-3 -6 -5 2 -5 18 0 17 2 22 5 12 2 -9 2 -23 0 -30z"/>
<path d="M3700 911 c0 -21 33 -34 48 -19 16 16 2 38 -24 38 -17 0 -24 -6 -24
-19z"/>
<path d="M2293 873 c-4 -21 -8 -84 -8 -140 0 -94 2 -103 24 -127 34 -36 93
-36 126 0 60 65 94 250 53 291 -27 27 -45 4 -28 -37 28 -68 -16 -210 -75 -239
-24 -12 -29 -11 -46 5 -26 27 -32 110 -14 196 19 91 19 88 -5 88 -14 0 -21
-10 -27 -37z"/>
<path d="M4163 813 c-16 -6 -17 -29 -3 -38 11 -7 40 12 40 25 0 11 -22 18 -37
13z"/>
<path d="M3682 736 c-6 -24 -19 -51 -27 -60 -12 -12 -13 -16 -3 -16 9 0 10 -3
2 -8 -6 -4 -14 -17 -18 -29 -4 -12 -20 -36 -35 -52 -36 -38 -44 -58 -26 -64
15 -6 56 37 84 88 l19 36 7 -33 c17 -77 71 -81 90 -5 6 23 4 27 -14 27 -12 0
-21 -6 -21 -16 0 -8 -5 -12 -10 -9 -7 4 -10 40 -8 93 2 71 0 87 -12 90 -11 2
-19 -11 -28 -42z"/>
<path d="M3166 756 c-111 -21 -74 -54 40 -36 80 13 89 17 73 36 -13 16 -30 16
-113 0z"/>
<path d="M2574 705 c-19 -42 -12 -70 16 -62 23 6 25 -2 8 -38 -8 -18 -19 -25
-38 -25 -15 0 -34 -7 -41 -16 -11 -14 -10 -19 8 -33 32 -27 165 -23 193 4 18
18 19 23 7 40 -14 18 -15 18 -37 -3 -34 -32 -85 -27 -59 5 6 7 8 13 5 13 -4 0
0 10 8 22 32 45 9 128 -34 128 -12 0 -25 -13 -36 -35z"/>
<path d="M3887 710 c-33 -26 -69 -97 -62 -121 9 -27 35 -24 35 4 0 12 12 40
27 62 26 38 27 39 37 16 7 -17 6 -35 -7 -72 -10 -27 -15 -54 -12 -59 12 -20
31 -8 50 33 18 38 44 52 37 19 -10 -42 31 -51 42 -9 3 12 15 28 27 35 21 13
21 13 15 -21 -5 -25 -2 -39 9 -51 24 -23 31 -20 60 21 l25 38 0 -38 c0 -71 46
-56 85 28 l13 30 1 -35 c1 -45 18 -65 37 -45 8 7 14 17 14 20 0 4 9 18 20 32
l19 25 6 -29 c14 -61 22 -78 40 -82 16 -3 17 2 12 49 -10 85 -53 126 -88 84
-11 -14 -14 -13 -29 6 -14 19 -20 21 -38 11 -12 -6 -26 -20 -32 -32 -12 -22
-32 -17 -23 6 5 15 -13 45 -27 45 -5 0 -19 -17 -32 -37 -19 -32 -23 -35 -26
-18 -8 42 -52 61 -80 33 -8 -8 -15 -8 -25 0 -7 6 -23 9 -35 5 -17 -4 -22 -1
-22 14 0 18 -28 53 -42 53 -3 0 -17 -9 -31 -20z"/>
<path d="M3210 683 c0 -8 -18 -11 -56 -10 -38 1 -58 -2 -61 -10 -7 -19 41 -33
113 -33 57 0 64 2 64 20 0 18 -11 25 -34 21 -5 -1 -13 4 -17 11 -6 9 -9 9 -9
1z"/>
</g>
</svg>
