<?xml version="1.0" standalone="no"?>
<!DOCTYPE svg PUBLIC "-//W3C//DTD SVG 20010904//EN"
 "http://www.w3.org/TR/2001/REC-SVG-20010904/DTD/svg10.dtd">
<svg version="1.0" xmlns="http://www.w3.org/2000/svg"
 width="679.000000pt" height="261.000000pt" viewBox="0 0 679.000000 261.000000"
 preserveAspectRatio="xMidYMid meet">
<metadata>
Created by potrace 1.12, written by Peter Selinger 2001-2015
</metadata>
<g transform="translate(0.000000,261.000000) scale(0.100000,-0.100000)"
fill="#000000" stroke="none">
<path d="M3120 2511 c0 -4 8 -19 18 -32 42 -55 63 -154 63 -293 0 -133 -28
-286 -52 -286 -16 0 -10 -60 6 -67 22 -8 25 -3 46 74 26 92 34 167 33 303 -1
125 -28 256 -60 291 -17 19 -54 26 -54 10z"/>
<path d="M1484 2490 c-37 -14 -82 -124 -91 -225 -12 -130 5 -276 40 -340 38
-71 51 -85 80 -85 36 0 42 26 9 42 -66 32 -102 134 -102 290 0 99 21 178 66
251 37 59 36 81 -2 67z"/>
<path d="M2249 2460 c-21 -12 -46 -80 -58 -155 -9 -58 -2 -95 18 -95 11 0 31
55 31 83 0 20 1 19 26 -4 14 -13 38 -45 52 -71 28 -49 40 -56 60 -36 8 8 0 27
-35 77 -27 40 -41 67 -33 69 11 4 33 46 34 69 2 20 -44 73 -62 73 -9 0 -24 -5
-33 -10z m51 -70 c0 -15 -38 -50 -55 -50 -9 0 -6 19 10 57 13 30 17 33 30 23
8 -7 15 -20 15 -30z"/>
<path d="M2845 2458 c-11 -7 -26 -18 -34 -26 -8 -7 -26 -21 -40 -30 -64 -42
-357 -330 -380 -375 -25 -48 -1 -44 45 8 81 90 168 179 224 228 30 26 66 58
80 71 44 42 109 79 129 73 20 -5 30 14 23 46 -4 20 -19 21 -47 5z"/>
<path d="M873 2391 c-25 -18 -35 -48 -43 -122 -4 -46 -6 -89 -3 -96 9 -23 31
-14 42 17 9 27 12 29 30 18 11 -6 26 -23 33 -36 7 -13 25 -30 40 -38 25 -13
29 -13 34 1 5 11 -9 31 -40 61 l-46 45 30 26 c22 18 30 33 30 58 0 33 -20 64
-43 66 -7 0 -22 2 -34 3 -12 1 -26 0 -30 -3z m67 -62 c0 -23 -22 -49 -42 -49
-10 0 -13 10 -10 35 3 29 8 35 28 35 18 0 24 -6 24 -21z"/>
<path d="M2422 2349 c-28 -11 -25 -31 6 -39 24 -6 18 -21 -15 -39 -52 -27 -10
-60 71 -56 43 2 65 14 66 38 0 7 -30 11 -65 7 -19 -2 -19 -1 3 22 29 32 28 56
-4 68 -30 12 -32 12 -62 -1z"/>
<path d="M1665 2339 c-4 -5 -8 -22 -11 -37 -2 -15 -10 -49 -16 -76 -11 -43
-10 -50 5 -61 10 -7 17 -24 16 -36 -5 -51 1 -71 18 -67 15 3 17 21 20 139 3
115 2 137 -11 142 -9 4 -18 2 -21 -4z"/>
<path d="M253 2323 c-20 -7 -15 -23 11 -44 13 -10 31 -35 40 -54 17 -36 17
-36 -11 -68 -16 -18 -35 -48 -42 -66 -12 -28 -12 -34 1 -48 14 -13 19 -9 48
46 18 34 36 61 39 61 4 0 11 -14 16 -32 12 -39 39 -58 57 -40 10 10 10 17 0
33 -7 11 -27 46 -43 77 -65 121 -87 146 -116 135z"/>
<path d="M1063 2298 c-36 -50 -39 -96 -6 -84 11 4 13 2 10 -9 -4 -8 -2 -17 4
-20 5 -4 7 -10 4 -15 -7 -11 22 -33 34 -25 9 5 9 72 0 95 -1 3 -1 8 0 12 2 14
-19 58 -28 58 -4 0 -13 -6 -18 -12z"/>
<path d="M1917 2263 c-4 -3 -7 -14 -7 -24 0 -24 -16 -32 -61 -31 -66 3 -63
-38 3 -43 18 -2 36 -3 41 -4 4 -1 7 -8 7 -16 0 -28 24 -65 42 -65 21 0 23 16
3 50 -20 36 -18 43 9 36 16 -4 30 0 40 10 21 21 12 34 -26 34 -31 0 -31 -1
-11 48 5 13 -28 17 -40 5z"/>
<path d="M2767 2235 c-16 -8 -33 -14 -39 -12 -7 1 -22 -36 -35 -83 -36 -129
-38 -146 -19 -153 10 -4 18 -1 20 6 2 6 10 34 16 60 12 45 14 47 33 34 11 -7
26 -30 33 -49 17 -49 43 -88 60 -88 19 0 18 39 -1 46 -8 3 -17 22 -21 42 -4
21 -11 45 -16 56 -8 15 -5 24 16 43 67 62 30 139 -47 98z m43 -41 c0 -18 -13
-31 -52 -57 -39 -24 -38 0 1 42 32 34 51 40 51 15z"/>
<path d="M516 2221 c-8 -12 17 -26 62 -34 30 -6 33 -5 30 16 -2 18 -10 23 -45
25 -22 2 -44 -1 -47 -7z"/>
<path d="M512 2127 c3 -19 9 -22 53 -22 43 0 50 3 50 20 0 17 -7 20 -53 22
-49 1 -53 0 -50 -20z"/>
<path d="M2975 2124 c-22 -8 -48 -13 -57 -10 -15 3 -25 -13 -16 -26 0 -2 -6
-17 -15 -34 -20 -39 -9 -61 23 -44 12 6 29 9 38 5 14 -6 13 -10 -12 -30 -28
-22 -28 -23 -9 -34 16 -8 25 -6 42 10 37 35 23 99 -23 99 -26 0 -15 10 18 16
58 10 95 32 96 57 0 11 -41 7 -85 -9z"/>
<path d="M1045 2048 c-116 -15 -137 -15 -177 -6 -46 10 -64 0 -46 -25 14 -19
74 -23 235 -18 64 2 93 7 97 16 11 30 -31 43 -109 33z"/>
<path d="M865 1898 c-8 -13 -15 -28 -15 -34 0 -7 -8 -11 -17 -10 -16 1 -18 -9
-18 -79 0 -64 3 -80 15 -80 9 0 16 11 18 28 2 15 9 27 17 27 16 0 61 -52 70
-81 5 -14 14 -19 28 -17 35 5 32 35 -7 76 -41 41 -42 45 -21 62 22 18 18 62
-7 96 -29 37 -43 39 -63 12z m43 -65 c3 -22 -22 -48 -37 -39 -14 9 8 68 23 63
6 -2 12 -13 14 -24z"/>
<path d="M1033 1813 c-22 -8 -14 -31 13 -37 l27 -7 -27 -28 c-26 -27 -33 -55
-18 -78 11 -17 74 -26 105 -14 44 17 34 39 -19 43 l-46 3 21 24 c47 54 7 120
-56 94z"/>
<path d="M2490 958 c-11 -18 -27 -57 -36 -88 -9 -30 -21 -67 -26 -82 -13 -36
-26 -180 -22 -247 4 -64 30 -161 55 -213 13 -25 25 -36 39 -35 26 2 26 31 0
60 -55 58 -75 289 -37 427 18 65 63 166 78 176 12 7 -1 34 -17 34 -8 0 -23
-15 -34 -32z"/>
<path d="M1677 953 c-9 -16 -20 -140 -19 -228 0 -72 3 -91 15 -93 9 -2 19 5
24 15 13 29 10 305 -4 310 -6 2 -13 0 -16 -4z"/>
<path d="M6495 950 c-4 -6 8 -36 26 -68 69 -124 80 -153 87 -234 8 -80 0 -191
-17 -238 -5 -14 -15 -45 -22 -70 -7 -25 -17 -48 -22 -51 -14 -10 1 -29 22 -29
15 0 23 22 46 113 36 144 43 251 21 348 -10 40 -22 79 -27 86 -6 7 -8 16 -5
22 3 5 0 11 -7 14 -8 3 -27 30 -43 61 -28 54 -46 68 -59 46z"/>
<path d="M4973 838 c-64 -14 -75 -51 -59 -183 9 -69 10 -70 32 -61 12 5 15 15
12 41 -2 20 0 35 7 35 18 -1 50 -34 71 -75 24 -45 57 -55 62 -17 2 14 -2 22
-11 22 -7 0 -20 12 -27 28 -8 15 -21 35 -29 45 -13 15 -12 20 7 40 40 43 37
104 -6 125 -9 5 -36 5 -59 0z m57 -63 c0 -15 -11 -32 -30 -45 -34 -24 -48 -20
-45 12 1 13 3 31 4 40 1 10 11 18 29 20 36 5 42 1 42 -27z"/>
<path d="M229 781 c-19 -15 -24 -29 -24 -66 0 -31 5 -49 15 -55 40 -24 42 -27
32 -46 -5 -11 -16 -32 -23 -47 -14 -30 -46 -53 -57 -42 -4 4 -8 40 -9 82 -2
85 -20 125 -52 116 -24 -6 -74 -136 -69 -179 4 -37 22 -32 25 7 2 16 13 53 25
82 l22 52 12 -88 c13 -97 24 -117 64 -117 34 0 70 39 89 98 13 38 17 42 48 42
21 0 36 6 40 15 7 20 -1 28 -31 28 -22 0 -24 3 -23 48 0 34 -5 55 -18 69 -23
25 -36 25 -66 1z m51 -56 c0 -13 -3 -31 -6 -40 -6 -15 -8 -15 -25 1 -17 16
-16 36 4 61 13 18 27 6 27 -22z"/>
<path d="M5383 732 c-73 -80 -101 -112 -128 -147 -11 -14 -25 -31 -30 -38 -69
-82 -126 -170 -117 -179 7 -7 18 -3 36 15 14 14 26 28 26 31 0 5 77 112 120
166 10 14 55 63 100 109 76 80 95 111 68 111 -7 0 -41 -31 -75 -68z"/>
<path d="M3562 772 c-17 -5 -15 -37 4 -53 8 -7 27 -35 41 -62 l25 -50 -34 -31
c-50 -45 -64 -90 -35 -108 19 -12 27 -9 37 15 5 12 19 33 31 47 20 24 21 24
35 5 8 -10 14 -25 14 -32 0 -7 4 -13 9 -13 5 0 11 -9 14 -21 5 -17 9 -19 26
-9 25 13 27 33 6 50 -9 8 -13 21 -9 35 6 23 -9 48 -53 88 -13 11 -23 27 -23
34 0 7 -4 13 -10 13 -5 0 -10 5 -10 10 0 19 -55 87 -68 82z"/>
<path d="M2780 739 c-16 -29 -6 -87 21 -115 20 -21 20 -25 8 -66 -26 -80 -52
-48 -65 75 -9 87 -9 89 -27 99 -13 7 -19 3 -28 -19 -7 -15 -21 -48 -31 -72
-32 -73 -53 -170 -40 -183 17 -17 29 -1 35 43 8 68 53 180 54 136 0 -28 14
-104 24 -134 21 -66 76 -51 106 29 11 29 22 51 24 49 2 -2 14 1 27 8 29 16 29
41 -1 41 -20 0 -23 4 -20 28 8 67 -61 131 -87 81z m53 -89 c-8 -9 -23 25 -22
50 0 22 2 21 13 -10 8 -19 11 -37 9 -40z"/>
<path d="M4032 747 c-30 -13 -29 -54 2 -100 22 -32 23 -39 12 -72 -7 -19 -22
-48 -33 -63 l-20 -27 -12 23 c-7 13 -15 53 -18 90 -8 94 -16 117 -39 117 -13
0 -20 -8 -22 -25 -2 -14 -12 -56 -23 -94 -21 -70 -19 -116 5 -116 9 0 15 20
20 62 8 83 20 94 29 27 7 -56 29 -108 49 -115 38 -12 69 21 98 106 13 40 19
46 50 50 27 4 36 10 38 27 3 20 0 21 -31 16 -32 -5 -34 -3 -40 27 -4 17 -15
42 -25 54 -14 19 -21 21 -40 13z"/>
<path d="M6164 728 c-37 -17 -38 -102 -3 -144 8 -10 7 -24 -7 -59 -33 -78 -47
-56 -45 67 1 80 -1 89 -17 86 -11 -2 -25 -25 -38 -63 -32 -91 -36 -122 -18
-140 23 -22 36 -9 28 30 -3 19 -1 35 5 39 6 4 9 1 5 -7 -3 -8 0 -33 6 -55 20
-75 71 -64 107 24 14 35 25 46 53 56 47 15 80 37 80 54 0 24 -20 26 -49 5 -16
-12 -33 -21 -38 -21 -4 0 -8 21 -8 47 0 28 -5 48 -12 51 -7 2 -13 10 -13 17 0
20 -12 24 -36 13z m28 -96 c-3 -18 -7 -20 -13 -10 -11 16 -12 52 -2 62 11 10
20 -24 15 -52z"/>
<path d="M5137 689 c-15 -28 -16 -34 -3 -48 8 -9 16 -29 18 -46 2 -19 9 -30
18 -30 12 0 15 15 15 75 0 85 -17 103 -48 49z"/>
<path d="M865 695 c-5 -2 -40 -6 -77 -10 -48 -5 -68 -11 -68 -20 0 -25 33 -32
134 -28 55 2 101 4 102 6 1 1 -5 12 -14 23 -16 21 -56 35 -77 29z"/>
<path d="M3268 655 c-10 -36 -18 -47 -38 -51 -44 -10 -50 -13 -50 -28 0 -9 12
-16 33 -18 27 -3 32 -7 29 -27 -3 -26 22 -71 40 -71 7 0 8 16 4 50 -7 53 -9
51 44 54 9 1 15 11 15 26 0 20 -4 24 -23 22 -22 -3 -23 -1 -17 42 6 39 5 46
-9 46 -11 0 -20 -15 -28 -45z"/>
<path d="M2955 660 c-8 -13 3 -30 20 -30 14 0 27 24 18 34 -10 9 -31 7 -38 -4z"/>
<path d="M4620 644 c-6 -14 -10 -29 -10 -34 0 -5 -17 -10 -37 -12 -49 -4 -54
-25 -9 -34 29 -5 36 -11 36 -30 0 -36 21 -74 42 -74 22 0 23 12 4 49 -19 35
-10 47 34 47 29 -1 36 3 38 22 3 20 -1 22 -37 22 -39 0 -40 1 -31 26 14 35 13
44 -5 44 -9 0 -20 -12 -25 -26z"/>
<path d="M5434 635 c-4 -8 -16 -15 -28 -15 -20 0 -21 -4 -20 -96 1 -52 4 -98
7 -101 12 -12 25 9 32 53 l7 47 28 -49 c33 -58 63 -87 84 -82 12 2 8 13 -19
53 -40 59 -42 68 -15 102 25 32 26 65 2 86 -23 21 -71 22 -78 2z m41 -65 c-21
-23 -35 -26 -35 -6 0 23 31 49 43 37 7 -7 5 -17 -8 -31z"/>
<path d="M1426 589 c-128 -9 -211 -18 -232 -26 -11 -4 -12 -9 -3 -19 8 -10 29
-11 87 -6 122 11 846 5 850 -7 5 -16 42 6 42 25 0 8 -11 18 -23 23 -13 5 -153
10 -311 10 -159 1 -291 2 -295 4 -3 2 -55 0 -115 -4z"/>
<path d="M4173 585 c-11 -11 -9 -17 7 -28 15 -10 21 -27 23 -57 2 -49 -13 -58
-58 -34 -35 18 -45 18 -45 -2 0 -19 59 -44 106 -44 24 0 49 9 71 26 27 20 33
32 33 62 0 54 -36 92 -86 92 -22 -1 -45 -7 -51 -15z m91 -51 c8 -21 -3 -56
-15 -49 -12 8 -12 65 0 65 5 0 12 -7 15 -16z"/>
<path d="M6337 587 c-3 -7 -3 -25 0 -39 3 -18 -2 -32 -18 -46 -18 -18 -20 -22
-7 -27 11 -4 15 -19 14 -45 -1 -46 12 -62 48 -62 34 -1 56 19 56 48 0 29 -21
31 -38 4 -15 -25 -32 -18 -32 13 0 17 6 23 27 25 32 3 37 7 30 27 -4 8 -15 15
-26 15 -18 0 -19 5 -14 50 5 46 4 50 -15 50 -11 0 -22 -6 -25 -13z"/>
<path d="M740 565 c-25 -30 -4 -45 62 -46 186 -5 173 -7 176 22 3 27 -25 50
-37 31 -3 -5 -15 -8 -26 -6 -11 2 -52 6 -92 8 -54 4 -74 1 -83 -9z"/>
<path d="M5598 518 c-20 -59 -17 -68 21 -68 33 0 42 -7 34 -26 -4 -11 -15 -13
-39 -8 -30 6 -33 4 -28 -12 18 -50 48 -57 82 -21 38 40 34 93 -7 102 -20 4
-28 11 -25 20 4 10 12 11 28 5 16 -6 35 -3 64 10 47 21 57 50 17 50 -14 0 -25
-4 -25 -10 0 -5 -15 -10 -34 -10 -19 0 -38 5 -41 10 -14 22 -31 7 -47 -42z"/>
<path d="M346 465 c-8 -109 0 -135 42 -135 34 0 102 59 102 88 0 11 -7 28 -15
36 -12 12 -13 20 -6 35 22 39 -5 61 -80 67 l-36 3 -7 -94z m73 46 c18 -11 5
-31 -20 -31 -18 0 -26 20 -12 33 8 9 15 9 32 -2z m18 -86 c6 -18 -23 -55 -44
-55 -8 0 -13 12 -13 35 0 31 3 35 25 35 14 0 28 -7 32 -15z"/>
<path d="M2955 505 c-15 -30 -31 -55 -36 -55 -13 0 -11 -27 2 -35 6 -4 22 3
35 16 24 22 26 23 35 6 16 -27 42 -22 37 8 -3 14 -1 25 3 25 5 0 5 8 -1 18 -5
9 -14 29 -20 45 -5 15 -14 27 -19 27 -6 0 -22 -25 -36 -55z"/>
<path d="M555 518 c-35 -100 -38 -127 -14 -113 5 4 9 0 9 -7 0 -22 16 -39 31
-33 12 4 15 24 15 83 -1 65 -4 77 -19 80 -9 2 -19 -2 -22 -10z"/>
<path d="M1830 433 c0 -10 11 -44 25 -77 l24 -59 -38 -36 c-61 -59 -80 -111
-41 -111 11 0 20 6 20 13 0 6 17 32 38 56 l38 44 23 -38 c20 -34 24 -36 37
-23 14 13 13 19 -5 49 -22 36 -49 91 -61 124 -23 61 -31 75 -45 75 -8 0 -15
-8 -15 -17z"/>
<path d="M1331 357 c-21 -64 -20 -102 4 -93 9 3 12 -10 11 -47 -1 -46 1 -52
19 -52 19 0 20 7 20 125 0 106 -2 125 -16 128 -12 2 -22 -14 -38 -61z"/>
<path d="M1601 344 c-12 -15 -21 -31 -21 -36 0 -5 -17 -8 -37 -6 -48 4 -53
-22 -8 -37 23 -8 30 -16 29 -35 0 -33 17 -71 30 -67 6 2 11 24 11 48 0 36 4
44 20 47 47 7 65 13 65 21 0 8 -47 26 -62 23 -4 -1 -4 14 -1 33 7 42 1 44 -26
9z"/>
</g>
</svg>
