<?xml version="1.0" standalone="no"?>
<!DOCTYPE svg PUBLIC "-//W3C//DTD SVG 20010904//EN"
 "http://www.w3.org/TR/2001/REC-SVG-20010904/DTD/svg10.dtd">
<svg version="1.0" xmlns="http://www.w3.org/2000/svg"
 width="1129.000000pt" height="362.000000pt" viewBox="0 0 1129.000000 362.000000"
 preserveAspectRatio="xMidYMid meet">
<metadata>
Created by potrace 1.12, written by Peter Selinger 2001-2015
</metadata>
<g transform="translate(0.000000,362.000000) scale(0.100000,-0.100000)"
fill="#000000" stroke="none">
<path d="M3087 3404 c-8 -8 17 -56 38 -74 22 -18 63 -101 82 -164 9 -31 15
-88 14 -150 -1 -119 -3 -130 -30 -182 -28 -51 -27 -74 2 -74 18 0 25 10 41 58
24 71 32 227 17 317 -22 127 -129 303 -164 269z"/>
<path d="M1733 3357 c-110 -129 -98 -452 20 -579 28 -31 35 -32 57 -18 19 12
4 40 -32 57 -41 20 -86 150 -90 258 -4 77 41 225 77 255 8 7 15 18 15 25 0 23
-27 24 -47 2z"/>
<path d="M1183 3338 c-25 -31 -99 -184 -96 -195 9 -27 33 -11 57 40 18 37 24
44 19 22 -3 -16 -11 -43 -19 -58 -14 -31 -10 -52 12 -61 20 -8 40 55 49 154 0
9 3 20 6 25 10 17 4 78 -7 82 -6 2 -16 -2 -21 -9z"/>
<path d="M2395 3327 c-30 -19 -30 -20 -30 -111 0 -84 1 -91 20 -91 18 0 21 8
25 82 5 90 13 105 48 92 20 -7 21 -11 10 -29 -7 -11 -18 -20 -24 -20 -26 0
-23 -33 6 -66 16 -19 30 -39 30 -44 0 -15 31 -40 51 -40 12 0 19 7 19 20 0 11
-4 20 -10 20 -5 0 -22 19 -37 41 l-28 42 23 15 c15 10 22 24 22 48 0 28 -5 37
-27 45 -45 18 -66 17 -98 -4z"/>
<path d="M2809 3293 c-19 -21 -57 -65 -84 -98 -28 -33 -58 -69 -68 -80 -10
-11 -37 -45 -60 -75 -23 -30 -45 -56 -49 -58 -12 -5 -10 -42 2 -42 11 0 16 5
79 90 72 97 232 262 247 256 10 -4 14 3 14 19 0 39 -39 32 -81 -12z"/>
<path d="M1367 3255 c-28 -14 -147 -133 -207 -205 -19 -24 -47 -57 -62 -74
-15 -17 -28 -36 -28 -43 0 -21 23 -27 35 -9 80 109 248 286 272 286 19 0 35
28 26 44 -7 14 -12 14 -36 1z"/>
<path d="M1914 3245 c-4 -8 -4 -29 -2 -47 3 -17 -1 -43 -8 -57 -11 -22 -11
-28 3 -43 13 -15 14 -23 4 -45 -9 -20 -15 -23 -23 -15 -7 7 -20 12 -30 12 -22
0 -24 -32 -4 -49 18 -15 106 -26 140 -17 23 6 25 9 15 27 -9 17 -17 20 -41 15
-26 -5 -29 -3 -23 12 10 26 19 166 11 196 -7 28 -33 35 -42 11z"/>
<path d="M2169 3208 c-6 -24 -13 -49 -15 -56 -2 -7 -17 -15 -34 -19 -38 -7
-38 -38 0 -38 18 0 29 -9 40 -29 24 -48 43 -46 38 3 -3 37 -1 41 18 41 25 0
49 24 39 41 -4 6 -21 9 -37 7 -20 -3 -27 -1 -24 8 3 7 8 29 12 48 5 29 3 36
-9 36 -10 0 -20 -15 -28 -42z"/>
<path d="M475 3165 l-60 -62 -30 24 c-66 53 -133 62 -158 21 -27 -42 55 -124
119 -120 67 5 90 4 149 -6 69 -11 85 -7 85 19 0 13 -10 20 -34 25 -19 3 -39 3
-44 0 -6 -3 -20 -2 -32 2 -20 7 -17 11 35 60 40 38 55 59 53 74 -2 12 -7 22
-13 23 -5 1 -37 -26 -70 -60z m-126 -64 c33 -25 28 -41 -12 -41 -27 0 -84 59
-67 70 16 10 39 2 79 -29z"/>
<path d="M2588 3180 c-4 -46 6 -70 29 -70 12 0 14 7 9 31 -3 17 -6 42 -6 55 0
42 -28 28 -32 -16z"/>
<path d="M684 3149 c-11 -19 11 -30 74 -34 61 -5 62 -4 62 20 0 24 -2 25 -64
25 -36 0 -68 -5 -72 -11z"/>
<path d="M2875 3132 c-6 -4 -20 -20 -32 -35 -20 -26 -22 -27 -28 -7 -8 25 -25
26 -25 3 -1 -10 -2 -52 -4 -93 -3 -85 0 -100 20 -100 9 0 14 11 14 28 0 37 7
43 36 30 16 -8 24 -20 25 -37 1 -43 7 -64 21 -72 34 -21 34 85 -1 122 l-20 22
25 32 c30 39 32 90 5 105 -23 12 -23 12 -36 2z m25 -48 c0 -9 -53 -75 -57 -71
-8 8 32 77 45 77 6 0 12 -3 12 -6z"/>
<path d="M697 3084 c-24 -24 22 -48 87 -46 56 1 59 3 50 26 -4 11 -18 16 -48
16 -22 0 -50 3 -61 6 -11 3 -24 2 -28 -2z"/>
<path d="M1327 3028 c-9 -7 -21 -24 -26 -38 -6 -16 -10 -19 -10 -8 -1 10 -8
15 -18 14 -15 -3 -18 -16 -21 -89 -1 -50 2 -88 8 -92 6 -4 24 0 40 9 29 14 30
13 47 -14 20 -35 56 -53 72 -37 8 8 0 22 -31 54 l-43 43 27 24 c26 22 48 63
48 90 0 19 -39 56 -58 56 -10 0 -26 -6 -35 -12z m49 -42 c7 -17 -24 -73 -43
-80 -22 -9 -23 10 -2 52 22 44 36 52 45 28z"/>
<path d="M2988 3008 c-43 -15 -36 -45 10 -39 18 3 15 -10 -13 -51 -35 -52 -23
-72 45 -79 47 -5 61 1 58 24 -2 18 -9 22 -40 22 -21 0 -38 2 -38 5 0 3 12 18
27 34 32 35 38 73 13 86 -22 12 -26 12 -62 -2z"/>
<path d="M1466 2904 c-8 -22 -8 -59 2 -68 4 -4 8 -17 8 -29 3 -44 4 -47 22
-47 10 0 21 2 23 5 3 2 0 37 -7 77 -7 40 -13 74 -14 76 -1 10 -29 -1 -34 -14z"/>
<path d="M2365 2333 c3 -15 25 -54 49 -88 75 -108 81 -127 80 -245 -1 -73 -8
-126 -22 -175 -22 -74 -21 -85 8 -85 14 0 20 10 25 43 9 51 10 55 25 135 15
75 9 178 -14 223 -9 17 -16 36 -16 41 0 5 -18 33 -40 63 -22 30 -40 58 -40 62
-1 14 -38 53 -50 53 -8 0 -10 -9 -5 -27z"/>
<path d="M5074 2305 c-4 -9 8 -30 31 -53 44 -44 80 -116 96 -191 9 -43 8 -73
-6 -152 -16 -95 -26 -129 -63 -208 -15 -32 -14 -35 3 -47 10 -8 23 -10 27 -6
19 19 78 267 79 332 2 116 -39 227 -110 303 -38 41 -49 45 -57 22z"/>
<path d="M2742 2249 c-17 -50 -18 -61 -6 -66 8 -3 14 -16 14 -30 0 -26 26 -60
38 -48 4 4 8 51 8 106 1 87 -1 99 -16 99 -12 0 -23 -18 -38 -61z"/>
<path d="M3049 2258 c-7 -13 -21 -39 -32 -58 -33 -60 -67 -213 -61 -277 6 -69
42 -174 78 -231 29 -46 37 -50 61 -25 16 15 15 17 -9 32 -16 9 -36 41 -55 87
-48 114 -52 142 -31 237 20 89 73 217 90 217 8 0 8 6 0 20 -14 26 -26 25 -41
-2z"/>
<path d="M4859 2221 c-25 -20 -63 -49 -85 -66 -37 -28 -151 -125 -199 -170
-120 -111 -215 -209 -215 -220 0 -30 28 -13 99 59 58 60 165 162 265 251 41
37 184 135 197 135 4 0 9 9 12 19 8 33 -25 29 -74 -8z"/>
<path d="M1107 2217 c-13 -18 -29 -45 -34 -62 -6 -16 -14 -39 -18 -50 -18 -48
-21 -180 -5 -249 17 -76 58 -156 87 -167 42 -16 53 -11 53 21 0 23 -5 30 -19
30 -29 0 -59 31 -74 77 -16 47 -24 263 -10 263 5 0 10 12 11 27 2 29 27 73 49
86 18 11 17 43 -2 51 -9 3 -23 -7 -38 -27z"/>
<path d="M4209 2232 c-4 -29 1 -195 6 -202 3 -6 13 -10 21 -10 12 0 15 8 11
38 -5 34 -4 35 9 17 37 -55 104 -117 119 -111 21 8 9 29 -43 80 l-40 38 24 35
c27 40 31 85 10 102 -16 13 -115 24 -117 13z m91 -57 c0 -15 -38 -65 -50 -65
-12 0 -2 72 11 81 16 9 39 0 39 -16z"/>
<path d="M2665 2212 c-7 -7 -12 -8 -57 -10 -18 -1 -28 -8 -28 -17 0 -22 23
-28 75 -21 35 6 45 12 45 26 0 19 -23 34 -35 22z"/>
<path d="M3865 2209 c-4 -5 -4 -22 -1 -37 4 -15 0 -59 -8 -99 -7 -39 -10 -77
-6 -84 14 -21 39 -2 42 33 l3 33 33 -47 c24 -35 40 -48 57 -48 34 0 31 15 -10
54 -19 19 -35 38 -35 43 0 6 14 27 30 48 46 58 37 105 -20 105 -14 0 -31 -5
-38 -12 -8 -8 -12 -8 -12 -1 0 15 -28 25 -35 12z m95 -52 c0 -16 -48 -63 -56
-55 -3 4 2 20 11 37 16 31 45 43 45 18z"/>
<path d="M2005 2171 c-26 -6 -30 -11 -28 -35 1 -16 -2 -37 -7 -46 -14 -26 -15
-179 -1 -193 22 -22 31 15 31 124 0 76 4 108 13 112 15 5 76 1 83 -6 10 -10
-16 -46 -51 -73 l-35 -26 39 -46 c21 -26 47 -62 57 -79 20 -36 54 -45 54 -15
0 10 -19 45 -43 76 l-44 58 34 33 c38 37 46 88 16 103 -27 14 -85 20 -118 13z"/>
<path d="M4516 2153 c-22 -8 -53 -15 -70 -16 -28 -2 -31 -6 -38 -47 -11 -64
-5 -74 32 -55 27 14 31 14 36 1 9 -23 -6 -38 -31 -32 -26 7 -40 -15 -22 -33
31 -31 85 -3 93 51 5 31 3 38 -19 53 -15 9 -31 14 -37 10 -5 -3 -10 -2 -10 3
0 5 19 12 41 16 51 8 78 26 70 46 -5 13 -11 14 -45 3z"/>
<path d="M417 2142 c-56 -34 -147 -228 -147 -314 0 -21 5 -28 19 -28 15 0 20
11 25 63 l8 62 19 -27 c37 -50 100 -46 163 10 51 45 59 90 21 128 -23 23 -25
30 -16 50 8 18 6 28 -10 48 -21 27 -46 29 -82 8z m53 -35 c0 -19 -29 -57 -45
-57 -14 0 -55 -46 -55 -62 0 -21 33 -18 64 6 42 31 52 32 67 5 9 -17 7 -25
-13 -46 -56 -61 -121 -59 -133 3 -5 32 8 65 40 100 5 6 19 23 30 37 21 28 45
36 45 14z"/>
<path d="M1249 2073 c-7 -32 -17 -61 -22 -64 -10 -7 0 -49 12 -49 4 0 6 -25 3
-55 -4 -46 -2 -56 13 -61 23 -9 48 22 36 45 -5 9 -8 30 -6 46 2 17 6 59 10 95
7 70 1 100 -20 100 -8 0 -19 -23 -26 -57z"/>
<path d="M3156 2117 c-15 -11 -18 -31 -19 -142 -2 -126 -1 -130 19 -133 20 -3
21 0 18 55 l-4 58 32 -39 c18 -22 42 -55 53 -75 23 -41 65 -56 65 -23 0 10 -9
27 -20 37 -43 39 -86 135 -61 135 14 0 51 65 51 89 0 13 -6 29 -14 37 -18 18
-96 18 -120 1z m89 -54 c-4 -16 -7 -28 -8 -28 -1 0 -16 -12 -32 -27 l-30 -27
3 42 c5 62 8 67 43 67 29 0 31 -2 24 -27z"/>
<path d="M4056 2117 c-23 -17 -12 -40 15 -32 26 9 24 1 -13 -41 -25 -28 -29
-39 -21 -52 14 -23 98 -29 119 -8 24 25 7 38 -40 31 -22 -3 -36 -3 -31 2 15
11 55 64 55 72 -1 30 -56 49 -84 28z"/>
<path d="M1446 2050 c-14 -35 -21 -40 -56 -46 -46 -8 -48 -25 -4 -38 21 -6 34
-20 46 -48 27 -63 54 -38 33 30 -6 18 -4 22 14 22 23 0 29 28 10 47 -8 8 -9
20 -1 42 10 27 9 31 -7 31 -13 0 -24 -14 -35 -40z"/>
<path d="M1791 2031 l-24 -31 -43 25 c-39 23 -44 24 -58 9 -9 -8 -19 -27 -22
-41 -13 -52 67 -109 107 -76 13 11 26 11 65 2 35 -8 57 -8 76 0 42 16 26 41
-26 41 -58 0 -72 11 -53 41 8 14 12 32 8 42 -6 17 -9 15 -30 -12z m-78 -45 c9
-7 17 -19 17 -25 0 -21 -32 -7 -41 17 -9 25 -2 28 24 8z"/>
<path d="M3638 2018 c-9 -7 -18 -22 -20 -33 -2 -14 -13 -21 -38 -25 -23 -3
-36 -11 -38 -23 -2 -10 0 -17 5 -16 24 4 73 -2 73 -10 0 -5 7 -25 15 -45 14
-33 17 -35 31 -22 13 14 13 19 -1 47 l-16 31 43 -4 c35 -2 43 0 46 16 4 20
-16 38 -32 29 -6 -4 -21 -7 -34 -8 -21 -1 -23 2 -17 37 7 42 6 44 -17 26z"/>
<path d="M820 2000 c-8 -5 -36 -12 -62 -15 -31 -4 -48 -12 -48 -20 0 -23 30
-33 67 -23 19 5 37 7 41 4 9 -10 32 15 32 35 0 23 -12 30 -30 19z"/>
<path d="M2205 1969 c-9 -50 6 -64 46 -43 39 20 49 18 49 -10 0 -23 -30 -44
-52 -38 -5 1 -8 -7 -8 -17 0 -30 38 -37 69 -13 21 16 26 28 27 66 0 26 6 52
12 58 10 10 17 38 10 38 -2 0 -27 -7 -55 -14 -46 -12 -53 -12 -53 0 0 8 -9 14
-19 14 -15 0 -21 -10 -26 -41z"/>
<path d="M3355 1946 c-11 -8 -16 -19 -12 -30 6 -15 9 -15 37 -1 27 14 30 14
30 0 0 -9 -11 -27 -25 -41 -53 -53 -48 -83 18 -99 44 -11 77 1 77 30 0 28 0
28 -34 15 -14 -5 -33 -7 -41 -4 -12 5 -11 11 10 36 28 33 40 70 31 93 -7 19
-65 20 -91 1z"/>
<path d="M4674 1927 c-31 -28 -34 -35 -25 -58 5 -14 8 -54 7 -87 -2 -42 1 -66
10 -73 25 -21 31 1 26 92 -4 81 -2 94 14 106 25 18 42 16 53 -6 16 -29 -8 -81
-36 -81 -32 0 -29 -26 4 -44 15 -7 38 -35 53 -62 14 -26 29 -48 34 -49 16 0
26 44 13 57 -7 7 -18 25 -26 41 -8 15 -18 27 -22 27 -4 0 -1 12 7 28 21 40 18
98 -6 122 -29 29 -65 25 -106 -13z"/>
<path d="M726 1912 c-3 -3 -6 -14 -6 -24 0 -14 8 -18 39 -18 22 0 46 -3 54 -6
16 -6 32 25 20 37 -10 10 -100 19 -107 11z"/>
<path d="M4885 1800 c-5 -28 -3 -46 7 -57 7 -9 12 -24 10 -34 -2 -10 6 -23 17
-28 34 -18 38 16 15 132 -9 44 -41 36 -49 -13z"/>
<path d="M5950 1121 c0 -10 20 -54 44 -97 95 -170 104 -304 33 -540 -13 -44
-27 -86 -32 -94 -4 -7 -9 -24 -11 -37 -2 -17 3 -23 17 -23 20 0 40 35 32 57
-3 6 1 21 7 33 6 12 14 34 16 48 3 15 12 47 19 72 16 52 22 88 31 186 9 95
-13 183 -79 312 -49 96 -77 126 -77 83z"/>
<path d="M11015 1071 c-3 -6 3 -28 13 -49 11 -20 26 -57 33 -82 7 -25 17 -51
22 -58 6 -7 7 -15 4 -18 -3 -4 2 -25 11 -48 14 -33 17 -73 17 -201 -1 -148 -3
-170 -34 -290 -18 -72 -42 -142 -52 -157 -23 -32 -24 -54 -2 -62 21 -8 32 3
43 45 87 337 79 300 85 434 7 132 -7 211 -62 375 -26 77 -44 116 -55 118 -9 2
-19 -2 -23 -7z"/>
<path d="M4603 1054 c-3 -9 0 -26 7 -38 38 -61 78 -148 93 -206 31 -113 21
-303 -19 -381 -15 -29 -4 -49 27 -49 25 0 33 18 17 37 -7 9 -12 17 -11 17 4 2
23 58 29 84 30 140 8 292 -66 449 -48 101 -64 120 -77 87z"/>
<path d="M3366 987 c-37 -63 -55 -121 -65 -206 -14 -127 -3 -197 45 -292 30
-60 49 -79 80 -79 36 0 33 38 -4 52 -30 12 -59 60 -82 135 -17 54 -8 209 16
278 9 28 30 69 46 93 16 23 26 47 23 52 -13 21 -35 8 -59 -33z"/>
<path d="M9642 968 c-46 -96 -82 -238 -84 -329 -2 -119 23 -279 64 -402 25
-77 50 -100 77 -72 15 15 14 18 -7 35 -26 21 -66 121 -77 191 -35 219 -32 313
13 445 29 83 67 156 76 147 4 -5 6 3 4 17 -6 48 -34 35 -66 -32z"/>
<path d="M9838 990 c-15 -21 -22 -47 -24 -87 -2 -32 -4 -76 -6 -98 -2 -31 1
-40 15 -43 14 -3 17 4 17 37 0 23 5 41 10 41 23 0 60 -53 60 -85 0 -40 23 -63
45 -45 11 9 12 17 5 30 -6 10 -10 29 -10 42 0 13 -13 38 -29 55 l-29 32 24 28
c13 15 24 33 24 40 0 6 4 13 9 15 5 2 3 17 -4 36 -12 27 -19 32 -49 32 -28 0
-40 -7 -58 -30z m72 -25 c0 -21 -28 -62 -47 -69 -13 -5 -15 0 -10 30 6 37 20
54 45 54 6 0 12 -7 12 -15z"/>
<path d="M2038 996 c-10 -7 -18 -18 -18 -25 0 -6 -3 -11 -8 -11 -18 0 -62
-188 -62 -266 0 -125 118 -439 166 -439 34 0 28 38 -13 82 -39 43 -70 113 -97
219 -39 152 -8 347 64 407 36 31 6 62 -32 33z"/>
<path d="M4134 992 c-6 -4 -21 -26 -33 -49 -11 -23 -25 -44 -31 -48 -7 -4 -7
-13 0 -26 15 -27 26 -24 39 11 15 45 18 36 10 -32 -5 -35 -6 -71 -3 -80 5 -17
-33 -81 -75 -125 -22 -23 -27 -48 -12 -57 9 -6 71 66 71 83 0 12 152 165 215
216 25 21 45 46 45 57 0 16 -10 11 -61 -28 -33 -27 -81 -69 -106 -94 l-46 -45
8 60 c16 133 10 178 -21 157z"/>
<path d="M5156 972 c-3 -5 -5 -26 -4 -48 0 -21 -4 -67 -11 -102 -9 -49 -9 -67
0 -78 16 -20 38 -18 35 4 -2 9 -1 25 3 34 5 15 12 13 56 -17 49 -34 80 -37 97
-11 13 19 9 23 -33 29 -61 8 -67 20 -30 62 57 66 36 129 -40 115 -28 -5 -39
-3 -43 6 -6 16 -22 18 -30 6z m104 -52 c0 -22 -30 -68 -54 -84 -29 -18 -30
-16 -16 35 11 40 70 80 70 49z"/>
<path d="M6986 900 c-59 -52 -131 -225 -105 -256 17 -20 29 -8 29 31 0 59 92
215 127 215 25 0 13 -30 -22 -52 -38 -25 -47 -58 -16 -58 11 0 23 5 26 10 3 6
19 10 36 10 24 0 29 -4 29 -24 0 -28 -14 -42 -54 -52 -21 -5 -32 -3 -40 8 -17
23 -46 30 -46 11 0 -45 82 -68 139 -38 46 23 58 90 20 113 -15 10 -19 20 -15
40 7 31 0 44 -31 61 -31 16 -38 14 -77 -19z"/>
<path d="M5700 889 c-19 -17 -52 -47 -73 -65 -21 -19 -42 -34 -48 -34 -6 0 -7
-4 -4 -10 3 -5 2 -10 -4 -10 -15 0 -211 -201 -211 -216 0 -26 28 -14 71 32 99
105 128 134 211 207 48 42 95 77 103 77 21 0 31 30 14 41 -20 12 -20 12 -59
-22z"/>
<path d="M7365 882 c-22 -21 -62 -55 -90 -77 -64 -52 -95 -79 -158 -140 -73
-71 -155 -143 -174 -154 -16 -9 -11 -46 6 -39 4 2 61 52 124 112 160 150 169
157 259 223 126 92 125 91 108 103 -24 15 -32 12 -75 -28z"/>
<path d="M10032 888 c-42 -11 -42 -45 1 -40 15 1 27 -1 27 -5 -1 -13 -37 -53
-49 -53 -22 0 -11 -40 12 -45 43 -11 109 -1 121 18 14 23 -9 40 -35 26 -10 -5
-25 -9 -34 -9 -14 0 -12 6 10 31 29 36 29 56 0 74 -14 9 -30 10 -53 3z"/>
<path d="M5374 880 c-12 -5 -25 -13 -28 -19 -8 -12 24 -30 43 -23 7 2 0 -16
-18 -41 -17 -25 -31 -50 -31 -55 0 -16 44 -29 95 -28 43 1 50 4 53 22 3 21 0
22 -50 17 -53 -4 -53 -4 -32 15 30 29 50 81 37 101 -12 19 -40 24 -69 11z"/>
<path d="M10841 868 c-6 -7 -25 -33 -42 -56 -28 -40 -32 -43 -48 -28 -9 8 -33
22 -54 31 -30 12 -41 13 -57 3 -39 -24 -43 -88 -9 -124 28 -30 47 -30 93 1 20
14 38 25 40 25 2 0 21 -14 42 -31 53 -42 79 -51 131 -43 38 5 44 10 41 28 -2
14 -9 20 -20 18 -10 -2 -18 2 -18 8 0 5 -5 10 -11 10 -5 0 -7 -5 -3 -12 5 -8
2 -9 -9 -5 -10 3 -17 2 -17 -4 0 -6 -9 -8 -21 -4 -24 8 -79 54 -79 67 0 4 15
22 33 39 17 17 31 34 31 37 -1 4 1 13 4 20 7 21 -13 36 -27 20z m-133 -98 c17
-11 32 -22 32 -24 0 -2 -16 -11 -36 -21 -28 -13 -38 -14 -50 -5 -17 15 -18 42
-2 58 16 16 17 15 56 -8z"/>
<path d="M350 815 c-7 -8 -15 -35 -17 -59 -4 -36 -1 -48 17 -66 l23 -23 -19
-56 c-21 -62 -55 -108 -72 -97 -6 4 -9 26 -7 54 13 139 4 182 -39 182 -33 0
-50 -30 -74 -133 -20 -86 -20 -108 1 -135 16 -20 38 5 28 31 -10 24 9 129 29
167 19 36 30 5 22 -61 -10 -71 -7 -116 8 -134 13 -16 57 -20 75 -7 22 15 52
69 69 124 11 36 26 62 42 73 29 19 31 35 4 35 -14 0 -20 7 -21 23 -3 51 -7 67
-19 82 -16 19 -34 19 -50 0z m17 -87 c-3 -7 -5 -2 -5 12 0 14 2 19 5 13 2 -7
2 -19 0 -25z"/>
<path d="M2210 801 c0 -17 -9 -62 -19 -100 -11 -38 -17 -72 -13 -75 14 -14 31
-4 35 22 3 15 5 -7 5 -48 1 -110 1 -110 16 -110 25 0 28 18 25 138 -1 65 -3
135 -3 157 -1 33 -5 41 -24 43 -19 3 -22 -1 -22 -27z"/>
<path d="M3064 796 c-36 -16 -126 -128 -129 -161 -2 -12 -8 -32 -15 -44 -24
-46 -39 -113 -30 -137 14 -37 30 -28 30 16 0 22 7 57 16 79 l16 39 33 -19 c47
-28 94 -17 148 32 44 41 59 88 36 115 -9 11 -9 14 1 14 17 0 3 50 -18 67 -22
16 -49 16 -88 -1z m74 -31 c10 -9 -17 -34 -59 -53 -49 -24 -75 -53 -63 -73 8
-14 51 -3 82 22 33 25 44 24 31 -3 -12 -27 -71 -68 -98 -68 -10 0 -29 8 -42
19 l-23 18 27 45 c37 64 93 111 120 102 12 -3 23 -8 25 -9z"/>
<path d="M3614 775 c-22 -41 -25 -42 -48 -16 -29 32 -68 36 -88 11 -26 -32
-25 -123 2 -150 27 -27 34 -26 77 15 36 33 38 34 57 17 12 -9 23 -20 26 -23
11 -13 51 -30 59 -25 16 10 10 56 -8 56 -9 0 -31 9 -48 20 l-33 20 20 32 c20
34 27 78 12 78 -5 0 -17 -16 -28 -35z m-70 -49 l29 -24 -28 -26 c-31 -29 -41
-32 -47 -13 -7 16 2 87 11 87 3 -1 19 -11 35 -24z"/>
<path d="M6390 764 c-5 -13 -9 -28 -9 -32 1 -4 1 -17 0 -29 -1 -20 -5 -21 -45
-17 -33 5 -45 2 -49 -10 -8 -19 -3 -22 51 -31 38 -6 47 -14 43 -38 -1 -4 4
-17 9 -28 16 -29 33 -12 27 27 -5 32 -5 33 23 27 69 -13 76 26 9 46 -43 13
-43 14 -23 82 8 29 -26 32 -36 3z"/>
<path d="M1525 748 c-12 -29 -11 -35 7 -60 10 -16 23 -28 28 -28 11 0 -4 -51
-26 -90 -24 -39 -32 -38 -39 8 -15 99 -27 138 -44 149 -10 6 -22 8 -27 5 -12
-9 -55 -179 -54 -219 0 -20 5 -33 13 -33 8 0 18 27 26 74 7 40 17 79 22 87 9
16 9 17 30 -76 14 -59 14 -60 49 -60 33 0 37 3 68 67 27 55 38 68 63 73 34 8
49 32 28 45 -7 5 -21 4 -31 -1 -13 -7 -19 -6 -22 3 -3 7 -10 30 -16 51 -9 30
-16 37 -36 37 -19 0 -28 -8 -39 -32z m55 -41 c0 -5 -4 -5 -10 -2 -5 3 -10 14
-10 23 0 15 2 15 10 2 5 -8 10 -19 10 -23z"/>
<path d="M7889 758 c-14 -27 -15 -99 -1 -124 7 -12 6 -24 -2 -38 -15 -28 -45
-60 -50 -55 -2 2 -6 34 -8 71 -9 123 -49 133 -98 26 -45 -99 -52 -125 -34
-132 16 -6 17 -5 38 59 17 52 42 92 51 83 5 -4 9 -45 14 -120 1 -10 10 -22 21
-28 29 -16 54 2 86 60 15 27 31 47 36 44 5 -3 31 0 58 6 42 10 50 16 50 36 0
23 0 23 -41 9 -59 -21 -72 -20 -63 7 9 30 12 77 6 100 -6 26 -48 23 -63 -4z
m33 -58 c-2 -16 -6 -30 -8 -30 -2 0 -4 14 -4 30 0 17 4 30 8 30 5 0 7 -13 4
-30z"/>
<path d="M3765 750 c-21 -35 80 -55 140 -28 29 13 28 34 -1 31 -51 -6 -101 -5
-115 1 -10 4 -20 2 -24 -4z"/>
<path d="M4287 745 c-46 -16 -52 -21 -54 -48 0 -12 -4 -51 -8 -87 -6 -54 -5
-68 8 -79 22 -17 38 -5 31 24 -5 21 -3 23 28 21 18 -2 36 -4 40 -5 3 0 9 -15
13 -32 4 -18 16 -34 28 -38 30 -11 39 7 21 38 -25 44 -39 66 -47 72 -5 3 1 21
12 40 41 70 3 120 -72 94z m42 -34 c23 -15 -15 -81 -46 -81 -23 0 -25 3 -19
33 3 17 14 38 23 45 20 14 24 15 42 3z"/>
<path d="M8951 693 c-12 -27 -23 -55 -25 -63 -1 -8 -8 -34 -16 -57 -14 -46 -7
-93 15 -93 17 0 29 33 20 59 -6 21 18 102 42 140 l16 24 12 -22 c7 -15 10 -53
8 -105 -4 -68 -1 -86 12 -100 25 -24 53 -3 88 65 23 46 34 56 72 70 24 9 46
15 48 13 2 -2 10 7 17 21 19 36 7 41 -47 17 l-48 -21 -15 47 c-16 50 -34 61
-64 39 -15 -11 -17 -21 -12 -51 4 -20 15 -45 25 -55 16 -16 16 -19 -2 -52 -10
-18 -25 -40 -32 -48 -12 -12 -13 -8 -8 30 14 118 -6 189 -56 189 -23 0 -31 -7
-50 -47z"/>
<path d="M5697 724 c-4 -4 -17 -8 -30 -9 -19 -1 -23 -9 -29 -51 -3 -27 -11
-63 -16 -81 -12 -37 -6 -69 14 -77 10 -4 16 6 20 34 4 22 9 40 13 40 5 0 66
-65 107 -113 8 -10 19 -15 24 -12 20 13 9 44 -32 87 l-43 46 28 27 c29 28 35
61 15 88 -15 18 -60 32 -71 21z m38 -44 c12 -19 -6 -48 -35 -59 -35 -12 -37
-7 -10 37 20 33 34 40 45 22z"/>
<path d="M8120 710 c0 -11 7 -20 15 -20 8 0 15 9 15 20 0 11 -7 20 -15 20 -8
0 -15 -9 -15 -20z"/>
<path d="M2493 704 c-3 -9 -7 -29 -8 -45 -4 -76 -2 -72 -41 -66 -26 4 -37 2
-41 -10 -8 -20 13 -32 49 -28 15 2 29 0 29 -5 1 -6 2 -13 3 -17 1 -5 6 -23 10
-41 9 -37 43 -62 52 -38 3 8 -1 25 -10 38 -28 40 -20 84 15 80 4 -1 14 7 24
18 23 26 12 42 -21 30 -37 -14 -37 -15 -29 45 5 47 4 55 -10 55 -8 0 -18 -7
-22 -16z"/>
<path d="M4840 698 c-11 -4 -20 -14 -20 -21 0 -12 20 -14 100 -14 98 1 118 8
101 35 -7 12 -147 12 -181 0z"/>
<path d="M10417 700 c-26 -5 -59 -7 -72 -4 -29 5 -41 -11 -24 -33 11 -13 27
-14 86 -10 87 6 97 11 83 38 -6 10 -14 18 -18 18 -4 -1 -29 -5 -55 -9z"/>
<path d="M8582 683 c1 -4 -1 -30 -6 -56 l-7 -48 -39 3 c-68 4 -67 -26 0 -37
31 -5 40 -11 40 -27 0 -30 19 -58 34 -52 11 4 12 13 5 37 -10 37 -10 37 29 40
31 2 48 20 36 38 -3 6 -13 7 -22 5 -31 -10 -44 8 -40 55 2 35 0 44 -15 47 -10
2 -17 0 -15 -5z"/>
<path d="M982 662 c-47 -12 -62 -20 -60 -31 3 -15 43 -18 146 -12 18 1 15 48
-4 55 -9 3 -16 5 -17 5 -1 -1 -30 -9 -65 -17z"/>
<path d="M9833 673 c-34 -3 -43 -8 -43 -23 0 -17 10 -18 138 -17 131 1 196 -6
217 -23 6 -4 21 -7 35 -6 19 1 26 7 28 27 3 22 0 25 -26 23 -16 -1 -51 4 -78
11 -47 12 -184 16 -271 8z"/>
<path d="M7255 650 c-33 -13 -44 -33 -43 -75 1 -22 -2 -68 -6 -102 -7 -60 -7
-63 14 -63 11 0 20 6 19 13 -2 22 13 55 28 61 17 7 42 -20 43 -45 0 -9 9 -24
19 -33 19 -17 20 -17 31 3 9 17 6 29 -16 67 -26 44 -26 47 -10 80 20 43 20 68
0 88 -17 17 -47 20 -79 6z m55 -52 c-1 -25 -32 -68 -49 -68 -15 0 -14 77 2 83
30 13 47 7 47 -15z"/>
<path d="M4457 633 c-37 -19 -29 -39 13 -35 l33 4 -22 -31 c-12 -17 -31 -37
-42 -44 -35 -25 -14 -47 47 -47 30 0 57 -1 62 -2 4 -2 8 7 10 20 3 22 -7 27
-51 22 -15 -1 -14 3 7 35 41 59 3 110 -57 78z"/>
<path d="M425 613 c4 -16 7 -58 6 -94 -2 -81 17 -105 75 -96 42 7 60 20 80 58
13 26 12 29 -16 58 -17 16 -26 32 -21 36 13 7 5 46 -11 57 -7 4 -37 8 -67 8
-53 0 -53 0 -46 -27z m79 -22 c3 -4 -3 -16 -14 -26 -19 -17 -20 -17 -20 2 0
29 22 45 34 24z m36 -96 c0 -16 -35 -38 -54 -33 -10 2 -11 10 -5 26 10 26 59
32 59 7z"/>
<path d="M5852 605 c-16 -35 -15 -62 3 -69 8 -3 15 -14 15 -24 0 -11 6 -25 14
-31 11 -10 17 -7 30 11 9 12 12 24 8 28 -4 3 -9 17 -10 32 -3 40 -6 51 -19 65
-17 19 -28 16 -41 -12z"/>
<path d="M8091 593 c-8 -21 -25 -54 -37 -73 -29 -42 -31 -70 -5 -70 13 0 25
15 39 47 19 45 21 46 27 22 8 -33 55 -59 55 -31 0 10 -4 22 -9 28 -6 5 -14 31
-18 59 -11 63 -33 71 -52 18z"/>
<path d="M650 606 c-23 -8 -36 -20 -38 -34 -4 -24 9 -28 39 -11 42 22 39 2 -5
-45 -25 -26 -46 -49 -46 -51 0 -2 10 -14 23 -25 19 -19 29 -21 82 -15 61 7 85
18 85 40 0 19 -26 25 -59 14 -17 -6 -38 -9 -47 -7 -14 2 -11 9 14 36 44 47 50
72 22 94 -25 21 -24 21 -70 4z"/>
<path d="M1686 597 c-3 -12 -1 -26 4 -31 15 -15 13 -99 -2 -93 -7 2 -21 1 -32
-2 -17 -7 -17 -8 -2 -24 20 -19 69 -22 114 -6 32 11 67 67 64 103 -2 33 -43
63 -93 69 -42 6 -47 4 -53 -16z m101 -39 c12 -16 11 -27 -5 -55 -24 -44 -51
-20 -52 45 0 17 6 22 24 22 13 0 28 -6 33 -12z"/>
<path d="M980 593 c-43 -5 -57 -17 -42 -36 9 -10 27 -13 65 -9 58 5 79 16 70
38 -5 14 -22 15 -93 7z"/>
<path d="M9327 553 c-4 -3 -37 -7 -74 -7 -55 -1 -68 -4 -71 -18 -2 -12 6 -19
33 -24 32 -6 35 -9 34 -38 -3 -60 1 -92 15 -112 11 -14 17 -16 26 -7 9 8 9 20
0 48 -16 47 -5 107 18 104 17 -2 72 17 72 25 0 8 -31 36 -39 36 -4 0 -11 -3
-14 -7z"/>
<path d="M7401 536 c-32 -14 -19 -31 22 -29 28 1 37 -2 37 -14 0 -16 -47 -67
-69 -74 -22 -8 1 -40 33 -47 38 -8 43 -8 84 2 17 4 32 14 32 21 0 19 -33 27
-64 16 -32 -13 -33 -7 -1 31 27 32 33 79 11 97 -15 13 -53 11 -85 -3z"/>
<path d="M9833 508 c-14 -22 -31 -130 -29 -188 1 -41 5 -55 17 -58 12 -2 16 8
18 45 1 26 4 49 6 51 4 4 72 -84 77 -100 3 -7 15 -9 31 -4 33 8 27 24 -28 79
l-36 36 30 28 c44 40 44 71 2 100 -37 25 -75 30 -88 11z m58 -38 c26 -15 24
-35 -7 -55 -32 -21 -38 -15 -30 30 8 39 9 40 37 25z"/>
<path d="M10042 407 c-10 -14 -42 -82 -42 -91 0 -11 28 -6 33 7 3 6 6 -2 6
-19 1 -37 23 -61 37 -42 8 11 10 78 5 134 -1 17 -28 25 -39 11z"/>
<path d="M1293 314 c3 -3 12 -4 19 -1 8 3 5 6 -6 6 -11 1 -17 -2 -13 -5z"/>
</g>
</svg>
